<?xml version="1.0" encoding="utf-8" standalone="no"?>
<!DOCTYPE svg PUBLIC "-//W3C//DTD SVG 1.1//EN"
  "http://www.w3.org/Graphics/SVG/1.1/DTD/svg11.dtd">
<!-- Created with matplotlib (http://matplotlib.org/) -->
<svg height="314pt" version="1.1" viewBox="0 0 454 314" width="454pt" xmlns="http://www.w3.org/2000/svg" xmlns:xlink="http://www.w3.org/1999/xlink">
 <defs>
  <style type="text/css">
*{stroke-linecap:butt;stroke-linejoin:round;}
  </style>
 </defs>
 <g id="figure_1">
  <g id="patch_1">
   <path d="M 0 314.405178 
L 454.273056 314.405178 
L 454.273056 0 
L 0 0 
z
" style="fill:#ffffff;"/>
  </g>
  <g id="axes_1">
   <g id="matplotlib.axis_1"/>
   <g id="matplotlib.axis_2"/>
   <g id="patch_2">
    <path d="M 128.442457 71.07918 
C 128.442457 64.692668 126.69122 58.426776 123.379974 52.965715 
C 120.068728 47.504654 115.322551 43.054706 109.659706 40.101789 
C 103.99686 37.148872 97.631252 35.804526 91.25798 36.215551 
C 84.884707 36.626575 78.744512 38.777442 73.507878 42.433287 
L 93.5064 71.07918 
L 128.442457 71.07918 
z
" style="fill:#ff007a;"/>
   </g>
   <g id="patch_3">
    <path d="M 73.507878 42.433287 
C 67.182565 46.84917 62.494545 53.238144 60.179963 60.59697 
C 57.865382 67.955796 58.05208 75.878022 60.710741 83.119647 
L 93.5064 71.07918 
L 73.507878 42.433287 
z
" style="fill:#8280ff;"/>
   </g>
   <g id="patch_4">
    <path d="M 60.710741 83.119647 
C 62.841226 88.922633 66.474226 94.057502 71.23732 97.997876 
C 76.000414 101.93825 81.725088 104.544721 87.8245 105.550097 
C 93.923912 106.555474 100.182271 105.924186 105.958027 103.720949 
C 111.733782 101.517712 116.822594 97.820474 120.702804 93.008241 
L 93.5064 71.07918 
L 60.710741 83.119647 
z
" style="fill:#008042;"/>
   </g>
   <g id="patch_5">
    <path d="M 120.702804 93.008241 
C 123.188855 89.925042 125.132597 86.441416 126.450771 82.706582 
C 127.768945 78.971748 128.442457 75.039806 128.442457 71.079179 
L 93.5064 71.07918 
L 120.702804 93.008241 
z
" style="fill:#620080;"/>
   </g>
   <g id="patch_6">
    <path clip-path="url(#p34a38abdce)" d="M 93.5064 97.281223 
C 100.455263 97.281223 107.120454 94.520411 112.034042 89.606823 
C 116.94763 84.693234 119.708442 78.028043 119.708442 71.07918 
C 119.708442 64.130317 116.94763 57.465126 112.034042 52.551538 
C 107.120454 47.63795 100.455263 44.877138 93.5064 44.877138 
C 86.557537 44.877138 79.892346 47.63795 74.978758 52.551538 
C 70.065169 57.465126 67.304357 64.130317 67.304357 71.07918 
C 67.304357 78.028043 70.065169 84.693234 74.978758 89.606823 
C 79.892346 94.520411 86.557537 97.281223 93.5064 97.281223 
z
" style="fill:#ffffff;stroke:#ffffff;stroke-linejoin:miter;stroke-width:0.5;"/>
   </g>
   <g id="text_1">
    <!-- $34.70\% $ -->
    <defs>
     <path d="M 22.09375 33.703125 
C 31 33.703125 34.90625 25.96875 34.90625 17.03125 
C 34.90625 5 28.5 0.390625 22.703125 0.390625 
C 17.40625 0.390625 8.796875 3.03125 6.09375 10.828125 
C 6.59375 10.625 7.09375 10.625 7.59375 10.625 
C 10 10.625 11.796875 12.21875 11.796875 14.8125 
C 11.796875 17.703125 9.59375 19 7.59375 19 
C 5.90625 19 3.296875 18.203125 3.296875 14.46875 
C 3.296875 5.234375 12.296875 -2 22.90625 -2 
C 34 -2 42.5 6.71875 42.5 16.953125 
C 42.5 26.671875 34.5 33.703125 25 34.796875 
C 32.59375 36.375 39.90625 43.0625 39.90625 52.015625 
C 39.90625 59.6875 32 65.296875 23 65.296875 
C 13.90625 65.296875 5.90625 59.828125 5.90625 52.015625 
C 5.90625 48.59375 8.5 48 9.796875 48 
C 11.90625 48 13.703125 49.296875 13.703125 51.890625 
C 13.703125 54.46875 11.90625 55.765625 9.796875 55.765625 
C 9.40625 55.765625 8.90625 55.765625 8.5 55.578125 
C 11.40625 61.859375 19.296875 63 22.796875 63 
C 26.296875 63 32.90625 61.328125 32.90625 51.875 
C 32.90625 49.109375 32.5 44.1875 29.09375 39.84375 
C 26.09375 36 22.703125 36 19.40625 35.6875 
C 18.90625 35.6875 16.59375 35.453125 16.203125 35.453125 
C 15.5 35.359375 15.09375 35.265625 15.09375 34.5 
C 15.09375 33.796875 15.203125 33.703125 17.203125 33.703125 
z
" id="CMR17-51"/>
     <path d="M 33.59375 64.40625 
C 33.59375 66.5 33.5 66.5 31.703125 66.5 
L 2 19.59375 
L 2 17 
L 27.796875 17 
L 27.796875 7.140625 
C 27.796875 3.5 27.59375 2.5 20.59375 2.5 
L 18.703125 2.5 
L 18.703125 0 
C 21.90625 0 27.296875 0 30.703125 0 
C 34.09375 0 39.5 0 42.703125 0 
L 42.703125 2.5 
L 40.796875 2.5 
C 33.796875 2.5 33.59375 3.5 33.59375 7.140625 
L 33.59375 17 
L 43.796875 17 
L 43.796875 19.59375 
L 33.59375 19.59375 
z
M 28.09375 57.859375 
L 28.09375 19.59375 
L 4 19.59375 
z
" id="CMR17-52"/>
     <path d="M 18.40625 4.796875 
C 18.40625 7.6875 16 9.671875 13.59375 9.671875 
C 10.703125 9.671875 8.703125 7.28125 8.703125 4.890625 
C 8.703125 2 11.09375 0 13.5 0 
C 16.40625 0 18.40625 2.390625 18.40625 4.796875 
" id="CMMI12-58"/>
     <path d="M 45.09375 61.578125 
L 45.09375 63.765625 
L 21.59375 63.765625 
C 9.90625 63.765625 9.703125 65.078125 9.296875 67 
L 7.5 67 
L 4.59375 48.34375 
L 6.40625 48.34375 
C 6.703125 50.234375 7.40625 55.3125 8.59375 57.203125 
C 9.203125 58 16.59375 58 18.296875 58 
L 40.296875 58 
L 29.203125 41.578125 
C 21.796875 30.53125 16.703125 15.609375 16.703125 2.578125 
C 16.703125 1.390625 16.703125 -2 20.296875 -2 
C 23.90625 -2 23.90625 1.390625 23.90625 2.671875 
L 23.90625 7.265625 
C 23.90625 23.5625 26.703125 34.3125 31.296875 41.1875 
z
" id="CMR17-55"/>
     <path d="M 42 31.640625 
C 42 37.75 41.90625 48.125 37.703125 56.109375 
C 34 63.109375 28.09375 65.59375 22.90625 65.59375 
C 18.09375 65.59375 12 63.40625 8.203125 56.203125 
C 4.203125 48.71875 3.796875 39.4375 3.796875 31.640625 
C 3.796875 25.953125 3.90625 17.28125 7 9.671875 
C 11.296875 -0.609375 19 -2 22.90625 -2 
C 27.5 -2 34.5 -0.109375 38.59375 9.375 
C 41.59375 16.28125 42 24.359375 42 31.640625 
M 22.90625 -0.40625 
C 16.5 -0.40625 12.703125 5.078125 11.296875 12.6875 
C 10.203125 18.5625 10.203125 27.15625 10.203125 32.75 
C 10.203125 40.4375 10.203125 46.828125 11.5 52.921875 
C 13.40625 61.390625 19 64 22.90625 64 
C 27 64 32.296875 61.296875 34.203125 53.125 
C 35.5 47.4375 35.59375 40.734375 35.59375 32.75 
C 35.59375 26.25 35.59375 18.265625 34.40625 12.375 
C 32.296875 1.484375 26.40625 -0.40625 22.90625 -0.40625 
" id="CMR17-48"/>
     <path d="M 72.5 14.984375 
C 72.5 26.53125 66.796875 35 60.09375 35 
C 53.296875 35 46.40625 27.125 46.40625 14.984375 
C 46.40625 2.859375 53.203125 -5 60.09375 -5 
C 66.796875 -5 72.5 3.359375 72.5 14.984375 
M 60.203125 -3.40625 
C 57.59375 -3.40625 51.09375 -1.03125 51.09375 14.984375 
C 51.09375 31.109375 57.59375 33.40625 60.203125 33.40625 
C 65.703125 33.40625 70.703125 25.53125 70.703125 14.984375 
C 70.703125 4.453125 65.703125 -3.40625 60.203125 -3.40625 
M 63.796875 71.515625 
C 64.5 72.609375 64.59375 72.703125 64.59375 73.203125 
C 64.59375 74.390625 63.703125 75 62.90625 75 
C 61.90625 75 61.5 74.3125 60.796875 73.53125 
C 55 65.46875 47 64.59375 42.90625 64.59375 
C 32.90625 64.59375 26.796875 70.21875 24.90625 71.984375 
C 23.59375 73.15625 21.703125 75 18.296875 75 
C 11.5 75 4.59375 67.125 4.59375 54.984375 
C 4.59375 42.859375 11.40625 35 18.296875 35 
C 25 35 30.703125 43.40625 30.703125 55.109375 
C 30.703125 62.015625 28.59375 66.71875 28.296875 67.3125 
C 34.40625 63.5 40.40625 63 43 63 
C 49.40625 63 54 65.359375 56.5 67.015625 
L 56.59375 66.921875 
L 13.40625 -1.3125 
C 12.5 -2.71875 12.5 -2.921875 12.5 -3.21875 
C 12.5 -4.3125 13.40625 -5 14.296875 -5 
C 15.203125 -5 15.5 -4.515625 16.203125 -3.40625 
z
M 18.40625 36.59375 
C 15.796875 36.59375 9.296875 38.96875 9.296875 54.984375 
C 9.296875 71.109375 15.796875 73.40625 18.40625 73.40625 
C 23.90625 73.40625 28.90625 65.53125 28.90625 54.984375 
C 28.90625 44.453125 23.90625 36.59375 18.40625 36.59375 
" id="CMR17-37"/>
    </defs>
    <g transform="translate(98.200545 34.848101)scale(0.1 -0.1)">
     <use transform="scale(0.996264)" xlink:href="#CMR17-51"/>
     <use transform="translate(45.690477 0)scale(0.996264)" xlink:href="#CMR17-52"/>
     <use transform="translate(91.380954 0)scale(0.996264)" xlink:href="#CMMI12-58"/>
     <use transform="translate(118.478131 0)scale(0.996264)" xlink:href="#CMR17-55"/>
     <use transform="translate(164.168608 0)scale(0.996264)" xlink:href="#CMR17-48"/>
     <use transform="translate(209.859086 0)scale(0.996264)" xlink:href="#CMR17-37"/>
    </g>
   </g>
   <g id="text_2">
    <!-- $20.90\% $ -->
    <defs>
     <path d="M 41.703125 15.453125 
L 39.90625 15.453125 
C 38.90625 8.375 38.09375 7.171875 37.703125 6.5625 
C 37.203125 5.765625 30 5.765625 28.59375 5.765625 
L 9.40625 5.765625 
C 13 9.671875 20 16.75 28.5 24.953125 
C 34.59375 30.734375 41.703125 37.53125 41.703125 47.421875 
C 41.703125 59.21875 32.296875 66 21.796875 66 
C 10.796875 66 4.09375 56.3125 4.09375 47.34375 
C 4.09375 43.4375 7 42.9375 8.203125 42.9375 
C 9.203125 42.9375 12.203125 43.546875 12.203125 47.03125 
C 12.203125 50.109375 9.59375 51 8.203125 51 
C 7.59375 51 7 50.90625 6.59375 50.703125 
C 8.5 59.21875 14.296875 63.40625 20.40625 63.40625 
C 29.09375 63.40625 34.796875 56.515625 34.796875 47.421875 
C 34.796875 38.734375 29.703125 31.25 24 24.75 
L 4.09375 2.28125 
L 4.09375 0 
L 39.296875 0 
z
" id="CMR17-50"/>
     <path d="M 35.203125 29.125 
C 35.203125 7.25 26.09375 0.484375 18.59375 0.484375 
C 16.296875 0.484375 10.703125 0.484375 8.40625 4.59375 
C 11 4.1875 12.90625 5.578125 12.90625 8.09375 
C 12.90625 10.8125 10.703125 11.703125 9.296875 11.703125 
C 8.40625 11.703125 5.703125 11.296875 5.703125 7.90625 
C 5.703125 1.109375 11.59375 -2 18.796875 -2 
C 30.296875 -2 42 10.53125 42 32.390625 
C 42 59.640625 30.796875 65.296875 23.203125 65.296875 
C 13.296875 65.296875 3.796875 56.6875 3.796875 43.40625 
C 3.796875 31.109375 11.90625 22 22.09375 22 
C 30.5 22 34.203125 29.734375 35.203125 33 
z
M 22.296875 23.59375 
C 19.59375 23.59375 15.796875 24.09375 12.703125 30.03125 
C 10.59375 33.890625 10.59375 38.453125 10.59375 43.296875 
C 10.59375 49.15625 10.59375 53.203125 13.40625 57.5625 
C 14.796875 59.640625 17.40625 63 23.203125 63 
C 35 63 35 45.078125 35 41.125 
C 35 34.09375 31.796875 23.59375 22.296875 23.59375 
" id="CMR17-57"/>
    </defs>
    <g transform="translate(36.350867 60.467078)scale(0.1 -0.1)">
     <use transform="scale(0.996264)" xlink:href="#CMR17-50"/>
     <use transform="translate(45.690477 0)scale(0.996264)" xlink:href="#CMR17-48"/>
     <use transform="translate(91.380954 0)scale(0.996264)" xlink:href="#CMMI12-58"/>
     <use transform="translate(118.478131 0)scale(0.996264)" xlink:href="#CMR17-57"/>
     <use transform="translate(164.168608 0)scale(0.996264)" xlink:href="#CMR17-48"/>
     <use transform="translate(209.859086 0)scale(0.996264)" xlink:href="#CMR17-37"/>
    </g>
   </g>
   <g id="text_3">
    <!-- $33.60\% $ -->
    <defs>
     <path d="M 10.59375 34 
C 10.59375 57.65625 21.796875 63 28.296875 63 
C 30.40625 63 35.5 62.640625 37.5 59 
C 35.90625 59 32.90625 59 32.90625 55.515625 
C 32.90625 52.828125 35.09375 51.921875 36.5 51.921875 
C 37.40625 51.921875 40.09375 52.3125 40.09375 55.625 
C 40.09375 61.78125 35.09375 65.296875 28.203125 65.296875 
C 16.296875 65.296875 3.796875 52.96875 3.796875 31 
C 3.796875 3.953125 15.09375 -2 23.09375 -2 
C 32.796875 -2 42 6.671875 42 20.046875 
C 42 32.515625 33.90625 41.59375 23.703125 41.59375 
C 17.59375 41.59375 13.09375 37.609375 10.59375 30.625 
z
M 23.09375 0.390625 
C 10.796875 0.390625 10.796875 18.75 10.796875 22.4375 
C 10.796875 29.625 14.203125 40 23.5 40 
C 25.203125 40 30.09375 40 33.40625 33.125 
C 35.203125 29.21875 35.203125 25.140625 35.203125 20.140625 
C 35.203125 14.75 35.203125 10.78125 33.09375 6.78125 
C 30.90625 2.671875 27.703125 0.390625 23.09375 0.390625 
" id="CMR17-54"/>
    </defs>
    <g transform="translate(70.906538 116.658486)scale(0.1 -0.1)">
     <use transform="scale(0.996264)" xlink:href="#CMR17-51"/>
     <use transform="translate(45.690477 0)scale(0.996264)" xlink:href="#CMR17-51"/>
     <use transform="translate(91.380954 0)scale(0.996264)" xlink:href="#CMMI12-58"/>
     <use transform="translate(118.478131 0)scale(0.996264)" xlink:href="#CMR17-54"/>
     <use transform="translate(164.168608 0)scale(0.996264)" xlink:href="#CMR17-48"/>
     <use transform="translate(209.859086 0)scale(0.996264)" xlink:href="#CMR17-37"/>
    </g>
   </g>
   <g id="text_4">
    <!-- $10.80\% $ -->
    <defs>
     <path d="M 26.59375 63.40625 
C 26.59375 65.5 26.5 65.5 25.09375 65.5 
C 21.203125 61.1875 15.296875 59.796875 9.703125 59.796875 
C 9.40625 59.796875 8.90625 59.796875 8.796875 59.5 
C 8.703125 59.296875 8.703125 59.09375 8.703125 57 
C 11.796875 57 17 57.59375 21 59.984375 
L 21 7.203125 
C 21 3.6875 20.796875 2.5 12.203125 2.5 
L 9.203125 2.5 
L 9.203125 0 
C 14 0 19 0 23.796875 0 
C 28.59375 0 33.59375 0 38.40625 0 
L 38.40625 2.5 
L 35.40625 2.5 
C 26.796875 2.5 26.59375 3.59375 26.59375 7.15625 
z
" id="CMR17-49"/>
     <path d="M 27.203125 35.375 
C 33.5 38.546875 39.90625 43.328125 39.90625 50.984375 
C 39.90625 60.015625 31.09375 65.296875 23 65.296875 
C 13.90625 65.296875 5.90625 58.734375 5.90625 49.6875 
C 5.90625 47.203125 6.5 42.921875 10.40625 39.140625 
C 11.40625 38.15625 15.59375 35.171875 18.296875 33.28125 
C 13.796875 30.984375 3.296875 25.53125 3.296875 14.59375 
C 3.296875 4.359375 13.09375 -2 22.796875 -2 
C 33.5 -2 42.5 5.65625 42.5 15.78125 
C 42.5 24.84375 36.40625 29.015625 32.40625 31.703125 
z
M 14.09375 44.09375 
C 13.296875 44.59375 9.296875 47.671875 9.296875 52.359375 
C 9.296875 58.421875 15.59375 63 22.796875 63 
C 30.703125 63 36.5 57.4375 36.5 50.96875 
C 36.5 41.703125 26.09375 36.421875 25.59375 36.421875 
C 25.5 36.421875 25.40625 36.421875 24.59375 37.03125 
z
M 32.5 23.734375 
C 34 22.640625 38.796875 19.375 38.796875 13.296875 
C 38.796875 5.953125 31.40625 0.390625 23 0.390625 
C 13.90625 0.390625 7 6.84375 7 14.6875 
C 7 22.546875 13.09375 29.09375 20 32.1875 
z
" id="CMR17-56"/>
    </defs>
    <g transform="translate(119.189377 88.104092)scale(0.1 -0.1)">
     <use transform="scale(0.996264)" xlink:href="#CMR17-49"/>
     <use transform="translate(45.690477 0)scale(0.996264)" xlink:href="#CMR17-48"/>
     <use transform="translate(91.380954 0)scale(0.996264)" xlink:href="#CMMI12-58"/>
     <use transform="translate(118.478131 0)scale(0.996264)" xlink:href="#CMR17-56"/>
     <use transform="translate(164.168608 0)scale(0.996264)" xlink:href="#CMR17-48"/>
     <use transform="translate(209.859086 0)scale(0.996264)" xlink:href="#CMR17-37"/>
    </g>
   </g>
   <g id="text_5">
    <!-- 125 -->
    <defs>
     <path d="M 28.40625 67 
L 26.5 67 
C 21.09375 61.5625 14.796875 60.78125 8.40625 60.78125 
L 8.40625 55 
C 11.296875 55 16 55 20.703125 57.296875 
L 20.703125 5.765625 
L 8.90625 5.765625 
L 8.90625 0 
L 40.203125 0 
L 40.203125 5.765625 
L 28.40625 5.765625 
z
" id="CMSS17-49"/>
     <path d="M 25.796875 21.203125 
C 28.59375 24.078125 32.796875 27.5625 35.703125 31.046875 
C 38.5 34.4375 42.203125 39.234375 42.203125 46.203125 
C 42.203125 57.140625 34.796875 67 22.203125 67 
C 12.296875 67 6.59375 60.828125 3.90625 51.15625 
L 7.796875 45.765625 
C 10 54.84375 13.09375 60.625 20.90625 60.625 
C 29.5 60.625 34.296875 53.640625 34.296875 45.96875 
C 34.296875 36.796875 27.296875 29.703125 22 24.421875 
C 16.09375 18.546875 10.296875 12.5625 4.703125 6.375 
L 4.703125 0 
L 42.203125 0 
L 42.203125 6.765625 
L 25.203125 6.765625 
C 24 6.765625 22.796875 6.765625 21.59375 6.765625 
L 11.59375 6.765625 
L 11.59375 6.859375 
z
" id="CMSS17-50"/>
     <path d="M 14.59375 58.625 
L 39.09375 58.625 
L 39.09375 65 
L 7.296875 65 
L 7.296875 27.828125 
L 14 27.828125 
C 15.796875 31.96875 19.5 35 24.296875 35 
C 28.796875 35 33.796875 31.078125 33.796875 19.78125 
C 33.796875 7.703125 26.703125 4.171875 21.5 4.171875 
C 15.09375 4.171875 9.203125 8 6.59375 13.296875 
L 3.40625 7.796875 
C 8 0.765625 15.5 -2 21.5 -2 
C 33.09375 -2 42.203125 7.765625 42.203125 19.578125 
C 42.203125 31.71875 34.09375 41.078125 24.40625 41.078125 
C 20.90625 41.078125 17.5 39.890625 14.59375 37.484375 
z
" id="CMSS17-53"/>
    </defs>
    <g transform="translate(86.034397 68.450152)scale(0.1 -0.1)">
     <use transform="scale(0.996264)" xlink:href="#CMSS17-49"/>
     <use transform="translate(46.843624 0)scale(0.996264)" xlink:href="#CMSS17-50"/>
     <use transform="translate(93.687247 0)scale(0.996264)" xlink:href="#CMSS17-53"/>
    </g>
    <!-- cores -->
    <defs>
     <path d="M 38.5 39.703125 
C 38.5 40.390625 33.90625 42.40625 32.703125 42.796875 
C 29.40625 44 25.203125 44 24.09375 44 
C 11.09375 44 3.296875 32.703125 3.296875 21.296875 
C 3.296875 9.296875 12 -1 23.703125 -1 
C 30.40625 -1 35.203125 1.1875 39.09375 3.78125 
L 38.5 10.375 
C 34.203125 7.078125 29.203125 5.265625 23.796875 5.265625 
C 16 5.265625 10.90625 12.09375 10.90625 21.390625 
C 10.90625 28.609375 14.203125 37.71875 24.203125 37.71875 
C 29.703125 37.71875 32.796875 36.609375 37.40625 33.515625 
z
" id="CMSS17-99"/>
     <path d="M 44.203125 21.1875 
C 44.203125 34 34.703125 44 23.5 44 
C 12 44 2.703125 33.703125 2.703125 21.1875 
C 2.703125 8.5 12.296875 -1 23.40625 -1 
C 34.796875 -1 44.203125 8.796875 44.203125 21.1875 
M 23.5 5.265625 
C 16.40625 5.265625 10.296875 11.078125 10.296875 22 
C 10.296875 33.609375 17.40625 37.921875 23.40625 37.921875 
C 29.90625 37.921875 36.59375 33.21875 36.59375 22 
C 36.59375 10.671875 30.09375 5.265625 23.5 5.265625 
" id="CMSS17-111"/>
     <path d="M 14.90625 21.296875 
C 14.90625 30.703125 21.796875 37 30.59375 37 
L 30.59375 43.578125 
C 24.203125 43.578125 18.203125 40.390625 14.59375 35.203125 
L 14.59375 43.09375 
L 7.5 43.09375 
L 7.5 0 
L 14.90625 0 
z
" id="CMSS17-114"/>
     <path d="M 39.09375 21.515625 
C 39.09375 24.84375 38.90625 31.296875 35.703125 36.640625 
C 32.203125 42.390625 26.5 44 22.203125 44 
C 11.796875 44 3 34.1875 3 21.484375 
C 3 9.09375 12.09375 -1 23.59375 -1 
C 28.09375 -1 33.59375 0.296875 38.59375 3.875 
C 38.59375 4.28125 38.40625 6.46875 38.296875 6.5625 
C 38.296875 6.765625 38 9.84375 38 10.25 
C 33.203125 6.359375 27.703125 5.078125 23.703125 5.078125 
C 17.296875 5.078125 10.40625 10.421875 10.09375 21.515625 
z
M 10.90625 27 
C 12.203125 32.5625 16.59375 37.828125 22.203125 37.828125 
C 23.703125 37.828125 30.703125 37.828125 32.5 27 
z
" id="CMSS17-101"/>
     <path d="M 32.203125 41.046875 
C 26.296875 43.859375 21.703125 43.859375 18.703125 43.859375 
C 11.59375 43.859375 3.09375 41.375 3.09375 31.296875 
C 3.09375 21.234375 14.09375 19.03125 17.09375 18.421875 
C 21.703125 17.53125 26.796875 16.53125 26.796875 11.5625 
C 26.796875 5.265625 19.59375 5.265625 18.296875 5.265625 
C 14.296875 5.265625 8.796875 6.359375 3.796875 9.96875 
L 2.59375 3.28125 
C 8.296875 0 13.796875 -1 18.40625 -1 
C 30.703125 -1 33.796875 6.5 33.796875 12.203125 
C 33.796875 17.09375 31 20.390625 29.09375 21.890625 
C 25.796875 24.5 24.59375 24.796875 16.40625 26.5 
C 15 26.703125 10.09375 27.796875 10.09375 32.28125 
C 10.09375 38 16.40625 38 17.796875 38 
C 24.296875 38 28.296875 35.984375 31 34.5 
z
" id="CMSS17-115"/>
    </defs>
    <g transform="translate(83.114803 78.689529)scale(0.1 -0.1)">
     <use transform="scale(0.996264)" xlink:href="#CMSS17-99"/>
     <use transform="translate(41.638822 0)scale(0.996264)" xlink:href="#CMSS17-111"/>
     <use transform="translate(85.879992 0)scale(0.996264)" xlink:href="#CMSS17-114"/>
     <use transform="translate(117.789764 0)scale(0.996264)" xlink:href="#CMSS17-101"/>
     <use transform="translate(159.428586 0)scale(0.996264)" xlink:href="#CMSS17-115"/>
    </g>
   </g>
   <g id="legend_1">
    <g id="patch_7">
     <path d="M 9.2 307.205178 
L 445.073056 307.205178 
Q 447.073056 307.205178 447.073056 305.205178 
L 447.073056 292.268 
Q 447.073056 290.268 445.073056 290.268 
L 9.2 290.268 
Q 7.2 290.268 7.2 292.268 
L 7.2 305.205178 
Q 7.2 307.205178 9.2 307.205178 
z
" style="fill:#e5e5e5;opacity:0.8;stroke:#cccccc;stroke-linejoin:miter;stroke-width:0.5;"/>
    </g>
    <g id="patch_8">
     <path d="M 11.2 301.268 
L 31.2 301.268 
L 31.2 294.268 
L 11.2 294.268 
z
" style="fill:#ff007a;"/>
    </g>
    <g id="text_6">
     <!-- Coarse solve -->
     <defs>
      <path d="M 54.703125 11.15625 
C 48 6.671875 44.90625 5.375 36.796875 5.375 
C 22.796875 5.375 14.59375 20.359375 14.59375 34.046875 
C 14.59375 48.625 23 63 37.203125 63 
C 43.59375 63 47.796875 61.21875 52.90625 58.046875 
L 54.296875 65.890625 
C 49.5 68.28125 43.40625 69.375 37.296875 69.375 
C 18.09375 69.375 6.203125 51.8125 6.203125 34.046875 
C 6.203125 14.484375 20.296875 -1 36.296875 -1 
C 44.90625 -1 47.90625 -0.296875 55.296875 4.375 
z
" id="CMSS17-67"/>
      <path d="M 37.59375 27.984375 
C 37.59375 37.375 30.90625 43.875 21.90625 43.875 
C 17.5 43.875 12.703125 43.078125 7.203125 39.890625 
L 7.796875 33.359375 
C 10.296875 35.125 14.59375 38 21.796875 38 
C 26.90625 38 30 34.0625 30 27.84375 
L 30 24 
C 14 24 4 19.34375 4 11.34375 
C 4 7.203125 6.5 -1 14.796875 -1 
C 16.296875 -1 24.40625 -1 30.203125 3.390625 
L 30.203125 -0.296875 
L 37.59375 -0.296875 
z
M 30 12.75 
C 30 10.953125 30 8.5625 27 6.78125 
C 24.40625 5.078125 21.09375 5.078125 19.703125 5.078125 
C 14.703125 5.078125 11.296875 7.984375 11.296875 11.625 
C 11.296875 18.921875 26.90625 18.921875 30 18.921875 
z
" id="CMSS17-97"/>
      <path d="M 14.796875 69 
L 7.40625 69 
L 7.40625 0 
L 14.796875 0 
z
" id="CMSS17-108"/>
      <path d="M 41.796875 43 
L 34 43 
L 27.296875 24.3125 
C 25.203125 18.203125 22.203125 9.796875 21.703125 5.5 
L 21.59375 5.5 
C 21.40625 7.3125 20.59375 9.90625 20.09375 11.703125 
C 19.5 13.90625 18.703125 16.5 18.09375 18.3125 
L 9.296875 43 
L 1.296875 43 
L 17.09375 0 
L 26 0 
z
" id="CMSS17-118"/>
     </defs>
     <g transform="translate(39.2 301.268)scale(0.1 -0.1)">
      <use transform="scale(0.996264)" xlink:href="#CMSS17-67"/>
      <use transform="translate(59.855772 0)scale(0.996264)" xlink:href="#CMSS17-111"/>
      <use transform="translate(106.699395 0)scale(0.996264)" xlink:href="#CMSS17-97"/>
      <use transform="translate(149.018862 0)scale(0.996264)" xlink:href="#CMSS17-114"/>
      <use transform="translate(180.928634 0)scale(0.996264)" xlink:href="#CMSS17-115"/>
      <use transform="translate(216.842176 0)scale(0.996264)" xlink:href="#CMSS17-101"/>
      <use transform="translate(289.710111 0)scale(0.996264)" xlink:href="#CMSS17-115"/>
      <use transform="translate(325.623653 0)scale(0.996264)" xlink:href="#CMSS17-111"/>
      <use transform="translate(372.467277 0)scale(0.996264)" xlink:href="#CMSS17-108"/>
      <use transform="translate(394.648 0)scale(0.996264)" xlink:href="#CMSS17-118"/>
      <use transform="translate(437.648141 0)scale(0.996264)" xlink:href="#CMSS17-101"/>
     </g>
    </g>
    <g id="patch_9">
     <path d="M 110.230924 301.268 
L 130.230924 301.268 
L 130.230924 294.268 
L 110.230924 294.268 
z
" style="fill:#8280ff;"/>
    </g>
    <g id="text_7">
     <!-- Local assembly + solve -->
     <defs>
      <path d="M 26.09375 6.46875 
C 24.90625 6.46875 23.703125 6.46875 22.5 6.46875 
L 17.203125 6.46875 
L 17.203125 69 
L 8.796875 69 
L 8.796875 0 
L 46.90625 0 
L 46.90625 6.46875 
z
" id="CMSS17-76"/>
      <path d="M 67 29.328125 
C 67 36.0625 65.296875 44 54.09375 44 
C 46.59375 44 42.09375 39.3125 40.09375 36.421875 
C 38.296875 41.71875 34.09375 44 28.09375 44 
C 21.296875 44 17 40.125 14.703125 37.328125 
L 14.703125 43.09375 
L 7.40625 43.09375 
L 7.40625 0 
L 15 0 
L 15 24.359375 
C 15 30.296875 17.203125 37.9375 24.296875 37.9375 
C 33.40625 37.9375 33.40625 31.5 33.40625 28.578125 
L 33.40625 0 
L 41 0 
L 41 24.359375 
C 41 30.296875 43.203125 37.9375 50.296875 37.9375 
C 59.40625 37.9375 59.40625 31.5 59.40625 28.578125 
L 59.40625 0 
L 67 0 
z
" id="CMSS17-109"/>
      <path d="M 14.90625 69 
L 7.5 69 
L 7.5 -0.203125 
L 15.09375 -0.203125 
L 15.09375 4.28125 
C 18.90625 0.59375 23.5 -1 27.59375 -1 
C 37.203125 -1 45 8.578125 45 21.125 
C 45 32.59375 39 43.0625 30.09375 43.0625 
C 23.796875 43.0625 18.203125 40.484375 14.90625 37.796875 
z
M 15.09375 31.96875 
C 17.296875 34.71875 20.40625 37 24.796875 37 
C 30.703125 37 37.40625 32.765625 37.40625 21.125 
C 37.40625 8.71875 29.40625 5.078125 23.90625 5.078125 
C 21.90625 5.078125 19.796875 5.5625 17.796875 7.25 
C 15.09375 9.609375 15.09375 11.078125 15.09375 12.453125 
z
" id="CMSS17-98"/>
      <path d="M 41.796875 43 
L 34 43 
C 25.5 20.21875 22.59375 10.96875 22.40625 5.984375 
L 22.296875 5.984375 
C 22 10.875 17.59375 22.8125 14.09375 31.359375 
L 9.40625 43 
L 1.296875 43 
L 19 0.203125 
C 17.90625 -2.78125 16.296875 -7.265625 15.796875 -8.265625 
C 13.59375 -13.828125 12.09375 -13.828125 10.5 -13.828125 
C 10.09375 -13.828125 6.90625 -13.828125 3.296875 -12.640625 
L 3.90625 -19.203125 
C 6.40625 -19.703125 8.90625 -20 10.703125 -20 
C 13.203125 -20 18.203125 -20 22.796875 -7.765625 
z
" id="CMSS17-121"/>
      <path d="M 38.296875 23.515625 
L 64.703125 23.515625 
C 66.09375 23.515625 67.796875 23.515625 67.796875 25.203125 
C 67.796875 27 66.203125 27 64.703125 27 
L 38.296875 27 
L 38.296875 53.328125 
C 38.296875 54.71875 38.296875 56.421875 36.59375 56.421875 
C 34.796875 56.421875 34.796875 54.828125 34.796875 53.328125 
L 34.796875 27 
L 8.296875 27 
C 6.90625 27 5.203125 27 5.203125 25.3125 
C 5.203125 23.515625 6.796875 23.515625 8.296875 23.515625 
L 34.796875 23.515625 
L 34.796875 -2.90625 
C 34.796875 -4.296875 34.796875 -6 36.5 -6 
C 38.296875 -6 38.296875 -4.40625 38.296875 -2.90625 
z
" id="CMSS17-43"/>
     </defs>
     <g transform="translate(138.230924 301.268)scale(0.1 -0.1)">
      <use transform="scale(0.996264)" xlink:href="#CMSS17-76"/>
      <use transform="translate(50.687105 0)scale(0.996264)" xlink:href="#CMSS17-111"/>
      <use transform="translate(100.133168 0)scale(0.996264)" xlink:href="#CMSS17-99"/>
      <use transform="translate(141.77199 0)scale(0.996264)" xlink:href="#CMSS17-97"/>
      <use transform="translate(186.69391 0)scale(0.996264)" xlink:href="#CMSS17-108"/>
      <use transform="translate(240.103746 0)scale(0.996264)" xlink:href="#CMSS17-97"/>
      <use transform="translate(285.025667 0)scale(0.996264)" xlink:href="#CMSS17-115"/>
      <use transform="translate(320.939209 0)scale(0.996264)" xlink:href="#CMSS17-115"/>
      <use transform="translate(356.852751 0)scale(0.996264)" xlink:href="#CMSS17-101"/>
      <use transform="translate(398.491573 0)scale(0.996264)" xlink:href="#CMSS17-109"/>
      <use transform="translate(472.720827 0)scale(0.996264)" xlink:href="#CMSS17-98"/>
      <use transform="translate(520.92577 0)scale(0.996264)" xlink:href="#CMSS17-108"/>
      <use transform="translate(543.106493 0)scale(0.996264)" xlink:href="#CMSS17-121"/>
      <use transform="translate(617.335748 0)scale(0.996264)" xlink:href="#CMSS17-43"/>
      <use transform="translate(721.432795 0)scale(0.996264)" xlink:href="#CMSS17-115"/>
      <use transform="translate(757.346337 0)scale(0.996264)" xlink:href="#CMSS17-111"/>
      <use transform="translate(804.189961 0)scale(0.996264)" xlink:href="#CMSS17-108"/>
      <use transform="translate(826.370684 0)scale(0.996264)" xlink:href="#CMSS17-118"/>
      <use transform="translate(869.370826 0)scale(0.996264)" xlink:href="#CMSS17-101"/>
     </g>
    </g>
    <g id="patch_10">
     <path d="M 255.28377 301.268 
L 275.28377 301.268 
L 275.28377 294.268 
L 255.28377 294.268 
z
" style="fill:#008042;"/>
    </g>
    <g id="text_8">
     <!-- Coarse assembly -->
     <g transform="translate(283.28377 301.268)scale(0.1 -0.1)">
      <use transform="scale(0.996264)" xlink:href="#CMSS17-67"/>
      <use transform="translate(59.855772 0)scale(0.996264)" xlink:href="#CMSS17-111"/>
      <use transform="translate(106.699395 0)scale(0.996264)" xlink:href="#CMSS17-97"/>
      <use transform="translate(149.018862 0)scale(0.996264)" xlink:href="#CMSS17-114"/>
      <use transform="translate(180.928634 0)scale(0.996264)" xlink:href="#CMSS17-115"/>
      <use transform="translate(216.842176 0)scale(0.996264)" xlink:href="#CMSS17-101"/>
      <use transform="translate(289.710111 0)scale(0.996264)" xlink:href="#CMSS17-97"/>
      <use transform="translate(334.632032 0)scale(0.996264)" xlink:href="#CMSS17-115"/>
      <use transform="translate(370.545574 0)scale(0.996264)" xlink:href="#CMSS17-115"/>
      <use transform="translate(406.459116 0)scale(0.996264)" xlink:href="#CMSS17-101"/>
      <use transform="translate(448.097938 0)scale(0.996264)" xlink:href="#CMSS17-109"/>
      <use transform="translate(522.327192 0)scale(0.996264)" xlink:href="#CMSS17-98"/>
      <use transform="translate(570.532135 0)scale(0.996264)" xlink:href="#CMSS17-108"/>
      <use transform="translate(592.712858 0)scale(0.996264)" xlink:href="#CMSS17-121"/>
     </g>
    </g>
    <g id="patch_11">
     <path d="M 371.002131 301.268 
L 391.002131 301.268 
L 391.002131 294.268 
L 371.002131 294.268 
z
" style="fill:#620080;"/>
    </g>
    <g id="text_9">
     <!-- Remainder -->
     <defs>
      <path d="M 39.40625 32.953125 
L 39.59375 33.046875 
C 55.203125 38.421875 55.296875 49.171875 55.296875 51.0625 
C 55.296875 60.515625 45.703125 69.578125 31.296875 69.578125 
L 8.90625 69.578125 
L 8.90625 0.5 
L 17.09375 0.5 
L 17.09375 32 
L 31.796875 32 
L 49.5 0.5 
L 57.90625 0.5 
z
M 17.09375 38.078125 
L 17.09375 64 
L 30.203125 64 
C 42.90625 64 47.40625 56.828125 47.40625 51.046875 
C 47.40625 45.65625 43.40625 38.078125 30.203125 38.078125 
z
" id="CMSS17-82"/>
      <path d="M 15.296875 65.359375 
L 6.90625 65.359375 
L 6.90625 57 
L 15.296875 57 
z
M 14.796875 42.796875 
L 7.40625 42.796875 
L 7.40625 0 
L 14.796875 0 
z
" id="CMSS17-105"/>
      <path d="M 40.90625 29.328125 
C 40.90625 35.671875 39.40625 44 28.09375 44 
C 21.703125 44 17.5 40.71875 14.703125 37.328125 
L 14.703125 43.09375 
L 7.40625 43.09375 
L 7.40625 0 
L 15 0 
L 15 24.359375 
C 15 30.6875 17.40625 37.9375 24.203125 37.9375 
C 33 37.9375 33.296875 32 33.296875 28.578125 
L 33.296875 0 
L 40.90625 0 
z
" id="CMSS17-110"/>
      <path d="M 40.796875 69 
L 33.40625 69 
L 33.40625 38.09375 
C 30.296875 40.671875 25.203125 43.0625 19.59375 43.0625 
C 10.5 43.0625 3.296875 33.296875 3.296875 21.046875 
C 3.296875 8.78125 10.40625 -1 19.296875 -1 
C 26.203125 -1 30.796875 2.6875 33.203125 4.78125 
L 33.203125 -0.203125 
L 40.796875 -0.203125 
z
M 33.203125 13.0625 
C 33.203125 11.671875 33.203125 10.203125 30.09375 7.53125 
C 28.09375 5.859375 25.703125 5.078125 23.40625 5.078125 
C 18 5.078125 10.90625 9 10.90625 20.9375 
C 10.90625 33.34375 18.90625 37 24.40625 37 
C 28.09375 37 31.09375 35.21875 33.203125 32.265625 
z
" id="CMSS17-100"/>
     </defs>
     <g transform="translate(399.002131 301.268)scale(0.1 -0.1)">
      <use transform="scale(0.996264)" xlink:href="#CMSS17-82"/>
      <use transform="translate(60.416155 0)scale(0.996264)" xlink:href="#CMSS17-101"/>
      <use transform="translate(102.054977 0)scale(0.996264)" xlink:href="#CMSS17-109"/>
      <use transform="translate(176.284231 0)scale(0.996264)" xlink:href="#CMSS17-97"/>
      <use transform="translate(221.206152 0)scale(0.996264)" xlink:href="#CMSS17-105"/>
      <use transform="translate(243.386875 0)scale(0.996264)" xlink:href="#CMSS17-110"/>
      <use transform="translate(291.591818 0)scale(0.996264)" xlink:href="#CMSS17-100"/>
      <use transform="translate(339.796761 0)scale(0.996264)" xlink:href="#CMSS17-101"/>
      <use transform="translate(381.435583 0)scale(0.996264)" xlink:href="#CMSS17-114"/>
     </g>
    </g>
   </g>
  </g>
  <g id="axes_2">
   <g id="matplotlib.axis_3"/>
   <g id="matplotlib.axis_4"/>
   <g id="patch_12">
    <path d="M 221.604196 71.168998 
C 221.604196 66.126307 220.518849 61.142187 218.422074 56.556091 
C 216.3253 51.969996 213.265806 47.88846 209.451966 44.589467 
C 205.638127 41.290473 201.158536 38.850656 196.318288 37.436185 
C 191.478039 36.021714 186.389571 35.665448 181.399444 36.39165 
L 186.460514 71.168998 
L 221.604196 71.168998 
z
" style="fill:#ff007a;"/>
   </g>
   <g id="patch_13">
    <path d="M 181.399444 36.39165 
C 173.345948 37.563657 165.944351 41.497499 160.467153 47.516861 
C 154.989956 53.536222 151.770124 61.275178 151.361219 69.403228 
L 186.460514 71.168998 
L 181.399444 36.39165 
z
" style="fill:#8280ff;"/>
   </g>
   <g id="patch_14">
    <path d="M 151.361219 69.403228 
C 151.027121 76.044304 152.584604 82.645788 155.851889 88.437193 
C 159.119174 94.228597 163.964003 98.975489 169.820914 102.123839 
C 175.677826 105.272188 182.309735 106.694552 188.942605 106.22492 
C 195.575475 105.755288 201.94081 103.41267 207.295685 99.470484 
L 186.460514 71.168998 
L 151.361219 69.403228 
z
" style="fill:#008042;"/>
   </g>
   <g id="patch_15">
    <path d="M 207.295685 99.470484 
C 211.731693 96.204754 215.338374 91.941353 217.823733 87.025445 
C 220.309091 82.109536 221.604196 76.677461 221.604196 71.168998 
L 186.460514 71.168998 
L 207.295685 99.470484 
z
" style="fill:#620080;"/>
   </g>
   <g id="patch_16">
    <path clip-path="url(#p58396394da)" d="M 186.460514 97.52676 
C 193.450674 97.52676 200.155476 94.74954 205.098266 89.806751 
C 210.041055 84.863961 212.818275 78.159159 212.818275 71.168998 
C 212.818275 64.178838 210.041055 57.474036 205.098266 52.531246 
C 200.155476 47.588457 193.450674 44.811237 186.460514 44.811237 
C 179.470353 44.811237 172.765551 47.588457 167.822762 52.531246 
C 162.879972 57.474036 160.102752 64.178838 160.102752 71.168998 
C 160.102752 78.159159 162.879972 84.863961 167.822762 89.806751 
C 172.765551 94.74954 179.470353 97.52676 186.460514 97.52676 
z
" style="fill:#ffffff;stroke:#ffffff;stroke-linejoin:miter;stroke-width:0.5;"/>
   </g>
   <g id="text_10">
    <!-- $27.30\% $ -->
    <g transform="translate(199.702342 40.435244)scale(0.1 -0.1)">
     <use transform="scale(0.996264)" xlink:href="#CMR17-50"/>
     <use transform="translate(45.690477 0)scale(0.996264)" xlink:href="#CMR17-55"/>
     <use transform="translate(91.380954 0)scale(0.996264)" xlink:href="#CMMI12-58"/>
     <use transform="translate(118.478131 0)scale(0.996264)" xlink:href="#CMR17-51"/>
     <use transform="translate(164.168608 0)scale(0.996264)" xlink:href="#CMR17-48"/>
     <use transform="translate(209.859086 0)scale(0.996264)" xlink:href="#CMR17-37"/>
    </g>
   </g>
   <g id="text_11">
    <!-- $21.90\% $ -->
    <g transform="translate(138.471326 44.094486)scale(0.1 -0.1)">
     <use transform="scale(0.996264)" xlink:href="#CMR17-50"/>
     <use transform="translate(45.690477 0)scale(0.996264)" xlink:href="#CMR17-49"/>
     <use transform="translate(91.380954 0)scale(0.996264)" xlink:href="#CMMI12-58"/>
     <use transform="translate(118.478131 0)scale(0.996264)" xlink:href="#CMR17-57"/>
     <use transform="translate(164.168608 0)scale(0.996264)" xlink:href="#CMR17-48"/>
     <use transform="translate(209.859086 0)scale(0.996264)" xlink:href="#CMR17-37"/>
    </g>
   </g>
   <g id="text_12">
    <!-- $35.90\% $ -->
    <defs>
     <path d="M 11.40625 57.6875 
C 12.40625 57.28125 16.5 56 20.703125 56 
C 30 56 35.09375 61.109375 38 64.0625 
C 38 64.953125 38 65.5 37.40625 65.5 
C 37.296875 65.5 37.09375 65.5 36.296875 65.046875 
C 32.796875 63.40625 28.703125 62.078125 23.703125 62.078125 
C 20.703125 62.078125 16.203125 62.484375 11.296875 64.671875 
C 10.203125 65.171875 10 65.171875 9.90625 65.171875 
C 9.40625 65.171875 9.296875 65.0625 9.296875 63.078125 
L 9.296875 34.421875 
C 9.296875 32.640625 9.296875 32.140625 10.296875 32.140625 
C 10.796875 32.140625 11 32.34375 11.5 33.03125 
C 14.703125 37.515625 19.09375 39.40625 24.09375 39.40625 
C 27.59375 39.40625 35.09375 37.21875 35.09375 20.140625 
C 35.09375 16.953125 35.09375 11.171875 32.09375 6.578125 
C 29.59375 2.484375 25.703125 0.390625 21.40625 0.390625 
C 14.796875 0.390625 8.09375 5 6.296875 12.71875 
C 6.703125 12.609375 7.5 12.421875 7.90625 12.421875 
C 9.203125 12.421875 11.703125 13.125 11.703125 16.21875 
C 11.703125 18.90625 9.796875 20 7.90625 20 
C 5.59375 20 4.09375 18.59375 4.09375 15.796875 
C 4.09375 7.09375 11 -2 21.59375 -2 
C 31.90625 -2 41.703125 6.875 41.703125 19.75 
C 41.703125 31.71875 33.90625 41 24.203125 41 
C 19.09375 41 14.796875 39.109375 11.40625 35.53125 
z
" id="CMR17-53"/>
    </defs>
    <g transform="translate(150.163527 112.353209)scale(0.1 -0.1)">
     <use transform="scale(0.996264)" xlink:href="#CMR17-51"/>
     <use transform="translate(45.690477 0)scale(0.996264)" xlink:href="#CMR17-53"/>
     <use transform="translate(91.380954 0)scale(0.996264)" xlink:href="#CMMI12-58"/>
     <use transform="translate(118.478131 0)scale(0.996264)" xlink:href="#CMR17-57"/>
     <use transform="translate(164.168608 0)scale(0.996264)" xlink:href="#CMR17-48"/>
     <use transform="translate(209.859086 0)scale(0.996264)" xlink:href="#CMR17-37"/>
    </g>
   </g>
   <g id="text_13">
    <!-- $14.90\% $ -->
    <g transform="translate(210.16705 93.480216)scale(0.1 -0.1)">
     <use transform="scale(0.996264)" xlink:href="#CMR17-49"/>
     <use transform="translate(45.690477 0)scale(0.996264)" xlink:href="#CMR17-52"/>
     <use transform="translate(91.380954 0)scale(0.996264)" xlink:href="#CMMI12-58"/>
     <use transform="translate(118.478131 0)scale(0.996264)" xlink:href="#CMR17-57"/>
     <use transform="translate(164.168608 0)scale(0.996264)" xlink:href="#CMR17-48"/>
     <use transform="translate(209.859086 0)scale(0.996264)" xlink:href="#CMR17-37"/>
    </g>
   </g>
   <g id="text_14">
    <!-- 216 -->
    <defs>
     <path d="M 39 64.078125 
C 34.796875 65.78125 31.796875 66.078125 29 66.078125 
C 16 66.078125 3.90625 52.625 3.90625 31.34375 
C 3.90625 4.140625 15.40625 -2 23.59375 -2 
C 28.09375 -2 32.59375 -0.609375 36.90625 4.375 
C 41.296875 9.640625 43 14.03125 43 21.703125 
C 43 34.046875 36.90625 45 27.796875 45 
C 21.203125 45 15.5 41.515625 12 37.125 
C 13 50.90625 19.59375 60 29.09375 60 
C 31.703125 60 35.09375 59.625 39 57.96875 
z
M 12.09375 21.390625 
C 12.09375 22.1875 12.09375 22.6875 12.203125 24.1875 
C 12.203125 31.953125 16.703125 38.921875 24 38.921875 
C 28.703125 38.921875 31.09375 36.4375 32.90625 33.359375 
C 35 29.46875 35.09375 25.78125 35.09375 21.6875 
C 35.09375 17.8125 35.09375 13.921875 32.796875 9.953125 
C 30.90625 6.859375 28.40625 4.171875 23.59375 4.171875 
C 14.09375 4.171875 12.5 17.40625 12.09375 21.390625 
" id="CMSS17-54"/>
    </defs>
    <g transform="translate(178.988511 68.53997)scale(0.1 -0.1)">
     <use transform="scale(0.996264)" xlink:href="#CMSS17-50"/>
     <use transform="translate(46.843624 0)scale(0.996264)" xlink:href="#CMSS17-49"/>
     <use transform="translate(93.687247 0)scale(0.996264)" xlink:href="#CMSS17-54"/>
    </g>
    <!-- cores -->
    <g transform="translate(176.068917 78.779347)scale(0.1 -0.1)">
     <use transform="scale(0.996264)" xlink:href="#CMSS17-99"/>
     <use transform="translate(41.638822 0)scale(0.996264)" xlink:href="#CMSS17-111"/>
     <use transform="translate(85.879992 0)scale(0.996264)" xlink:href="#CMSS17-114"/>
     <use transform="translate(117.789764 0)scale(0.996264)" xlink:href="#CMSS17-101"/>
     <use transform="translate(159.428586 0)scale(0.996264)" xlink:href="#CMSS17-115"/>
    </g>
   </g>
   <g id="legend_2">
    <g id="patch_17">
     <path d="M 9.2 307.205178 
L 445.073056 307.205178 
Q 447.073056 307.205178 447.073056 305.205178 
L 447.073056 292.268 
Q 447.073056 290.268 445.073056 290.268 
L 9.2 290.268 
Q 7.2 290.268 7.2 292.268 
L 7.2 305.205178 
Q 7.2 307.205178 9.2 307.205178 
z
" style="fill:#e5e5e5;opacity:0.8;stroke:#cccccc;stroke-linejoin:miter;stroke-width:0.5;"/>
    </g>
    <g id="patch_18">
     <path d="M 11.2 301.268 
L 31.2 301.268 
L 31.2 294.268 
L 11.2 294.268 
z
" style="fill:#ff007a;"/>
    </g>
    <g id="text_15">
     <!-- Coarse solve -->
     <g transform="translate(39.2 301.268)scale(0.1 -0.1)">
      <use transform="scale(0.996264)" xlink:href="#CMSS17-67"/>
      <use transform="translate(59.855772 0)scale(0.996264)" xlink:href="#CMSS17-111"/>
      <use transform="translate(106.699395 0)scale(0.996264)" xlink:href="#CMSS17-97"/>
      <use transform="translate(149.018862 0)scale(0.996264)" xlink:href="#CMSS17-114"/>
      <use transform="translate(180.928634 0)scale(0.996264)" xlink:href="#CMSS17-115"/>
      <use transform="translate(216.842176 0)scale(0.996264)" xlink:href="#CMSS17-101"/>
      <use transform="translate(289.710111 0)scale(0.996264)" xlink:href="#CMSS17-115"/>
      <use transform="translate(325.623653 0)scale(0.996264)" xlink:href="#CMSS17-111"/>
      <use transform="translate(372.467277 0)scale(0.996264)" xlink:href="#CMSS17-108"/>
      <use transform="translate(394.648 0)scale(0.996264)" xlink:href="#CMSS17-118"/>
      <use transform="translate(437.648141 0)scale(0.996264)" xlink:href="#CMSS17-101"/>
     </g>
    </g>
    <g id="patch_19">
     <path d="M 110.230924 301.268 
L 130.230924 301.268 
L 130.230924 294.268 
L 110.230924 294.268 
z
" style="fill:#8280ff;"/>
    </g>
    <g id="text_16">
     <!-- Local assembly + solve -->
     <g transform="translate(138.230924 301.268)scale(0.1 -0.1)">
      <use transform="scale(0.996264)" xlink:href="#CMSS17-76"/>
      <use transform="translate(50.687105 0)scale(0.996264)" xlink:href="#CMSS17-111"/>
      <use transform="translate(100.133168 0)scale(0.996264)" xlink:href="#CMSS17-99"/>
      <use transform="translate(141.77199 0)scale(0.996264)" xlink:href="#CMSS17-97"/>
      <use transform="translate(186.69391 0)scale(0.996264)" xlink:href="#CMSS17-108"/>
      <use transform="translate(240.103746 0)scale(0.996264)" xlink:href="#CMSS17-97"/>
      <use transform="translate(285.025667 0)scale(0.996264)" xlink:href="#CMSS17-115"/>
      <use transform="translate(320.939209 0)scale(0.996264)" xlink:href="#CMSS17-115"/>
      <use transform="translate(356.852751 0)scale(0.996264)" xlink:href="#CMSS17-101"/>
      <use transform="translate(398.491573 0)scale(0.996264)" xlink:href="#CMSS17-109"/>
      <use transform="translate(472.720827 0)scale(0.996264)" xlink:href="#CMSS17-98"/>
      <use transform="translate(520.92577 0)scale(0.996264)" xlink:href="#CMSS17-108"/>
      <use transform="translate(543.106493 0)scale(0.996264)" xlink:href="#CMSS17-121"/>
      <use transform="translate(617.335748 0)scale(0.996264)" xlink:href="#CMSS17-43"/>
      <use transform="translate(721.432795 0)scale(0.996264)" xlink:href="#CMSS17-115"/>
      <use transform="translate(757.346337 0)scale(0.996264)" xlink:href="#CMSS17-111"/>
      <use transform="translate(804.189961 0)scale(0.996264)" xlink:href="#CMSS17-108"/>
      <use transform="translate(826.370684 0)scale(0.996264)" xlink:href="#CMSS17-118"/>
      <use transform="translate(869.370826 0)scale(0.996264)" xlink:href="#CMSS17-101"/>
     </g>
    </g>
    <g id="patch_20">
     <path d="M 255.28377 301.268 
L 275.28377 301.268 
L 275.28377 294.268 
L 255.28377 294.268 
z
" style="fill:#008042;"/>
    </g>
    <g id="text_17">
     <!-- Coarse assembly -->
     <g transform="translate(283.28377 301.268)scale(0.1 -0.1)">
      <use transform="scale(0.996264)" xlink:href="#CMSS17-67"/>
      <use transform="translate(59.855772 0)scale(0.996264)" xlink:href="#CMSS17-111"/>
      <use transform="translate(106.699395 0)scale(0.996264)" xlink:href="#CMSS17-97"/>
      <use transform="translate(149.018862 0)scale(0.996264)" xlink:href="#CMSS17-114"/>
      <use transform="translate(180.928634 0)scale(0.996264)" xlink:href="#CMSS17-115"/>
      <use transform="translate(216.842176 0)scale(0.996264)" xlink:href="#CMSS17-101"/>
      <use transform="translate(289.710111 0)scale(0.996264)" xlink:href="#CMSS17-97"/>
      <use transform="translate(334.632032 0)scale(0.996264)" xlink:href="#CMSS17-115"/>
      <use transform="translate(370.545574 0)scale(0.996264)" xlink:href="#CMSS17-115"/>
      <use transform="translate(406.459116 0)scale(0.996264)" xlink:href="#CMSS17-101"/>
      <use transform="translate(448.097938 0)scale(0.996264)" xlink:href="#CMSS17-109"/>
      <use transform="translate(522.327192 0)scale(0.996264)" xlink:href="#CMSS17-98"/>
      <use transform="translate(570.532135 0)scale(0.996264)" xlink:href="#CMSS17-108"/>
      <use transform="translate(592.712858 0)scale(0.996264)" xlink:href="#CMSS17-121"/>
     </g>
    </g>
    <g id="patch_21">
     <path d="M 371.002131 301.268 
L 391.002131 301.268 
L 391.002131 294.268 
L 371.002131 294.268 
z
" style="fill:#620080;"/>
    </g>
    <g id="text_18">
     <!-- Remainder -->
     <g transform="translate(399.002131 301.268)scale(0.1 -0.1)">
      <use transform="scale(0.996264)" xlink:href="#CMSS17-82"/>
      <use transform="translate(60.416155 0)scale(0.996264)" xlink:href="#CMSS17-101"/>
      <use transform="translate(102.054977 0)scale(0.996264)" xlink:href="#CMSS17-109"/>
      <use transform="translate(176.284231 0)scale(0.996264)" xlink:href="#CMSS17-97"/>
      <use transform="translate(221.206152 0)scale(0.996264)" xlink:href="#CMSS17-105"/>
      <use transform="translate(243.386875 0)scale(0.996264)" xlink:href="#CMSS17-110"/>
      <use transform="translate(291.591818 0)scale(0.996264)" xlink:href="#CMSS17-100"/>
      <use transform="translate(339.796761 0)scale(0.996264)" xlink:href="#CMSS17-101"/>
      <use transform="translate(381.435583 0)scale(0.996264)" xlink:href="#CMSS17-114"/>
     </g>
    </g>
   </g>
  </g>
  <g id="axes_3">
   <g id="matplotlib.axis_5"/>
   <g id="matplotlib.axis_6"/>
   <g id="patch_22">
    <path d="M 314.765935 70.969955 
C 314.765935 66.359432 313.857763 61.79374 312.093392 57.534172 
C 310.329021 53.274604 307.742764 49.403998 304.482632 46.143865 
L 279.656543 70.969955 
L 314.765935 70.969955 
z
" style="fill:#ff007a;"/>
   </g>
   <g id="patch_23">
    <path d="M 304.482632 46.143865 
C 300.972971 42.634204 296.758635 39.90835 292.118404 38.146618 
C 287.478173 36.384886 282.51667 35.626999 277.562099 35.92309 
C 272.607528 36.219181 267.7716 37.562575 263.374212 39.864406 
C 258.976824 42.166237 255.117125 45.374606 252.050434 49.277278 
L 279.656543 70.969955 
L 304.482632 46.143865 
z
" style="fill:#8280ff;"/>
   </g>
   <g id="patch_24">
    <path d="M 252.050434 49.277278 
C 246.839796 55.908338 244.18886 64.199826 244.586126 72.623832 
C 244.983391 81.047838 248.40286 89.053054 254.21441 95.164321 
C 260.02596 101.275588 267.849256 105.092955 276.242661 105.912978 
C 284.636067 106.733001 293.050278 104.502014 299.934768 99.631132 
L 279.656543 70.969955 
L 252.050434 49.277278 
z
" style="fill:#008042;"/>
   </g>
   <g id="patch_25">
    <path d="M 299.934768 99.631132 
C 304.518444 96.38811 308.25797 92.092338 310.838473 87.105527 
C 313.418975 82.118716 314.765935 76.584874 314.765935 70.969958 
L 279.656543 70.969955 
L 299.934768 99.631132 
z
" style="fill:#620080;"/>
   </g>
   <g id="patch_26">
    <path clip-path="url(#p7d3c8ed1e1)" d="M 279.656543 97.301999 
C 286.639882 97.301999 293.338143 94.527489 298.27611 89.589522 
C 303.214077 84.651555 305.988587 77.953295 305.988587 70.969955 
C 305.988587 63.986615 303.214077 57.288355 298.27611 52.350388 
C 293.338143 47.412421 286.639882 44.637911 279.656543 44.637911 
C 272.673203 44.637911 265.974942 47.412421 261.036975 52.350388 
C 256.099008 57.288355 253.324498 63.986615 253.324498 70.969955 
C 253.324498 77.953295 256.099008 84.651555 261.036975 89.589522 
C 265.974942 94.527489 272.673203 97.301999 279.656543 97.301999 
z
" style="fill:#ffffff;stroke:#ffffff;stroke-linejoin:miter;stroke-width:0.5;"/>
   </g>
   <g id="text_19">
    <!-- $12.50\% $ -->
    <g transform="translate(304.705117 56.665886)scale(0.1 -0.1)">
     <use transform="scale(0.996264)" xlink:href="#CMR17-49"/>
     <use transform="translate(45.690477 0)scale(0.996264)" xlink:href="#CMR17-50"/>
     <use transform="translate(91.380954 0)scale(0.996264)" xlink:href="#CMMI12-58"/>
     <use transform="translate(118.478131 0)scale(0.996264)" xlink:href="#CMR17-53"/>
     <use transform="translate(164.168608 0)scale(0.996264)" xlink:href="#CMR17-48"/>
     <use transform="translate(209.859086 0)scale(0.996264)" xlink:href="#CMR17-37"/>
    </g>
   </g>
   <g id="text_20">
    <!-- $26.90\% $ -->
    <g transform="translate(261.541 29.652034)scale(0.1 -0.1)">
     <use transform="scale(0.996264)" xlink:href="#CMR17-50"/>
     <use transform="translate(45.690477 0)scale(0.996264)" xlink:href="#CMR17-54"/>
     <use transform="translate(91.380954 0)scale(0.996264)" xlink:href="#CMMI12-58"/>
     <use transform="translate(118.478131 0)scale(0.996264)" xlink:href="#CMR17-57"/>
     <use transform="translate(164.168608 0)scale(0.996264)" xlink:href="#CMR17-48"/>
     <use transform="translate(209.859086 0)scale(0.996264)" xlink:href="#CMR17-37"/>
    </g>
   </g>
   <g id="text_21">
    <!-- $45.40\% $ -->
    <g transform="translate(232.356389 103.703572)scale(0.1 -0.1)">
     <use transform="scale(0.996264)" xlink:href="#CMR17-52"/>
     <use transform="translate(45.690477 0)scale(0.996264)" xlink:href="#CMR17-53"/>
     <use transform="translate(91.380954 0)scale(0.996264)" xlink:href="#CMMI12-58"/>
     <use transform="translate(118.478131 0)scale(0.996264)" xlink:href="#CMR17-52"/>
     <use transform="translate(164.168608 0)scale(0.996264)" xlink:href="#CMR17-48"/>
     <use transform="translate(209.859086 0)scale(0.996264)" xlink:href="#CMR17-37"/>
    </g>
   </g>
   <g id="text_22">
    <!-- $15.20\% $ -->
    <g transform="translate(303.136468 93.63008)scale(0.1 -0.1)">
     <use transform="scale(0.996264)" xlink:href="#CMR17-49"/>
     <use transform="translate(45.690477 0)scale(0.996264)" xlink:href="#CMR17-53"/>
     <use transform="translate(91.380954 0)scale(0.996264)" xlink:href="#CMMI12-58"/>
     <use transform="translate(118.478131 0)scale(0.996264)" xlink:href="#CMR17-50"/>
     <use transform="translate(164.168608 0)scale(0.996264)" xlink:href="#CMR17-48"/>
     <use transform="translate(209.859086 0)scale(0.996264)" xlink:href="#CMR17-37"/>
    </g>
   </g>
   <g id="text_23">
    <!-- 512 -->
    <g transform="translate(272.18454 68.340927)scale(0.1 -0.1)">
     <use transform="scale(0.996264)" xlink:href="#CMSS17-53"/>
     <use transform="translate(46.843624 0)scale(0.996264)" xlink:href="#CMSS17-49"/>
     <use transform="translate(93.687247 0)scale(0.996264)" xlink:href="#CMSS17-50"/>
    </g>
    <!-- cores -->
    <g transform="translate(269.264946 78.580303)scale(0.1 -0.1)">
     <use transform="scale(0.996264)" xlink:href="#CMSS17-99"/>
     <use transform="translate(41.638822 0)scale(0.996264)" xlink:href="#CMSS17-111"/>
     <use transform="translate(85.879992 0)scale(0.996264)" xlink:href="#CMSS17-114"/>
     <use transform="translate(117.789764 0)scale(0.996264)" xlink:href="#CMSS17-101"/>
     <use transform="translate(159.428586 0)scale(0.996264)" xlink:href="#CMSS17-115"/>
    </g>
   </g>
  </g>
  <g id="axes_4">
   <g id="matplotlib.axis_7"/>
   <g id="matplotlib.axis_8"/>
   <g id="patch_27">
    <path d="M 407.927673 71.123152 
C 407.927673 65.616054 406.63289 60.185327 404.148147 55.270637 
C 401.663405 50.355947 398.057618 46.093603 393.622709 42.828683 
C 389.1878 39.563763 384.046771 37.386819 378.615836 36.474094 
C 373.184901 35.561369 367.614687 35.938178 362.356155 37.574016 
L 372.792704 71.123152 
L 407.927673 71.123152 
z
" style="fill:#ff007a;"/>
   </g>
   <g id="patch_28">
    <path d="M 362.356155 37.574016 
C 354.948154 39.878515 348.508024 44.573018 344.047037 50.920362 
C 339.586049 57.267706 337.350599 64.917307 337.691712 72.667973 
L 372.792704 71.123152 
L 362.356155 37.574016 
z
" style="fill:#8280ff;"/>
   </g>
   <g id="patch_29">
    <path d="M 337.691712 72.667973 
C 337.97741 79.159517 340.058394 85.446309 343.702269 90.826267 
C 347.346145 96.206224 352.412021 100.471331 358.334163 103.14528 
C 364.256305 105.819229 370.805734 106.798631 377.251037 105.974111 
C 383.69634 105.149591 389.788312 102.553029 394.846625 98.474398 
L 372.792704 71.123152 
L 337.691712 72.667973 
z
" style="fill:#008042;"/>
   </g>
   <g id="patch_30">
    <path d="M 394.846625 98.474398 
C 398.930599 95.181398 402.225649 91.015124 404.489156 86.282341 
C 406.752663 81.549559 407.927674 76.369352 407.927673 71.123145 
L 372.792704 71.123152 
L 394.846625 98.474398 
z
" style="fill:#620080;"/>
   </g>
   <g id="patch_31">
    <path clip-path="url(#p05c4334089)" d="M 372.792704 97.474379 
C 379.781131 97.474379 386.484271 94.697848 391.425835 89.756283 
C 396.367399 84.814719 399.143931 78.111579 399.143931 71.123152 
C 399.143931 64.134725 396.367399 57.431585 391.425835 52.49002 
C 386.484271 47.548456 379.781131 44.771925 372.792704 44.771925 
C 365.804276 44.771925 359.101136 47.548456 354.159572 52.49002 
C 349.218008 57.431585 346.441476 64.134725 346.441476 71.123152 
C 346.441476 78.111579 349.218008 84.814719 354.159572 89.756283 
C 359.101136 94.697848 365.804276 97.474379 372.792704 97.474379 
z
" style="fill:#ffffff;stroke:#ffffff;stroke-linejoin:miter;stroke-width:0.5;"/>
   </g>
   <g id="text_24">
    <!-- $29.80\% $ -->
    <g transform="translate(383.332723 38.245726)scale(0.1 -0.1)">
     <use transform="scale(0.996264)" xlink:href="#CMR17-50"/>
     <use transform="translate(45.690477 0)scale(0.996264)" xlink:href="#CMR17-57"/>
     <use transform="translate(91.380954 0)scale(0.996264)" xlink:href="#CMMI12-58"/>
     <use transform="translate(118.478131 0)scale(0.996264)" xlink:href="#CMR17-56"/>
     <use transform="translate(164.168608 0)scale(0.996264)" xlink:href="#CMR17-48"/>
     <use transform="translate(209.859086 0)scale(0.996264)" xlink:href="#CMR17-37"/>
    </g>
   </g>
   <g id="text_25">
    <!-- $20.90\% $ -->
    <g transform="translate(321.363133 48.360324)scale(0.1 -0.1)">
     <use transform="scale(0.996264)" xlink:href="#CMR17-50"/>
     <use transform="translate(45.690477 0)scale(0.996264)" xlink:href="#CMR17-48"/>
     <use transform="translate(91.380954 0)scale(0.996264)" xlink:href="#CMMI12-58"/>
     <use transform="translate(118.478131 0)scale(0.996264)" xlink:href="#CMR17-57"/>
     <use transform="translate(164.168608 0)scale(0.996264)" xlink:href="#CMR17-48"/>
     <use transform="translate(209.859086 0)scale(0.996264)" xlink:href="#CMR17-37"/>
    </g>
   </g>
   <g id="text_26">
    <!-- $35.10\% $ -->
    <g transform="translate(339.222041 113.641472)scale(0.1 -0.1)">
     <use transform="scale(0.996264)" xlink:href="#CMR17-51"/>
     <use transform="translate(45.690477 0)scale(0.996264)" xlink:href="#CMR17-53"/>
     <use transform="translate(91.380954 0)scale(0.996264)" xlink:href="#CMMI12-58"/>
     <use transform="translate(118.478131 0)scale(0.996264)" xlink:href="#CMR17-49"/>
     <use transform="translate(164.168608 0)scale(0.996264)" xlink:href="#CMR17-48"/>
     <use transform="translate(209.859086 0)scale(0.996264)" xlink:href="#CMR17-37"/>
    </g>
   </g>
   <g id="text_27">
    <!-- $14.20\% $ -->
    <g transform="translate(396.915781 92.562799)scale(0.1 -0.1)">
     <use transform="scale(0.996264)" xlink:href="#CMR17-49"/>
     <use transform="translate(45.690477 0)scale(0.996264)" xlink:href="#CMR17-52"/>
     <use transform="translate(91.380954 0)scale(0.996264)" xlink:href="#CMMI12-58"/>
     <use transform="translate(118.478131 0)scale(0.996264)" xlink:href="#CMR17-50"/>
     <use transform="translate(164.168608 0)scale(0.996264)" xlink:href="#CMR17-48"/>
     <use transform="translate(209.859086 0)scale(0.996264)" xlink:href="#CMR17-37"/>
    </g>
   </g>
   <g id="text_28">
    <!-- 729 -->
    <defs>
     <path d="M 21.703125 59 
C 22.90625 59 24.09375 59 25.296875 59 
L 36.796875 59 
C 22.5 42.359375 14.296875 21.328125 14.296875 -0.5 
L 22.296875 -0.5 
C 22.296875 20.671875 29.296875 42.125 43 59.296875 
L 43 65.765625 
L 3.90625 65.765625 
L 3.90625 59 
z
" id="CMSS17-55"/>
     <path d="M 6.796875 2.71875 
C 9.59375 0.328125 13.203125 -2 19.296875 -2 
C 31.40625 -2 43 11.265625 43 32.734375 
C 43 61.4375 30.5 66.078125 23.796875 66.078125 
C 17.09375 66.078125 12.796875 63.140625 9.09375 58.453125 
C 4.703125 53.078125 3.90625 48.28125 3.90625 42.703125 
C 3.90625 36.046875 5.09375 31.953125 7.90625 27.265625 
C 11.703125 21.203125 15.203125 19.921875 19.09375 19.921875 
C 25 19.921875 30.90625 22.796875 34.90625 27.75 
C 34.203125 14.09375 28.09375 4.171875 19.296875 4.171875 
C 15.703125 4.171875 12.796875 5.296875 9.90625 8.0625 
z
M 34.59375 42.90625 
C 34.703125 42.234375 34.703125 40.96875 34.703125 40.5625 
C 34.703125 32.40625 29.90625 26 22.90625 26 
C 18.296875 26 15.90625 28.328125 14.09375 31.34375 
C 11.90625 35.140625 11.796875 38.828125 11.796875 42.703125 
C 11.796875 46.5 11.796875 50.6875 14.59375 54.859375 
C 16.703125 57.859375 19.296875 60 23.796875 60 
C 33 60 34.5 46.875 34.59375 42.90625 
" id="CMSS17-57"/>
    </defs>
    <g transform="translate(365.320701 68.494124)scale(0.1 -0.1)">
     <use transform="scale(0.996264)" xlink:href="#CMSS17-55"/>
     <use transform="translate(46.843624 0)scale(0.996264)" xlink:href="#CMSS17-50"/>
     <use transform="translate(93.687247 0)scale(0.996264)" xlink:href="#CMSS17-57"/>
    </g>
    <!-- cores -->
    <g transform="translate(362.401107 78.7335)scale(0.1 -0.1)">
     <use transform="scale(0.996264)" xlink:href="#CMSS17-99"/>
     <use transform="translate(41.638822 0)scale(0.996264)" xlink:href="#CMSS17-111"/>
     <use transform="translate(85.879992 0)scale(0.996264)" xlink:href="#CMSS17-114"/>
     <use transform="translate(117.789764 0)scale(0.996264)" xlink:href="#CMSS17-101"/>
     <use transform="translate(159.428586 0)scale(0.996264)" xlink:href="#CMSS17-115"/>
    </g>
   </g>
  </g>
 </g>
 <defs>
  <clipPath id="p34a38abdce">
   <rect height="120.96" width="77.634783" x="54.336528" y="10.7"/>
  </clipPath>
  <clipPath id="p58396394da">
   <rect height="120.96" width="77.634783" x="147.498267" y="10.7"/>
  </clipPath>
  <clipPath id="p7d3c8ed1e1">
   <rect height="120.96" width="77.634783" x="240.660006" y="10.7"/>
  </clipPath>
  <clipPath id="p05c4334089">
   <rect height="120.96" width="77.634783" x="333.821745" y="10.7"/>
  </clipPath>
 </defs>
</svg>
