<?xml version="1.0" encoding="utf-8" standalone="no"?>
<!DOCTYPE svg PUBLIC "-//W3C//DTD SVG 1.1//EN"
  "http://www.w3.org/Graphics/SVG/1.1/DTD/svg11.dtd">
<!-- Created with matplotlib (http://matplotlib.org/) -->
<svg height="329pt" version="1.1" viewBox="0 0 454 329" width="454pt" xmlns="http://www.w3.org/2000/svg" xmlns:xlink="http://www.w3.org/1999/xlink">
 <defs>
  <style type="text/css">
*{stroke-linecap:butt;stroke-linejoin:round;}
  </style>
 </defs>
 <g id="figure_1">
  <g id="patch_1">
   <path d="M 0 329.308 
L 454.273056 329.308 
L 454.273056 0 
L 0 0 
z
" style="fill:#ffffff;"/>
  </g>
  <g id="axes_1">
   <g id="patch_2">
    <path d="M 54.336528 276.812 
L 411.456528 276.812 
L 411.456528 10.7 
L 54.336528 10.7 
z
" style="fill:#e5e5e5;"/>
   </g>
   <g id="matplotlib.axis_1">
    <g id="xtick_1">
     <g id="line2d_1">
      <path clip-path="url(#pe524e1c520)" d="M 98.976528 276.812 
L 98.976528 10.7 
" style="fill:none;stroke:#ffffff;stroke-linecap:square;stroke-width:0.8;"/>
     </g>
     <g id="line2d_2">
      <defs>
       <path d="M 0 0 
L 0 3.5 
" id="mee1e339ccd" style="stroke:#555555;stroke-width:0.8;"/>
      </defs>
      <g>
       <use style="fill:#555555;stroke:#555555;stroke-width:0.8;" x="98.976528" xlink:href="#mee1e339ccd" y="276.812"/>
      </g>
     </g>
     <g id="text_1">
      <!-- 125 -->
      <defs>
       <path d="M 28.40625 67 
L 26.5 67 
C 21.09375 61.5625 14.796875 60.78125 8.40625 60.78125 
L 8.40625 55 
C 11.296875 55 16 55 20.703125 57.296875 
L 20.703125 5.765625 
L 8.90625 5.765625 
L 8.90625 0 
L 40.203125 0 
L 40.203125 5.765625 
L 28.40625 5.765625 
z
" id="CMSS17-49"/>
       <path d="M 25.796875 21.203125 
C 28.59375 24.078125 32.796875 27.5625 35.703125 31.046875 
C 38.5 34.4375 42.203125 39.234375 42.203125 46.203125 
C 42.203125 57.140625 34.796875 67 22.203125 67 
C 12.296875 67 6.59375 60.828125 3.90625 51.15625 
L 7.796875 45.765625 
C 10 54.84375 13.09375 60.625 20.90625 60.625 
C 29.5 60.625 34.296875 53.640625 34.296875 45.96875 
C 34.296875 36.796875 27.296875 29.703125 22 24.421875 
C 16.09375 18.546875 10.296875 12.5625 4.703125 6.375 
L 4.703125 0 
L 42.203125 0 
L 42.203125 6.765625 
L 25.203125 6.765625 
C 24 6.765625 22.796875 6.765625 21.59375 6.765625 
L 11.59375 6.765625 
L 11.59375 6.859375 
z
" id="CMSS17-50"/>
       <path d="M 14.59375 58.625 
L 39.09375 58.625 
L 39.09375 65 
L 7.296875 65 
L 7.296875 27.828125 
L 14 27.828125 
C 15.796875 31.96875 19.5 35 24.296875 35 
C 28.796875 35 33.796875 31.078125 33.796875 19.78125 
C 33.796875 7.703125 26.703125 4.171875 21.5 4.171875 
C 15.09375 4.171875 9.203125 8 6.59375 13.296875 
L 3.40625 7.796875 
C 8 0.765625 15.5 -2 21.5 -2 
C 33.09375 -2 42.203125 7.765625 42.203125 19.578125 
C 42.203125 31.71875 34.09375 41.078125 24.40625 41.078125 
C 20.90625 41.078125 17.5 39.890625 14.59375 37.484375 
z
" id="CMSS17-53"/>
      </defs>
      <g style="fill:#555555;" transform="translate(91.504525 290.730498)scale(0.1 -0.1)">
       <use transform="scale(0.996264)" xlink:href="#CMSS17-49"/>
       <use transform="translate(46.843624 0)scale(0.996264)" xlink:href="#CMSS17-50"/>
       <use transform="translate(93.687247 0)scale(0.996264)" xlink:href="#CMSS17-53"/>
      </g>
      <!-- cores -->
      <defs>
       <path d="M 38.5 39.703125 
C 38.5 40.390625 33.90625 42.40625 32.703125 42.796875 
C 29.40625 44 25.203125 44 24.09375 44 
C 11.09375 44 3.296875 32.703125 3.296875 21.296875 
C 3.296875 9.296875 12 -1 23.703125 -1 
C 30.40625 -1 35.203125 1.1875 39.09375 3.78125 
L 38.5 10.375 
C 34.203125 7.078125 29.203125 5.265625 23.796875 5.265625 
C 16 5.265625 10.90625 12.09375 10.90625 21.390625 
C 10.90625 28.609375 14.203125 37.71875 24.203125 37.71875 
C 29.703125 37.71875 32.796875 36.609375 37.40625 33.515625 
z
" id="CMSS17-99"/>
       <path d="M 44.203125 21.1875 
C 44.203125 34 34.703125 44 23.5 44 
C 12 44 2.703125 33.703125 2.703125 21.1875 
C 2.703125 8.5 12.296875 -1 23.40625 -1 
C 34.796875 -1 44.203125 8.796875 44.203125 21.1875 
M 23.5 5.265625 
C 16.40625 5.265625 10.296875 11.078125 10.296875 22 
C 10.296875 33.609375 17.40625 37.921875 23.40625 37.921875 
C 29.90625 37.921875 36.59375 33.21875 36.59375 22 
C 36.59375 10.671875 30.09375 5.265625 23.5 5.265625 
" id="CMSS17-111"/>
       <path d="M 14.90625 21.296875 
C 14.90625 30.703125 21.796875 37 30.59375 37 
L 30.59375 43.578125 
C 24.203125 43.578125 18.203125 40.390625 14.59375 35.203125 
L 14.59375 43.09375 
L 7.5 43.09375 
L 7.5 0 
L 14.90625 0 
z
" id="CMSS17-114"/>
       <path d="M 39.09375 21.515625 
C 39.09375 24.84375 38.90625 31.296875 35.703125 36.640625 
C 32.203125 42.390625 26.5 44 22.203125 44 
C 11.796875 44 3 34.1875 3 21.484375 
C 3 9.09375 12.09375 -1 23.59375 -1 
C 28.09375 -1 33.59375 0.296875 38.59375 3.875 
C 38.59375 4.28125 38.40625 6.46875 38.296875 6.5625 
C 38.296875 6.765625 38 9.84375 38 10.25 
C 33.203125 6.359375 27.703125 5.078125 23.703125 5.078125 
C 17.296875 5.078125 10.40625 10.421875 10.09375 21.515625 
z
M 10.90625 27 
C 12.203125 32.5625 16.59375 37.828125 22.203125 37.828125 
C 23.703125 37.828125 30.703125 37.828125 32.5 27 
z
" id="CMSS17-101"/>
       <path d="M 32.203125 41.046875 
C 26.296875 43.859375 21.703125 43.859375 18.703125 43.859375 
C 11.59375 43.859375 3.09375 41.375 3.09375 31.296875 
C 3.09375 21.234375 14.09375 19.03125 17.09375 18.421875 
C 21.703125 17.53125 26.796875 16.53125 26.796875 11.5625 
C 26.796875 5.265625 19.59375 5.265625 18.296875 5.265625 
C 14.296875 5.265625 8.796875 6.359375 3.796875 9.96875 
L 2.59375 3.28125 
C 8.296875 0 13.796875 -1 18.40625 -1 
C 30.703125 -1 33.796875 6.5 33.796875 12.203125 
C 33.796875 17.09375 31 20.390625 29.09375 21.890625 
C 25.796875 24.5 24.59375 24.796875 16.40625 26.5 
C 15 26.703125 10.09375 27.796875 10.09375 32.28125 
C 10.09375 38 16.40625 38 17.796875 38 
C 24.296875 38 28.296875 35.984375 31 34.5 
z
" id="CMSS17-115"/>
      </defs>
      <g style="fill:#555555;" transform="translate(88.584932 300.969875)scale(0.1 -0.1)">
       <use transform="scale(0.996264)" xlink:href="#CMSS17-99"/>
       <use transform="translate(41.638822 0)scale(0.996264)" xlink:href="#CMSS17-111"/>
       <use transform="translate(85.879992 0)scale(0.996264)" xlink:href="#CMSS17-114"/>
       <use transform="translate(117.789764 0)scale(0.996264)" xlink:href="#CMSS17-101"/>
       <use transform="translate(159.428586 0)scale(0.996264)" xlink:href="#CMSS17-115"/>
      </g>
     </g>
    </g>
    <g id="xtick_2">
     <g id="line2d_3">
      <path clip-path="url(#pe524e1c520)" d="M 188.256528 276.812 
L 188.256528 10.7 
" style="fill:none;stroke:#ffffff;stroke-linecap:square;stroke-width:0.8;"/>
     </g>
     <g id="line2d_4">
      <g>
       <use style="fill:#555555;stroke:#555555;stroke-width:0.8;" x="188.256528" xlink:href="#mee1e339ccd" y="276.812"/>
      </g>
     </g>
     <g id="text_2">
      <!-- 216 -->
      <defs>
       <path d="M 39 64.078125 
C 34.796875 65.78125 31.796875 66.078125 29 66.078125 
C 16 66.078125 3.90625 52.625 3.90625 31.34375 
C 3.90625 4.140625 15.40625 -2 23.59375 -2 
C 28.09375 -2 32.59375 -0.609375 36.90625 4.375 
C 41.296875 9.640625 43 14.03125 43 21.703125 
C 43 34.046875 36.90625 45 27.796875 45 
C 21.203125 45 15.5 41.515625 12 37.125 
C 13 50.90625 19.59375 60 29.09375 60 
C 31.703125 60 35.09375 59.625 39 57.96875 
z
M 12.09375 21.390625 
C 12.09375 22.1875 12.09375 22.6875 12.203125 24.1875 
C 12.203125 31.953125 16.703125 38.921875 24 38.921875 
C 28.703125 38.921875 31.09375 36.4375 32.90625 33.359375 
C 35 29.46875 35.09375 25.78125 35.09375 21.6875 
C 35.09375 17.8125 35.09375 13.921875 32.796875 9.953125 
C 30.90625 6.859375 28.40625 4.171875 23.59375 4.171875 
C 14.09375 4.171875 12.5 17.40625 12.09375 21.390625 
" id="CMSS17-54"/>
      </defs>
      <g style="fill:#555555;" transform="translate(180.784525 290.730498)scale(0.1 -0.1)">
       <use transform="scale(0.996264)" xlink:href="#CMSS17-50"/>
       <use transform="translate(46.843624 0)scale(0.996264)" xlink:href="#CMSS17-49"/>
       <use transform="translate(93.687247 0)scale(0.996264)" xlink:href="#CMSS17-54"/>
      </g>
      <!-- cores -->
      <g style="fill:#555555;" transform="translate(177.864932 300.969875)scale(0.1 -0.1)">
       <use transform="scale(0.996264)" xlink:href="#CMSS17-99"/>
       <use transform="translate(41.638822 0)scale(0.996264)" xlink:href="#CMSS17-111"/>
       <use transform="translate(85.879992 0)scale(0.996264)" xlink:href="#CMSS17-114"/>
       <use transform="translate(117.789764 0)scale(0.996264)" xlink:href="#CMSS17-101"/>
       <use transform="translate(159.428586 0)scale(0.996264)" xlink:href="#CMSS17-115"/>
      </g>
     </g>
    </g>
    <g id="xtick_3">
     <g id="line2d_5">
      <path clip-path="url(#pe524e1c520)" d="M 277.536528 276.812 
L 277.536528 10.7 
" style="fill:none;stroke:#ffffff;stroke-linecap:square;stroke-width:0.8;"/>
     </g>
     <g id="line2d_6">
      <g>
       <use style="fill:#555555;stroke:#555555;stroke-width:0.8;" x="277.536528" xlink:href="#mee1e339ccd" y="276.812"/>
      </g>
     </g>
     <g id="text_3">
      <!-- 512 -->
      <g style="fill:#555555;" transform="translate(270.064525 290.730498)scale(0.1 -0.1)">
       <use transform="scale(0.996264)" xlink:href="#CMSS17-53"/>
       <use transform="translate(46.843624 0)scale(0.996264)" xlink:href="#CMSS17-49"/>
       <use transform="translate(93.687247 0)scale(0.996264)" xlink:href="#CMSS17-50"/>
      </g>
      <!-- cores -->
      <g style="fill:#555555;" transform="translate(267.144932 300.969875)scale(0.1 -0.1)">
       <use transform="scale(0.996264)" xlink:href="#CMSS17-99"/>
       <use transform="translate(41.638822 0)scale(0.996264)" xlink:href="#CMSS17-111"/>
       <use transform="translate(85.879992 0)scale(0.996264)" xlink:href="#CMSS17-114"/>
       <use transform="translate(117.789764 0)scale(0.996264)" xlink:href="#CMSS17-101"/>
       <use transform="translate(159.428586 0)scale(0.996264)" xlink:href="#CMSS17-115"/>
      </g>
     </g>
    </g>
    <g id="xtick_4">
     <g id="line2d_7">
      <path clip-path="url(#pe524e1c520)" d="M 366.816528 276.812 
L 366.816528 10.7 
" style="fill:none;stroke:#ffffff;stroke-linecap:square;stroke-width:0.8;"/>
     </g>
     <g id="line2d_8">
      <g>
       <use style="fill:#555555;stroke:#555555;stroke-width:0.8;" x="366.816528" xlink:href="#mee1e339ccd" y="276.812"/>
      </g>
     </g>
     <g id="text_4">
      <!-- 729 -->
      <defs>
       <path d="M 21.703125 59 
C 22.90625 59 24.09375 59 25.296875 59 
L 36.796875 59 
C 22.5 42.359375 14.296875 21.328125 14.296875 -0.5 
L 22.296875 -0.5 
C 22.296875 20.671875 29.296875 42.125 43 59.296875 
L 43 65.765625 
L 3.90625 65.765625 
L 3.90625 59 
z
" id="CMSS17-55"/>
       <path d="M 6.796875 2.71875 
C 9.59375 0.328125 13.203125 -2 19.296875 -2 
C 31.40625 -2 43 11.265625 43 32.734375 
C 43 61.4375 30.5 66.078125 23.796875 66.078125 
C 17.09375 66.078125 12.796875 63.140625 9.09375 58.453125 
C 4.703125 53.078125 3.90625 48.28125 3.90625 42.703125 
C 3.90625 36.046875 5.09375 31.953125 7.90625 27.265625 
C 11.703125 21.203125 15.203125 19.921875 19.09375 19.921875 
C 25 19.921875 30.90625 22.796875 34.90625 27.75 
C 34.203125 14.09375 28.09375 4.171875 19.296875 4.171875 
C 15.703125 4.171875 12.796875 5.296875 9.90625 8.0625 
z
M 34.59375 42.90625 
C 34.703125 42.234375 34.703125 40.96875 34.703125 40.5625 
C 34.703125 32.40625 29.90625 26 22.90625 26 
C 18.296875 26 15.90625 28.328125 14.09375 31.34375 
C 11.90625 35.140625 11.796875 38.828125 11.796875 42.703125 
C 11.796875 46.5 11.796875 50.6875 14.59375 54.859375 
C 16.703125 57.859375 19.296875 60 23.796875 60 
C 33 60 34.5 46.875 34.59375 42.90625 
" id="CMSS17-57"/>
      </defs>
      <g style="fill:#555555;" transform="translate(359.344525 290.730498)scale(0.1 -0.1)">
       <use transform="scale(0.996264)" xlink:href="#CMSS17-55"/>
       <use transform="translate(46.843624 0)scale(0.996264)" xlink:href="#CMSS17-50"/>
       <use transform="translate(93.687247 0)scale(0.996264)" xlink:href="#CMSS17-57"/>
      </g>
      <!-- cores -->
      <g style="fill:#555555;" transform="translate(356.424932 300.969875)scale(0.1 -0.1)">
       <use transform="scale(0.996264)" xlink:href="#CMSS17-99"/>
       <use transform="translate(41.638822 0)scale(0.996264)" xlink:href="#CMSS17-111"/>
       <use transform="translate(85.879992 0)scale(0.996264)" xlink:href="#CMSS17-114"/>
       <use transform="translate(117.789764 0)scale(0.996264)" xlink:href="#CMSS17-101"/>
       <use transform="translate(159.428586 0)scale(0.996264)" xlink:href="#CMSS17-115"/>
      </g>
     </g>
    </g>
   </g>
   <g id="matplotlib.axis_2">
    <g id="ytick_1">
     <g id="line2d_9">
      <path clip-path="url(#pe524e1c520)" d="M 54.336528 276.812 
L 411.456528 276.812 
" style="fill:none;stroke:#ffffff;stroke-linecap:square;stroke-width:0.8;"/>
     </g>
     <g id="line2d_10">
      <defs>
       <path d="M 0 0 
L -3.5 0 
" id="m8758953085" style="stroke:#555555;stroke-width:0.8;"/>
      </defs>
      <g>
       <use style="fill:#555555;stroke:#555555;stroke-width:0.8;" x="54.336528" xlink:href="#m8758953085" y="276.812"/>
      </g>
     </g>
     <g id="text_5">
      <!-- $0.0$ -->
      <defs>
       <path d="M 42 31.640625 
C 42 37.75 41.90625 48.125 37.703125 56.109375 
C 34 63.109375 28.09375 65.59375 22.90625 65.59375 
C 18.09375 65.59375 12 63.40625 8.203125 56.203125 
C 4.203125 48.71875 3.796875 39.4375 3.796875 31.640625 
C 3.796875 25.953125 3.90625 17.28125 7 9.671875 
C 11.296875 -0.609375 19 -2 22.90625 -2 
C 27.5 -2 34.5 -0.109375 38.59375 9.375 
C 41.59375 16.28125 42 24.359375 42 31.640625 
M 22.90625 -0.40625 
C 16.5 -0.40625 12.703125 5.078125 11.296875 12.6875 
C 10.203125 18.5625 10.203125 27.15625 10.203125 32.75 
C 10.203125 40.4375 10.203125 46.828125 11.5 52.921875 
C 13.40625 61.390625 19 64 22.90625 64 
C 27 64 32.296875 61.296875 34.203125 53.125 
C 35.5 47.4375 35.59375 40.734375 35.59375 32.75 
C 35.59375 26.25 35.59375 18.265625 34.40625 12.375 
C 32.296875 1.484375 26.40625 -0.40625 22.90625 -0.40625 
" id="CMR17-48"/>
       <path d="M 18.40625 4.796875 
C 18.40625 7.6875 16 9.671875 13.59375 9.671875 
C 10.703125 9.671875 8.703125 7.28125 8.703125 4.890625 
C 8.703125 2 11.09375 0 13.5 0 
C 16.40625 0 18.40625 2.390625 18.40625 4.796875 
" id="CMMI12-58"/>
      </defs>
      <g style="fill:#555555;" transform="translate(34.606449 280.271249)scale(0.1 -0.1)">
       <use transform="scale(0.996264)" xlink:href="#CMR17-48"/>
       <use transform="translate(45.690477 0)scale(0.996264)" xlink:href="#CMMI12-58"/>
       <use transform="translate(72.787654 0)scale(0.996264)" xlink:href="#CMR17-48"/>
      </g>
     </g>
    </g>
    <g id="ytick_2">
     <g id="line2d_11">
      <path clip-path="url(#pe524e1c520)" d="M 54.336528 226.124 
L 411.456528 226.124 
" style="fill:none;stroke:#ffffff;stroke-linecap:square;stroke-width:0.8;"/>
     </g>
     <g id="line2d_12">
      <g>
       <use style="fill:#555555;stroke:#555555;stroke-width:0.8;" x="54.336528" xlink:href="#m8758953085" y="226.124"/>
      </g>
     </g>
     <g id="text_6">
      <!-- $0.2$ -->
      <defs>
       <path d="M 41.703125 15.453125 
L 39.90625 15.453125 
C 38.90625 8.375 38.09375 7.171875 37.703125 6.5625 
C 37.203125 5.765625 30 5.765625 28.59375 5.765625 
L 9.40625 5.765625 
C 13 9.671875 20 16.75 28.5 24.953125 
C 34.59375 30.734375 41.703125 37.53125 41.703125 47.421875 
C 41.703125 59.21875 32.296875 66 21.796875 66 
C 10.796875 66 4.09375 56.3125 4.09375 47.34375 
C 4.09375 43.4375 7 42.9375 8.203125 42.9375 
C 9.203125 42.9375 12.203125 43.546875 12.203125 47.03125 
C 12.203125 50.109375 9.59375 51 8.203125 51 
C 7.59375 51 7 50.90625 6.59375 50.703125 
C 8.5 59.21875 14.296875 63.40625 20.40625 63.40625 
C 29.09375 63.40625 34.796875 56.515625 34.796875 47.421875 
C 34.796875 38.734375 29.703125 31.25 24 24.75 
L 4.09375 2.28125 
L 4.09375 0 
L 39.296875 0 
z
" id="CMR17-50"/>
      </defs>
      <g style="fill:#555555;" transform="translate(34.606449 229.583249)scale(0.1 -0.1)">
       <use transform="scale(0.996264)" xlink:href="#CMR17-48"/>
       <use transform="translate(45.690477 0)scale(0.996264)" xlink:href="#CMMI12-58"/>
       <use transform="translate(72.787654 0)scale(0.996264)" xlink:href="#CMR17-50"/>
      </g>
     </g>
    </g>
    <g id="ytick_3">
     <g id="line2d_13">
      <path clip-path="url(#pe524e1c520)" d="M 54.336528 175.436 
L 411.456528 175.436 
" style="fill:none;stroke:#ffffff;stroke-linecap:square;stroke-width:0.8;"/>
     </g>
     <g id="line2d_14">
      <g>
       <use style="fill:#555555;stroke:#555555;stroke-width:0.8;" x="54.336528" xlink:href="#m8758953085" y="175.436"/>
      </g>
     </g>
     <g id="text_7">
      <!-- $0.4$ -->
      <defs>
       <path d="M 33.59375 64.40625 
C 33.59375 66.5 33.5 66.5 31.703125 66.5 
L 2 19.59375 
L 2 17 
L 27.796875 17 
L 27.796875 7.140625 
C 27.796875 3.5 27.59375 2.5 20.59375 2.5 
L 18.703125 2.5 
L 18.703125 0 
C 21.90625 0 27.296875 0 30.703125 0 
C 34.09375 0 39.5 0 42.703125 0 
L 42.703125 2.5 
L 40.796875 2.5 
C 33.796875 2.5 33.59375 3.5 33.59375 7.140625 
L 33.59375 17 
L 43.796875 17 
L 43.796875 19.59375 
L 33.59375 19.59375 
z
M 28.09375 57.859375 
L 28.09375 19.59375 
L 4 19.59375 
z
" id="CMR17-52"/>
      </defs>
      <g style="fill:#555555;" transform="translate(34.606449 178.895249)scale(0.1 -0.1)">
       <use transform="scale(0.996264)" xlink:href="#CMR17-48"/>
       <use transform="translate(45.690477 0)scale(0.996264)" xlink:href="#CMMI12-58"/>
       <use transform="translate(72.787654 0)scale(0.996264)" xlink:href="#CMR17-52"/>
      </g>
     </g>
    </g>
    <g id="ytick_4">
     <g id="line2d_15">
      <path clip-path="url(#pe524e1c520)" d="M 54.336528 124.748 
L 411.456528 124.748 
" style="fill:none;stroke:#ffffff;stroke-linecap:square;stroke-width:0.8;"/>
     </g>
     <g id="line2d_16">
      <g>
       <use style="fill:#555555;stroke:#555555;stroke-width:0.8;" x="54.336528" xlink:href="#m8758953085" y="124.748"/>
      </g>
     </g>
     <g id="text_8">
      <!-- $0.6$ -->
      <defs>
       <path d="M 10.59375 34 
C 10.59375 57.65625 21.796875 63 28.296875 63 
C 30.40625 63 35.5 62.640625 37.5 59 
C 35.90625 59 32.90625 59 32.90625 55.515625 
C 32.90625 52.828125 35.09375 51.921875 36.5 51.921875 
C 37.40625 51.921875 40.09375 52.3125 40.09375 55.625 
C 40.09375 61.78125 35.09375 65.296875 28.203125 65.296875 
C 16.296875 65.296875 3.796875 52.96875 3.796875 31 
C 3.796875 3.953125 15.09375 -2 23.09375 -2 
C 32.796875 -2 42 6.671875 42 20.046875 
C 42 32.515625 33.90625 41.59375 23.703125 41.59375 
C 17.59375 41.59375 13.09375 37.609375 10.59375 30.625 
z
M 23.09375 0.390625 
C 10.796875 0.390625 10.796875 18.75 10.796875 22.4375 
C 10.796875 29.625 14.203125 40 23.5 40 
C 25.203125 40 30.09375 40 33.40625 33.125 
C 35.203125 29.21875 35.203125 25.140625 35.203125 20.140625 
C 35.203125 14.75 35.203125 10.78125 33.09375 6.78125 
C 30.90625 2.671875 27.703125 0.390625 23.09375 0.390625 
" id="CMR17-54"/>
      </defs>
      <g style="fill:#555555;" transform="translate(34.606449 128.207249)scale(0.1 -0.1)">
       <use transform="scale(0.996264)" xlink:href="#CMR17-48"/>
       <use transform="translate(45.690477 0)scale(0.996264)" xlink:href="#CMMI12-58"/>
       <use transform="translate(72.787654 0)scale(0.996264)" xlink:href="#CMR17-54"/>
      </g>
     </g>
    </g>
    <g id="ytick_5">
     <g id="line2d_17">
      <path clip-path="url(#pe524e1c520)" d="M 54.336528 74.06 
L 411.456528 74.06 
" style="fill:none;stroke:#ffffff;stroke-linecap:square;stroke-width:0.8;"/>
     </g>
     <g id="line2d_18">
      <g>
       <use style="fill:#555555;stroke:#555555;stroke-width:0.8;" x="54.336528" xlink:href="#m8758953085" y="74.06"/>
      </g>
     </g>
     <g id="text_9">
      <!-- $0.8$ -->
      <defs>
       <path d="M 27.203125 35.375 
C 33.5 38.546875 39.90625 43.328125 39.90625 50.984375 
C 39.90625 60.015625 31.09375 65.296875 23 65.296875 
C 13.90625 65.296875 5.90625 58.734375 5.90625 49.6875 
C 5.90625 47.203125 6.5 42.921875 10.40625 39.140625 
C 11.40625 38.15625 15.59375 35.171875 18.296875 33.28125 
C 13.796875 30.984375 3.296875 25.53125 3.296875 14.59375 
C 3.296875 4.359375 13.09375 -2 22.796875 -2 
C 33.5 -2 42.5 5.65625 42.5 15.78125 
C 42.5 24.84375 36.40625 29.015625 32.40625 31.703125 
z
M 14.09375 44.09375 
C 13.296875 44.59375 9.296875 47.671875 9.296875 52.359375 
C 9.296875 58.421875 15.59375 63 22.796875 63 
C 30.703125 63 36.5 57.4375 36.5 50.96875 
C 36.5 41.703125 26.09375 36.421875 25.59375 36.421875 
C 25.5 36.421875 25.40625 36.421875 24.59375 37.03125 
z
M 32.5 23.734375 
C 34 22.640625 38.796875 19.375 38.796875 13.296875 
C 38.796875 5.953125 31.40625 0.390625 23 0.390625 
C 13.90625 0.390625 7 6.84375 7 14.6875 
C 7 22.546875 13.09375 29.09375 20 32.1875 
z
" id="CMR17-56"/>
      </defs>
      <g style="fill:#555555;" transform="translate(34.606449 77.519249)scale(0.1 -0.1)">
       <use transform="scale(0.996264)" xlink:href="#CMR17-48"/>
       <use transform="translate(45.690477 0)scale(0.996264)" xlink:href="#CMMI12-58"/>
       <use transform="translate(72.787654 0)scale(0.996264)" xlink:href="#CMR17-56"/>
      </g>
     </g>
    </g>
    <g id="ytick_6">
     <g id="line2d_19">
      <path clip-path="url(#pe524e1c520)" d="M 54.336528 23.372 
L 411.456528 23.372 
" style="fill:none;stroke:#ffffff;stroke-linecap:square;stroke-width:0.8;"/>
     </g>
     <g id="line2d_20">
      <g>
       <use style="fill:#555555;stroke:#555555;stroke-width:0.8;" x="54.336528" xlink:href="#m8758953085" y="23.372"/>
      </g>
     </g>
     <g id="text_10">
      <!-- $1.0$ -->
      <defs>
       <path d="M 26.59375 63.40625 
C 26.59375 65.5 26.5 65.5 25.09375 65.5 
C 21.203125 61.1875 15.296875 59.796875 9.703125 59.796875 
C 9.40625 59.796875 8.90625 59.796875 8.796875 59.5 
C 8.703125 59.296875 8.703125 59.09375 8.703125 57 
C 11.796875 57 17 57.59375 21 59.984375 
L 21 7.203125 
C 21 3.6875 20.796875 2.5 12.203125 2.5 
L 9.203125 2.5 
L 9.203125 0 
C 14 0 19 0 23.796875 0 
C 28.59375 0 33.59375 0 38.40625 0 
L 38.40625 2.5 
L 35.40625 2.5 
C 26.796875 2.5 26.59375 3.59375 26.59375 7.15625 
z
" id="CMR17-49"/>
      </defs>
      <g style="fill:#555555;" transform="translate(34.606449 26.831249)scale(0.1 -0.1)">
       <use transform="scale(0.996264)" xlink:href="#CMR17-49"/>
       <use transform="translate(45.690477 0)scale(0.996264)" xlink:href="#CMMI12-58"/>
       <use transform="translate(72.787654 0)scale(0.996264)" xlink:href="#CMR17-48"/>
      </g>
     </g>
    </g>
   </g>
   <g id="patch_3">
    <path clip-path="url(#pe524e1c520)" d="M 76.656528 276.812 
L 121.296528 276.812 
L 121.296528 188.86832 
L 76.656528 188.86832 
z
" style="fill:#ff007a;"/>
   </g>
   <g id="patch_4">
    <path clip-path="url(#pe524e1c520)" d="M 165.936528 276.812 
L 210.576528 276.812 
L 210.576528 207.62288 
L 165.936528 207.62288 
z
" style="fill:#ff007a;"/>
   </g>
   <g id="patch_5">
    <path clip-path="url(#pe524e1c520)" d="M 255.216528 276.812 
L 299.856528 276.812 
L 299.856528 245.132 
L 255.216528 245.132 
z
" style="fill:#ff007a;"/>
   </g>
   <g id="patch_6">
    <path clip-path="url(#pe524e1c520)" d="M 344.496528 276.812 
L 389.136528 276.812 
L 389.136528 201.28688 
L 344.496528 201.28688 
z
" style="fill:#ff007a;"/>
   </g>
   <g id="patch_7">
    <path clip-path="url(#pe524e1c520)" d="M 76.656528 188.86832 
L 121.296528 188.86832 
L 121.296528 135.89936 
L 76.656528 135.89936 
z
" style="fill:#8280ff;"/>
   </g>
   <g id="patch_8">
    <path clip-path="url(#pe524e1c520)" d="M 165.936528 207.62288 
L 210.576528 207.62288 
L 210.576528 152.11952 
L 165.936528 152.11952 
z
" style="fill:#8280ff;"/>
   </g>
   <g id="patch_9">
    <path clip-path="url(#pe524e1c520)" d="M 255.216528 245.132 
L 299.856528 245.132 
L 299.856528 176.95664 
L 255.216528 176.95664 
z
" style="fill:#8280ff;"/>
   </g>
   <g id="patch_10">
    <path clip-path="url(#pe524e1c520)" d="M 344.496528 201.28688 
L 389.136528 201.28688 
L 389.136528 148.31792 
L 344.496528 148.31792 
z
" style="fill:#8280ff;"/>
   </g>
   <g id="patch_11">
    <path clip-path="url(#pe524e1c520)" d="M 76.656528 135.89936 
L 121.296528 135.89936 
L 121.296528 50.74352 
L 76.656528 50.74352 
z
" style="fill:#008042;"/>
   </g>
   <g id="patch_12">
    <path clip-path="url(#pe524e1c520)" d="M 165.936528 152.11952 
L 210.576528 152.11952 
L 210.576528 61.13456 
L 165.936528 61.13456 
z
" style="fill:#008042;"/>
   </g>
   <g id="patch_13">
    <path clip-path="url(#pe524e1c520)" d="M 255.216528 176.95664 
L 299.856528 176.95664 
L 299.856528 61.89488 
L 255.216528 61.89488 
z
" style="fill:#008042;"/>
   </g>
   <g id="patch_14">
    <path clip-path="url(#pe524e1c520)" d="M 344.496528 148.31792 
L 389.136528 148.31792 
L 389.136528 59.36048 
L 344.496528 59.36048 
z
" style="fill:#008042;"/>
   </g>
   <g id="patch_15">
    <path clip-path="url(#pe524e1c520)" d="M 76.656528 50.74352 
L 121.296528 50.74352 
L 121.296528 23.372 
L 76.656528 23.372 
z
" style="fill:#620080;"/>
   </g>
   <g id="patch_16">
    <path clip-path="url(#pe524e1c520)" d="M 165.936528 61.13456 
L 210.576528 61.13456 
L 210.576528 23.372 
L 165.936528 23.372 
z
" style="fill:#620080;"/>
   </g>
   <g id="patch_17">
    <path clip-path="url(#pe524e1c520)" d="M 255.216528 61.89488 
L 299.856528 61.89488 
L 299.856528 23.372 
L 255.216528 23.372 
z
" style="fill:#620080;"/>
   </g>
   <g id="patch_18">
    <path clip-path="url(#pe524e1c520)" d="M 344.496528 59.36048 
L 389.136528 59.36048 
L 389.136528 23.372 
L 344.496528 23.372 
z
" style="fill:#620080;"/>
   </g>
   <g id="patch_19">
    <path d="M 54.336528 276.812 
L 54.336528 10.7 
" style="fill:none;stroke:#ffffff;stroke-linecap:square;stroke-linejoin:miter;"/>
   </g>
   <g id="patch_20">
    <path d="M 411.456528 276.812 
L 411.456528 10.7 
" style="fill:none;stroke:#ffffff;stroke-linecap:square;stroke-linejoin:miter;"/>
   </g>
   <g id="patch_21">
    <path d="M 54.336528 276.812 
L 411.456528 276.812 
" style="fill:none;stroke:#ffffff;stroke-linecap:square;stroke-linejoin:miter;"/>
   </g>
   <g id="patch_22">
    <path d="M 54.336528 10.7 
L 411.456528 10.7 
" style="fill:none;stroke:#ffffff;stroke-linecap:square;stroke-linejoin:miter;"/>
   </g>
   <g id="text_11">
    <g id="patch_23">
     <path d="M 90.120821 235.777338 
L 107.832235 235.777338 
Q 108.832235 235.777338 108.832235 234.777338 
L 108.832235 225.921662 
Q 108.832235 224.921662 107.832235 224.921662 
L 90.120821 224.921662 
Q 89.120821 224.921662 89.120821 225.921662 
L 89.120821 234.777338 
Q 89.120821 235.777338 90.120821 235.777338 
z
" style="fill:#ffffff;opacity:0.6;stroke:#eeeeee;stroke-linejoin:miter;stroke-width:0.5;"/>
    </g>
    <!-- 0.35 -->
    <defs>
     <path d="M 43.09375 31.9375 
C 43.09375 37.578125 43 48.078125 38.90625 56.1875 
C 34.796875 64 28.203125 66.078125 23.5 66.078125 
C 16.703125 66.078125 10.90625 62.109375 7.90625 55.78125 
C 4.703125 49.15625 3.796875 42.328125 3.796875 31.9375 
C 3.796875 24.828125 4.09375 16.109375 7.703125 8.484375 
C 11.796875 0.078125 18.703125 -2 23.40625 -2 
C 29.59375 -2 35.59375 1.265625 39 8.09375 
C 42.5 15.21875 43.09375 23.03125 43.09375 31.9375 
M 23.40625 4.078125 
C 15.796875 4.078125 13.5 12.671875 12.796875 15.546875 
C 11.59375 20.46875 11.40625 25.21875 11.40625 33.03125 
C 11.40625 39.15625 11.40625 46.0625 13.296875 51.515625 
C 15.59375 57.828125 19.59375 60 23.40625 60 
C 30.796875 60 33.203125 52.6875 34 50.125 
C 35.5 44.890625 35.5 38.765625 35.5 33.03125 
C 35.5 23.84375 35.5 4.078125 23.40625 4.078125 
" id="CMSS17-48"/>
     <path d="M 17 7.96875 
L 9 7.96875 
L 9 0 
L 17 0 
z
" id="CMSS17-46"/>
     <path d="M 15.703125 31.640625 
L 22.5 31.640625 
C 31.90625 31.640625 34.59375 23.546875 34.59375 17.90625 
C 34.59375 10.203125 30.203125 4.171875 23 4.171875 
C 17.40625 4.171875 9.5 6.9375 5 14.25 
C 4.296875 10.796875 4.296875 10.59375 3.90625 8.21875 
C 8.59375 1.375 16.203125 -2 23.203125 -2 
C 34.59375 -2 43 7.390625 43 17.78125 
C 43 25.59375 37.5 32.140625 30 34.609375 
C 36 37.875 40.40625 44 40.40625 51.140625 
C 40.40625 59.453125 32.703125 66.078125 23.296875 66.078125 
C 14.703125 66.078125 8 60.8125 5.203125 55.15625 
C 5.90625 54.1875 7.703125 51.3125 8.59375 49.828125 
C 10.796875 55.65625 16.5 60 23.203125 60 
C 28.796875 60 32.5 56.359375 32.5 51.109375 
C 32.5 45.671875 29 39.734375 23.09375 38.359375 
C 22.703125 38.359375 16.5 37.765625 15.703125 37.671875 
z
" id="CMSS17-51"/>
    </defs>
    <g transform="translate(90.120821 232.84016)scale(0.1 -0.1)">
     <use transform="scale(0.996264)" xlink:href="#CMSS17-48"/>
     <use transform="translate(46.843624 0)scale(0.996264)" xlink:href="#CMSS17-46"/>
     <use transform="translate(72.867828 0)scale(0.996264)" xlink:href="#CMSS17-51"/>
     <use transform="translate(119.711452 0)scale(0.996264)" xlink:href="#CMSS17-53"/>
    </g>
   </g>
   <g id="text_12">
    <g id="patch_24">
     <path d="M 179.400821 245.154618 
L 197.112235 245.154618 
Q 198.112235 245.154618 198.112235 244.154618 
L 198.112235 235.298942 
Q 198.112235 234.298942 197.112235 234.298942 
L 179.400821 234.298942 
Q 178.400821 234.298942 178.400821 235.298942 
L 178.400821 244.154618 
Q 178.400821 245.154618 179.400821 245.154618 
z
" style="fill:#ffffff;opacity:0.6;stroke:#eeeeee;stroke-linejoin:miter;stroke-width:0.5;"/>
    </g>
    <!-- 0.27 -->
    <g transform="translate(179.400821 242.21744)scale(0.1 -0.1)">
     <use transform="scale(0.996264)" xlink:href="#CMSS17-48"/>
     <use transform="translate(46.843624 0)scale(0.996264)" xlink:href="#CMSS17-46"/>
     <use transform="translate(72.867828 0)scale(0.996264)" xlink:href="#CMSS17-50"/>
     <use transform="translate(119.711452 0)scale(0.996264)" xlink:href="#CMSS17-55"/>
    </g>
   </g>
   <g id="text_13">
    <g id="patch_25">
     <path d="M 268.680821 263.909178 
L 286.392235 263.909178 
Q 287.392235 263.909178 287.392235 262.909178 
L 287.392235 254.053502 
Q 287.392235 253.053502 286.392235 253.053502 
L 268.680821 253.053502 
Q 267.680821 253.053502 267.680821 254.053502 
L 267.680821 262.909178 
Q 267.680821 263.909178 268.680821 263.909178 
z
" style="fill:#ffffff;opacity:0.6;stroke:#eeeeee;stroke-linejoin:miter;stroke-width:0.5;"/>
    </g>
    <!-- 0.12 -->
    <g transform="translate(268.680821 260.972)scale(0.1 -0.1)">
     <use transform="scale(0.996264)" xlink:href="#CMSS17-48"/>
     <use transform="translate(46.843624 0)scale(0.996264)" xlink:href="#CMSS17-46"/>
     <use transform="translate(72.867828 0)scale(0.996264)" xlink:href="#CMSS17-49"/>
     <use transform="translate(119.711452 0)scale(0.996264)" xlink:href="#CMSS17-50"/>
    </g>
   </g>
   <g id="text_14">
    <g id="patch_26">
     <path d="M 360.451489 241.986618 
L 373.181567 241.986618 
Q 374.181567 241.986618 374.181567 240.986618 
L 374.181567 232.130942 
Q 374.181567 231.130942 373.181567 231.130942 
L 360.451489 231.130942 
Q 359.451489 231.130942 359.451489 232.130942 
L 359.451489 240.986618 
Q 359.451489 241.986618 360.451489 241.986618 
z
" style="fill:#ffffff;opacity:0.6;stroke:#eeeeee;stroke-linejoin:miter;stroke-width:0.5;"/>
    </g>
    <!-- 0.3 -->
    <g transform="translate(360.451489 239.04944)scale(0.1 -0.1)">
     <use transform="scale(0.996264)" xlink:href="#CMSS17-48"/>
     <use transform="translate(46.843624 0)scale(0.996264)" xlink:href="#CMSS17-46"/>
     <use transform="translate(72.867828 0)scale(0.996264)" xlink:href="#CMSS17-51"/>
    </g>
   </g>
   <g id="text_15">
    <g id="patch_27">
     <path d="M 90.120821 165.321018 
L 107.832235 165.321018 
Q 108.832235 165.321018 108.832235 164.321018 
L 108.832235 155.465342 
Q 108.832235 154.465342 107.832235 154.465342 
L 90.120821 154.465342 
Q 89.120821 154.465342 89.120821 155.465342 
L 89.120821 164.321018 
Q 89.120821 165.321018 90.120821 165.321018 
z
" style="fill:#ffffff;opacity:0.6;stroke:#eeeeee;stroke-linejoin:miter;stroke-width:0.5;"/>
    </g>
    <!-- 0.21 -->
    <g transform="translate(90.120821 162.38384)scale(0.1 -0.1)">
     <use transform="scale(0.996264)" xlink:href="#CMSS17-48"/>
     <use transform="translate(46.843624 0)scale(0.996264)" xlink:href="#CMSS17-46"/>
     <use transform="translate(72.867828 0)scale(0.996264)" xlink:href="#CMSS17-50"/>
     <use transform="translate(119.711452 0)scale(0.996264)" xlink:href="#CMSS17-49"/>
    </g>
   </g>
   <g id="text_16">
    <g id="patch_28">
     <path d="M 179.400821 182.808378 
L 197.112235 182.808378 
Q 198.112235 182.808378 198.112235 181.808378 
L 198.112235 172.952702 
Q 198.112235 171.952702 197.112235 171.952702 
L 179.400821 171.952702 
Q 178.400821 171.952702 178.400821 172.952702 
L 178.400821 181.808378 
Q 178.400821 182.808378 179.400821 182.808378 
z
" style="fill:#ffffff;opacity:0.6;stroke:#eeeeee;stroke-linejoin:miter;stroke-width:0.5;"/>
    </g>
    <!-- 0.22 -->
    <g transform="translate(179.400821 179.8712)scale(0.1 -0.1)">
     <use transform="scale(0.996264)" xlink:href="#CMSS17-48"/>
     <use transform="translate(46.843624 0)scale(0.996264)" xlink:href="#CMSS17-46"/>
     <use transform="translate(72.867828 0)scale(0.996264)" xlink:href="#CMSS17-50"/>
     <use transform="translate(119.711452 0)scale(0.996264)" xlink:href="#CMSS17-50"/>
    </g>
   </g>
   <g id="text_17">
    <g id="patch_29">
     <path d="M 268.680821 213.981498 
L 286.392235 213.981498 
Q 287.392235 213.981498 287.392235 212.981498 
L 287.392235 204.125822 
Q 287.392235 203.125822 286.392235 203.125822 
L 268.680821 203.125822 
Q 267.680821 203.125822 267.680821 204.125822 
L 267.680821 212.981498 
Q 267.680821 213.981498 268.680821 213.981498 
z
" style="fill:#ffffff;opacity:0.6;stroke:#eeeeee;stroke-linejoin:miter;stroke-width:0.5;"/>
    </g>
    <!-- 0.27 -->
    <g transform="translate(268.680821 211.04432)scale(0.1 -0.1)">
     <use transform="scale(0.996264)" xlink:href="#CMSS17-48"/>
     <use transform="translate(46.843624 0)scale(0.996264)" xlink:href="#CMSS17-46"/>
     <use transform="translate(72.867828 0)scale(0.996264)" xlink:href="#CMSS17-50"/>
     <use transform="translate(119.711452 0)scale(0.996264)" xlink:href="#CMSS17-55"/>
    </g>
   </g>
   <g id="text_18">
    <g id="patch_30">
     <path d="M 357.960821 177.739578 
L 375.672235 177.739578 
Q 376.672235 177.739578 376.672235 176.739578 
L 376.672235 167.883902 
Q 376.672235 166.883902 375.672235 166.883902 
L 357.960821 166.883902 
Q 356.960821 166.883902 356.960821 167.883902 
L 356.960821 176.739578 
Q 356.960821 177.739578 357.960821 177.739578 
z
" style="fill:#ffffff;opacity:0.6;stroke:#eeeeee;stroke-linejoin:miter;stroke-width:0.5;"/>
    </g>
    <!-- 0.21 -->
    <g transform="translate(357.960821 174.8024)scale(0.1 -0.1)">
     <use transform="scale(0.996264)" xlink:href="#CMSS17-48"/>
     <use transform="translate(46.843624 0)scale(0.996264)" xlink:href="#CMSS17-46"/>
     <use transform="translate(72.867828 0)scale(0.996264)" xlink:href="#CMSS17-50"/>
     <use transform="translate(119.711452 0)scale(0.996264)" xlink:href="#CMSS17-49"/>
    </g>
   </g>
   <g id="text_19">
    <g id="patch_31">
     <path d="M 90.120821 96.258618 
L 107.832235 96.258618 
Q 108.832235 96.258618 108.832235 95.258618 
L 108.832235 86.402942 
Q 108.832235 85.402942 107.832235 85.402942 
L 90.120821 85.402942 
Q 89.120821 85.402942 89.120821 86.402942 
L 89.120821 95.258618 
Q 89.120821 96.258618 90.120821 96.258618 
z
" style="fill:#ffffff;opacity:0.6;stroke:#eeeeee;stroke-linejoin:miter;stroke-width:0.5;"/>
    </g>
    <!-- 0.34 -->
    <defs>
     <path d="M 35.203125 17 
L 44.296875 17 
L 44.296875 23.078125 
L 35.203125 23.078125 
L 35.203125 65.5 
L 26.40625 65.5 
L 2.59375 23.078125 
L 2.59375 17 
L 27.296875 17 
L 27.296875 0 
L 35.203125 0 
z
M 10.296875 23.078125 
C 16.09375 33.234375 27.59375 53.734375 27.59375 60.703125 
L 27.59375 23.078125 
z
" id="CMSS17-52"/>
    </defs>
    <g transform="translate(90.120821 93.32144)scale(0.1 -0.1)">
     <use transform="scale(0.996264)" xlink:href="#CMSS17-48"/>
     <use transform="translate(46.843624 0)scale(0.996264)" xlink:href="#CMSS17-46"/>
     <use transform="translate(72.867828 0)scale(0.996264)" xlink:href="#CMSS17-51"/>
     <use transform="translate(119.711452 0)scale(0.996264)" xlink:href="#CMSS17-52"/>
    </g>
   </g>
   <g id="text_20">
    <g id="patch_32">
     <path d="M 179.400821 109.564218 
L 197.112235 109.564218 
Q 198.112235 109.564218 198.112235 108.564218 
L 198.112235 99.708542 
Q 198.112235 98.708542 197.112235 98.708542 
L 179.400821 98.708542 
Q 178.400821 98.708542 178.400821 99.708542 
L 178.400821 108.564218 
Q 178.400821 109.564218 179.400821 109.564218 
z
" style="fill:#ffffff;opacity:0.6;stroke:#eeeeee;stroke-linejoin:miter;stroke-width:0.5;"/>
    </g>
    <!-- 0.36 -->
    <g transform="translate(179.400821 106.62704)scale(0.1 -0.1)">
     <use transform="scale(0.996264)" xlink:href="#CMSS17-48"/>
     <use transform="translate(46.843624 0)scale(0.996264)" xlink:href="#CMSS17-46"/>
     <use transform="translate(72.867828 0)scale(0.996264)" xlink:href="#CMSS17-51"/>
     <use transform="translate(119.711452 0)scale(0.996264)" xlink:href="#CMSS17-54"/>
    </g>
   </g>
   <g id="text_21">
    <g id="patch_33">
     <path d="M 268.680821 122.362938 
L 286.392235 122.362938 
Q 287.392235 122.362938 287.392235 121.362938 
L 287.392235 112.507262 
Q 287.392235 111.507262 286.392235 111.507262 
L 268.680821 111.507262 
Q 267.680821 111.507262 267.680821 112.507262 
L 267.680821 121.362938 
Q 267.680821 122.362938 268.680821 122.362938 
z
" style="fill:#ffffff;opacity:0.6;stroke:#eeeeee;stroke-linejoin:miter;stroke-width:0.5;"/>
    </g>
    <!-- 0.45 -->
    <g transform="translate(268.680821 119.42576)scale(0.1 -0.1)">
     <use transform="scale(0.996264)" xlink:href="#CMSS17-48"/>
     <use transform="translate(46.843624 0)scale(0.996264)" xlink:href="#CMSS17-46"/>
     <use transform="translate(72.867828 0)scale(0.996264)" xlink:href="#CMSS17-52"/>
     <use transform="translate(119.711452 0)scale(0.996264)" xlink:href="#CMSS17-53"/>
    </g>
   </g>
   <g id="text_22">
    <g id="patch_34">
     <path d="M 357.960821 106.776378 
L 375.672235 106.776378 
Q 376.672235 106.776378 376.672235 105.776378 
L 376.672235 96.920702 
Q 376.672235 95.920702 375.672235 95.920702 
L 357.960821 95.920702 
Q 356.960821 95.920702 356.960821 96.920702 
L 356.960821 105.776378 
Q 356.960821 106.776378 357.960821 106.776378 
z
" style="fill:#ffffff;opacity:0.6;stroke:#eeeeee;stroke-linejoin:miter;stroke-width:0.5;"/>
    </g>
    <!-- 0.35 -->
    <g transform="translate(357.960821 103.8392)scale(0.1 -0.1)">
     <use transform="scale(0.996264)" xlink:href="#CMSS17-48"/>
     <use transform="translate(46.843624 0)scale(0.996264)" xlink:href="#CMSS17-46"/>
     <use transform="translate(72.867828 0)scale(0.996264)" xlink:href="#CMSS17-51"/>
     <use transform="translate(119.711452 0)scale(0.996264)" xlink:href="#CMSS17-53"/>
    </g>
   </g>
   <g id="text_23">
    <g id="patch_35">
     <path d="M 90.120821 39.994938 
L 107.832235 39.994938 
Q 108.832235 39.994938 108.832235 38.994938 
L 108.832235 30.139262 
Q 108.832235 29.139262 107.832235 29.139262 
L 90.120821 29.139262 
Q 89.120821 29.139262 89.120821 30.139262 
L 89.120821 38.994938 
Q 89.120821 39.994938 90.120821 39.994938 
z
" style="fill:#ffffff;opacity:0.6;stroke:#eeeeee;stroke-linejoin:miter;stroke-width:0.5;"/>
    </g>
    <!-- 0.11 -->
    <g transform="translate(90.120821 37.05776)scale(0.1 -0.1)">
     <use transform="scale(0.996264)" xlink:href="#CMSS17-48"/>
     <use transform="translate(46.843624 0)scale(0.996264)" xlink:href="#CMSS17-46"/>
     <use transform="translate(72.867828 0)scale(0.996264)" xlink:href="#CMSS17-49"/>
     <use transform="translate(119.711452 0)scale(0.996264)" xlink:href="#CMSS17-49"/>
    </g>
   </g>
   <g id="text_24">
    <g id="patch_36">
     <path d="M 179.400821 45.190458 
L 197.112235 45.190458 
Q 198.112235 45.190458 198.112235 44.190458 
L 198.112235 35.334782 
Q 198.112235 34.334782 197.112235 34.334782 
L 179.400821 34.334782 
Q 178.400821 34.334782 178.400821 35.334782 
L 178.400821 44.190458 
Q 178.400821 45.190458 179.400821 45.190458 
z
" style="fill:#ffffff;opacity:0.6;stroke:#eeeeee;stroke-linejoin:miter;stroke-width:0.5;"/>
    </g>
    <!-- 0.15 -->
    <g transform="translate(179.400821 42.25328)scale(0.1 -0.1)">
     <use transform="scale(0.996264)" xlink:href="#CMSS17-48"/>
     <use transform="translate(46.843624 0)scale(0.996264)" xlink:href="#CMSS17-46"/>
     <use transform="translate(72.867828 0)scale(0.996264)" xlink:href="#CMSS17-49"/>
     <use transform="translate(119.711452 0)scale(0.996264)" xlink:href="#CMSS17-53"/>
    </g>
   </g>
   <g id="text_25">
    <g id="patch_37">
     <path d="M 268.680821 45.570618 
L 286.392235 45.570618 
Q 287.392235 45.570618 287.392235 44.570618 
L 287.392235 35.714942 
Q 287.392235 34.714942 286.392235 34.714942 
L 268.680821 34.714942 
Q 267.680821 34.714942 267.680821 35.714942 
L 267.680821 44.570618 
Q 267.680821 45.570618 268.680821 45.570618 
z
" style="fill:#ffffff;opacity:0.6;stroke:#eeeeee;stroke-linejoin:miter;stroke-width:0.5;"/>
    </g>
    <!-- 0.15 -->
    <g transform="translate(268.680821 42.63344)scale(0.1 -0.1)">
     <use transform="scale(0.996264)" xlink:href="#CMSS17-48"/>
     <use transform="translate(46.843624 0)scale(0.996264)" xlink:href="#CMSS17-46"/>
     <use transform="translate(72.867828 0)scale(0.996264)" xlink:href="#CMSS17-49"/>
     <use transform="translate(119.711452 0)scale(0.996264)" xlink:href="#CMSS17-53"/>
    </g>
   </g>
   <g id="text_26">
    <g id="patch_38">
     <path d="M 357.960821 44.303418 
L 375.672235 44.303418 
Q 376.672235 44.303418 376.672235 43.303418 
L 376.672235 34.447742 
Q 376.672235 33.447742 375.672235 33.447742 
L 357.960821 33.447742 
Q 356.960821 33.447742 356.960821 34.447742 
L 356.960821 43.303418 
Q 356.960821 44.303418 357.960821 44.303418 
z
" style="fill:#ffffff;opacity:0.6;stroke:#eeeeee;stroke-linejoin:miter;stroke-width:0.5;"/>
    </g>
    <!-- 0.14 -->
    <g transform="translate(357.960821 41.36624)scale(0.1 -0.1)">
     <use transform="scale(0.996264)" xlink:href="#CMSS17-48"/>
     <use transform="translate(46.843624 0)scale(0.996264)" xlink:href="#CMSS17-46"/>
     <use transform="translate(72.867828 0)scale(0.996264)" xlink:href="#CMSS17-49"/>
     <use transform="translate(119.711452 0)scale(0.996264)" xlink:href="#CMSS17-52"/>
    </g>
   </g>
   <g id="legend_1">
    <g id="patch_39">
     <path d="M 9.2 322.108 
L 445.073056 322.108 
Q 447.073056 322.108 447.073056 320.108 
L 447.073056 307.170822 
Q 447.073056 305.170822 445.073056 305.170822 
L 9.2 305.170822 
Q 7.2 305.170822 7.2 307.170822 
L 7.2 320.108 
Q 7.2 322.108 9.2 322.108 
z
" style="fill:#e5e5e5;opacity:0.8;stroke:#cccccc;stroke-linejoin:miter;stroke-width:0.5;"/>
    </g>
    <g id="patch_40">
     <path d="M 11.2 316.170822 
L 31.2 316.170822 
L 31.2 309.170822 
L 11.2 309.170822 
z
" style="fill:#ff007a;"/>
    </g>
    <g id="text_27">
     <!-- Coarse solve -->
     <defs>
      <path d="M 54.703125 11.15625 
C 48 6.671875 44.90625 5.375 36.796875 5.375 
C 22.796875 5.375 14.59375 20.359375 14.59375 34.046875 
C 14.59375 48.625 23 63 37.203125 63 
C 43.59375 63 47.796875 61.21875 52.90625 58.046875 
L 54.296875 65.890625 
C 49.5 68.28125 43.40625 69.375 37.296875 69.375 
C 18.09375 69.375 6.203125 51.8125 6.203125 34.046875 
C 6.203125 14.484375 20.296875 -1 36.296875 -1 
C 44.90625 -1 47.90625 -0.296875 55.296875 4.375 
z
" id="CMSS17-67"/>
      <path d="M 37.59375 27.984375 
C 37.59375 37.375 30.90625 43.875 21.90625 43.875 
C 17.5 43.875 12.703125 43.078125 7.203125 39.890625 
L 7.796875 33.359375 
C 10.296875 35.125 14.59375 38 21.796875 38 
C 26.90625 38 30 34.0625 30 27.84375 
L 30 24 
C 14 24 4 19.34375 4 11.34375 
C 4 7.203125 6.5 -1 14.796875 -1 
C 16.296875 -1 24.40625 -1 30.203125 3.390625 
L 30.203125 -0.296875 
L 37.59375 -0.296875 
z
M 30 12.75 
C 30 10.953125 30 8.5625 27 6.78125 
C 24.40625 5.078125 21.09375 5.078125 19.703125 5.078125 
C 14.703125 5.078125 11.296875 7.984375 11.296875 11.625 
C 11.296875 18.921875 26.90625 18.921875 30 18.921875 
z
" id="CMSS17-97"/>
      <path d="M 14.796875 69 
L 7.40625 69 
L 7.40625 0 
L 14.796875 0 
z
" id="CMSS17-108"/>
      <path d="M 41.796875 43 
L 34 43 
L 27.296875 24.3125 
C 25.203125 18.203125 22.203125 9.796875 21.703125 5.5 
L 21.59375 5.5 
C 21.40625 7.3125 20.59375 9.90625 20.09375 11.703125 
C 19.5 13.90625 18.703125 16.5 18.09375 18.3125 
L 9.296875 43 
L 1.296875 43 
L 17.09375 0 
L 26 0 
z
" id="CMSS17-118"/>
     </defs>
     <g transform="translate(39.2 316.170822)scale(0.1 -0.1)">
      <use transform="scale(0.996264)" xlink:href="#CMSS17-67"/>
      <use transform="translate(59.855772 0)scale(0.996264)" xlink:href="#CMSS17-111"/>
      <use transform="translate(106.699395 0)scale(0.996264)" xlink:href="#CMSS17-97"/>
      <use transform="translate(149.018862 0)scale(0.996264)" xlink:href="#CMSS17-114"/>
      <use transform="translate(180.928634 0)scale(0.996264)" xlink:href="#CMSS17-115"/>
      <use transform="translate(216.842176 0)scale(0.996264)" xlink:href="#CMSS17-101"/>
      <use transform="translate(289.710111 0)scale(0.996264)" xlink:href="#CMSS17-115"/>
      <use transform="translate(325.623653 0)scale(0.996264)" xlink:href="#CMSS17-111"/>
      <use transform="translate(372.467277 0)scale(0.996264)" xlink:href="#CMSS17-108"/>
      <use transform="translate(394.648 0)scale(0.996264)" xlink:href="#CMSS17-118"/>
      <use transform="translate(437.648141 0)scale(0.996264)" xlink:href="#CMSS17-101"/>
     </g>
    </g>
    <g id="patch_41">
     <path d="M 110.230924 316.170822 
L 130.230924 316.170822 
L 130.230924 309.170822 
L 110.230924 309.170822 
z
" style="fill:#8280ff;"/>
    </g>
    <g id="text_28">
     <!-- Local assembly + solve -->
     <defs>
      <path d="M 26.09375 6.46875 
C 24.90625 6.46875 23.703125 6.46875 22.5 6.46875 
L 17.203125 6.46875 
L 17.203125 69 
L 8.796875 69 
L 8.796875 0 
L 46.90625 0 
L 46.90625 6.46875 
z
" id="CMSS17-76"/>
      <path d="M 67 29.328125 
C 67 36.0625 65.296875 44 54.09375 44 
C 46.59375 44 42.09375 39.3125 40.09375 36.421875 
C 38.296875 41.71875 34.09375 44 28.09375 44 
C 21.296875 44 17 40.125 14.703125 37.328125 
L 14.703125 43.09375 
L 7.40625 43.09375 
L 7.40625 0 
L 15 0 
L 15 24.359375 
C 15 30.296875 17.203125 37.9375 24.296875 37.9375 
C 33.40625 37.9375 33.40625 31.5 33.40625 28.578125 
L 33.40625 0 
L 41 0 
L 41 24.359375 
C 41 30.296875 43.203125 37.9375 50.296875 37.9375 
C 59.40625 37.9375 59.40625 31.5 59.40625 28.578125 
L 59.40625 0 
L 67 0 
z
" id="CMSS17-109"/>
      <path d="M 14.90625 69 
L 7.5 69 
L 7.5 -0.203125 
L 15.09375 -0.203125 
L 15.09375 4.28125 
C 18.90625 0.59375 23.5 -1 27.59375 -1 
C 37.203125 -1 45 8.578125 45 21.125 
C 45 32.59375 39 43.0625 30.09375 43.0625 
C 23.796875 43.0625 18.203125 40.484375 14.90625 37.796875 
z
M 15.09375 31.96875 
C 17.296875 34.71875 20.40625 37 24.796875 37 
C 30.703125 37 37.40625 32.765625 37.40625 21.125 
C 37.40625 8.71875 29.40625 5.078125 23.90625 5.078125 
C 21.90625 5.078125 19.796875 5.5625 17.796875 7.25 
C 15.09375 9.609375 15.09375 11.078125 15.09375 12.453125 
z
" id="CMSS17-98"/>
      <path d="M 41.796875 43 
L 34 43 
C 25.5 20.21875 22.59375 10.96875 22.40625 5.984375 
L 22.296875 5.984375 
C 22 10.875 17.59375 22.8125 14.09375 31.359375 
L 9.40625 43 
L 1.296875 43 
L 19 0.203125 
C 17.90625 -2.78125 16.296875 -7.265625 15.796875 -8.265625 
C 13.59375 -13.828125 12.09375 -13.828125 10.5 -13.828125 
C 10.09375 -13.828125 6.90625 -13.828125 3.296875 -12.640625 
L 3.90625 -19.203125 
C 6.40625 -19.703125 8.90625 -20 10.703125 -20 
C 13.203125 -20 18.203125 -20 22.796875 -7.765625 
z
" id="CMSS17-121"/>
      <path d="M 38.296875 23.515625 
L 64.703125 23.515625 
C 66.09375 23.515625 67.796875 23.515625 67.796875 25.203125 
C 67.796875 27 66.203125 27 64.703125 27 
L 38.296875 27 
L 38.296875 53.328125 
C 38.296875 54.71875 38.296875 56.421875 36.59375 56.421875 
C 34.796875 56.421875 34.796875 54.828125 34.796875 53.328125 
L 34.796875 27 
L 8.296875 27 
C 6.90625 27 5.203125 27 5.203125 25.3125 
C 5.203125 23.515625 6.796875 23.515625 8.296875 23.515625 
L 34.796875 23.515625 
L 34.796875 -2.90625 
C 34.796875 -4.296875 34.796875 -6 36.5 -6 
C 38.296875 -6 38.296875 -4.40625 38.296875 -2.90625 
z
" id="CMSS17-43"/>
     </defs>
     <g transform="translate(138.230924 316.170822)scale(0.1 -0.1)">
      <use transform="scale(0.996264)" xlink:href="#CMSS17-76"/>
      <use transform="translate(50.687105 0)scale(0.996264)" xlink:href="#CMSS17-111"/>
      <use transform="translate(100.133168 0)scale(0.996264)" xlink:href="#CMSS17-99"/>
      <use transform="translate(141.77199 0)scale(0.996264)" xlink:href="#CMSS17-97"/>
      <use transform="translate(186.69391 0)scale(0.996264)" xlink:href="#CMSS17-108"/>
      <use transform="translate(240.103746 0)scale(0.996264)" xlink:href="#CMSS17-97"/>
      <use transform="translate(285.025667 0)scale(0.996264)" xlink:href="#CMSS17-115"/>
      <use transform="translate(320.939209 0)scale(0.996264)" xlink:href="#CMSS17-115"/>
      <use transform="translate(356.852751 0)scale(0.996264)" xlink:href="#CMSS17-101"/>
      <use transform="translate(398.491573 0)scale(0.996264)" xlink:href="#CMSS17-109"/>
      <use transform="translate(472.720827 0)scale(0.996264)" xlink:href="#CMSS17-98"/>
      <use transform="translate(520.92577 0)scale(0.996264)" xlink:href="#CMSS17-108"/>
      <use transform="translate(543.106493 0)scale(0.996264)" xlink:href="#CMSS17-121"/>
      <use transform="translate(617.335748 0)scale(0.996264)" xlink:href="#CMSS17-43"/>
      <use transform="translate(721.432795 0)scale(0.996264)" xlink:href="#CMSS17-115"/>
      <use transform="translate(757.346337 0)scale(0.996264)" xlink:href="#CMSS17-111"/>
      <use transform="translate(804.189961 0)scale(0.996264)" xlink:href="#CMSS17-108"/>
      <use transform="translate(826.370684 0)scale(0.996264)" xlink:href="#CMSS17-118"/>
      <use transform="translate(869.370826 0)scale(0.996264)" xlink:href="#CMSS17-101"/>
     </g>
    </g>
    <g id="patch_42">
     <path d="M 255.28377 316.170822 
L 275.28377 316.170822 
L 275.28377 309.170822 
L 255.28377 309.170822 
z
" style="fill:#008042;"/>
    </g>
    <g id="text_29">
     <!-- Coarse assembly -->
     <g transform="translate(283.28377 316.170822)scale(0.1 -0.1)">
      <use transform="scale(0.996264)" xlink:href="#CMSS17-67"/>
      <use transform="translate(59.855772 0)scale(0.996264)" xlink:href="#CMSS17-111"/>
      <use transform="translate(106.699395 0)scale(0.996264)" xlink:href="#CMSS17-97"/>
      <use transform="translate(149.018862 0)scale(0.996264)" xlink:href="#CMSS17-114"/>
      <use transform="translate(180.928634 0)scale(0.996264)" xlink:href="#CMSS17-115"/>
      <use transform="translate(216.842176 0)scale(0.996264)" xlink:href="#CMSS17-101"/>
      <use transform="translate(289.710111 0)scale(0.996264)" xlink:href="#CMSS17-97"/>
      <use transform="translate(334.632032 0)scale(0.996264)" xlink:href="#CMSS17-115"/>
      <use transform="translate(370.545574 0)scale(0.996264)" xlink:href="#CMSS17-115"/>
      <use transform="translate(406.459116 0)scale(0.996264)" xlink:href="#CMSS17-101"/>
      <use transform="translate(448.097938 0)scale(0.996264)" xlink:href="#CMSS17-109"/>
      <use transform="translate(522.327192 0)scale(0.996264)" xlink:href="#CMSS17-98"/>
      <use transform="translate(570.532135 0)scale(0.996264)" xlink:href="#CMSS17-108"/>
      <use transform="translate(592.712858 0)scale(0.996264)" xlink:href="#CMSS17-121"/>
     </g>
    </g>
    <g id="patch_43">
     <path d="M 371.002131 316.170822 
L 391.002131 316.170822 
L 391.002131 309.170822 
L 371.002131 309.170822 
z
" style="fill:#620080;"/>
    </g>
    <g id="text_30">
     <!-- Remainder -->
     <defs>
      <path d="M 39.40625 32.953125 
L 39.59375 33.046875 
C 55.203125 38.421875 55.296875 49.171875 55.296875 51.0625 
C 55.296875 60.515625 45.703125 69.578125 31.296875 69.578125 
L 8.90625 69.578125 
L 8.90625 0.5 
L 17.09375 0.5 
L 17.09375 32 
L 31.796875 32 
L 49.5 0.5 
L 57.90625 0.5 
z
M 17.09375 38.078125 
L 17.09375 64 
L 30.203125 64 
C 42.90625 64 47.40625 56.828125 47.40625 51.046875 
C 47.40625 45.65625 43.40625 38.078125 30.203125 38.078125 
z
" id="CMSS17-82"/>
      <path d="M 15.296875 65.359375 
L 6.90625 65.359375 
L 6.90625 57 
L 15.296875 57 
z
M 14.796875 42.796875 
L 7.40625 42.796875 
L 7.40625 0 
L 14.796875 0 
z
" id="CMSS17-105"/>
      <path d="M 40.90625 29.328125 
C 40.90625 35.671875 39.40625 44 28.09375 44 
C 21.703125 44 17.5 40.71875 14.703125 37.328125 
L 14.703125 43.09375 
L 7.40625 43.09375 
L 7.40625 0 
L 15 0 
L 15 24.359375 
C 15 30.6875 17.40625 37.9375 24.203125 37.9375 
C 33 37.9375 33.296875 32 33.296875 28.578125 
L 33.296875 0 
L 40.90625 0 
z
" id="CMSS17-110"/>
      <path d="M 40.796875 69 
L 33.40625 69 
L 33.40625 38.09375 
C 30.296875 40.671875 25.203125 43.0625 19.59375 43.0625 
C 10.5 43.0625 3.296875 33.296875 3.296875 21.046875 
C 3.296875 8.78125 10.40625 -1 19.296875 -1 
C 26.203125 -1 30.796875 2.6875 33.203125 4.78125 
L 33.203125 -0.203125 
L 40.796875 -0.203125 
z
M 33.203125 13.0625 
C 33.203125 11.671875 33.203125 10.203125 30.09375 7.53125 
C 28.09375 5.859375 25.703125 5.078125 23.40625 5.078125 
C 18 5.078125 10.90625 9 10.90625 20.9375 
C 10.90625 33.34375 18.90625 37 24.40625 37 
C 28.09375 37 31.09375 35.21875 33.203125 32.265625 
z
" id="CMSS17-100"/>
     </defs>
     <g transform="translate(399.002131 316.170822)scale(0.1 -0.1)">
      <use transform="scale(0.996264)" xlink:href="#CMSS17-82"/>
      <use transform="translate(60.416155 0)scale(0.996264)" xlink:href="#CMSS17-101"/>
      <use transform="translate(102.054977 0)scale(0.996264)" xlink:href="#CMSS17-109"/>
      <use transform="translate(176.284231 0)scale(0.996264)" xlink:href="#CMSS17-97"/>
      <use transform="translate(221.206152 0)scale(0.996264)" xlink:href="#CMSS17-105"/>
      <use transform="translate(243.386875 0)scale(0.996264)" xlink:href="#CMSS17-110"/>
      <use transform="translate(291.591818 0)scale(0.996264)" xlink:href="#CMSS17-100"/>
      <use transform="translate(339.796761 0)scale(0.996264)" xlink:href="#CMSS17-101"/>
      <use transform="translate(381.435583 0)scale(0.996264)" xlink:href="#CMSS17-114"/>
     </g>
    </g>
   </g>
  </g>
 </g>
 <defs>
  <clipPath id="pe524e1c520">
   <rect height="266.112" width="357.12" x="54.336528" y="10.7"/>
  </clipPath>
 </defs>
</svg>
