<?xml version="1.0" encoding="utf-8" standalone="no"?>
<!DOCTYPE svg PUBLIC "-//W3C//DTD SVG 1.1//EN"
  "http://www.w3.org/Graphics/SVG/1.1/DTD/svg11.dtd">
<!-- Created with matplotlib (http://matplotlib.org/) -->
<svg height="345pt" version="1.1" viewBox="0 0 460 345" width="460pt" xmlns="http://www.w3.org/2000/svg" xmlns:xlink="http://www.w3.org/1999/xlink">
 <defs>
  <style type="text/css">
*{stroke-linecap:butt;stroke-linejoin:round;}
  </style>
 </defs>
 <g id="figure_1">
  <g id="patch_1">
   <path d="M 0 345.6 
L 460.8 345.6 
L 460.8 0 
L 0 0 
z
" style="fill:#ffffff;"/>
  </g>
  <g id="axes_1">
   <g id="patch_2">
    <path d="M 57.6 307.584 
L 414.72 307.584 
L 414.72 41.472 
L 57.6 41.472 
z
" style="fill:#e6e6e6;"/>
   </g>
   <g id="matplotlib.axis_1">
    <g id="xtick_1">
     <g id="line2d_1">
      <path clip-path="url(#p5178e57234)" d="M 92.645491 307.584 
L 92.645491 41.472 
" style="fill:none;stroke:#ffffff;stroke-linecap:square;stroke-width:0.8;"/>
     </g>
     <g id="line2d_2">
      <defs>
       <path d="M 0 0 
L 0 3.5 
" id="m51ef29e143" style="stroke:#555555;stroke-width:0.8;"/>
      </defs>
      <g>
       <use style="fill:#555555;stroke:#555555;stroke-width:0.8;" x="92.645491" xlink:href="#m51ef29e143" y="307.584"/>
      </g>
     </g>
     <g id="text_1">
      <!-- $20000$ -->
      <defs>
       <path d="M 41.703125 15.453125 
L 39.90625 15.453125 
C 38.90625 8.375 38.09375 7.171875 37.703125 6.5625 
C 37.203125 5.765625 30 5.765625 28.59375 5.765625 
L 9.40625 5.765625 
C 13 9.671875 20 16.75 28.5 24.953125 
C 34.59375 30.734375 41.703125 37.53125 41.703125 47.421875 
C 41.703125 59.21875 32.296875 66 21.796875 66 
C 10.796875 66 4.09375 56.3125 4.09375 47.34375 
C 4.09375 43.4375 7 42.9375 8.203125 42.9375 
C 9.203125 42.9375 12.203125 43.546875 12.203125 47.03125 
C 12.203125 50.109375 9.59375 51 8.203125 51 
C 7.59375 51 7 50.90625 6.59375 50.703125 
C 8.5 59.21875 14.296875 63.40625 20.40625 63.40625 
C 29.09375 63.40625 34.796875 56.515625 34.796875 47.421875 
C 34.796875 38.734375 29.703125 31.25 24 24.75 
L 4.09375 2.28125 
L 4.09375 0 
L 39.296875 0 
z
" id="CMR17-50"/>
       <path d="M 42 31.640625 
C 42 37.75 41.90625 48.125 37.703125 56.109375 
C 34 63.109375 28.09375 65.59375 22.90625 65.59375 
C 18.09375 65.59375 12 63.40625 8.203125 56.203125 
C 4.203125 48.71875 3.796875 39.4375 3.796875 31.640625 
C 3.796875 25.953125 3.90625 17.28125 7 9.671875 
C 11.296875 -0.609375 19 -2 22.90625 -2 
C 27.5 -2 34.5 -0.109375 38.59375 9.375 
C 41.59375 16.28125 42 24.359375 42 31.640625 
M 22.90625 -0.40625 
C 16.5 -0.40625 12.703125 5.078125 11.296875 12.6875 
C 10.203125 18.5625 10.203125 27.15625 10.203125 32.75 
C 10.203125 40.4375 10.203125 46.828125 11.5 52.921875 
C 13.40625 61.390625 19 64 22.90625 64 
C 27 64 32.296875 61.296875 34.203125 53.125 
C 35.5 47.4375 35.59375 40.734375 35.59375 32.75 
C 35.59375 26.25 35.59375 18.265625 34.40625 12.375 
C 32.296875 1.484375 26.40625 -0.40625 22.90625 -0.40625 
" id="CMR17-48"/>
      </defs>
      <g style="fill:#555555;" transform="translate(80.192153 321.502498)scale(0.1 -0.1)">
       <use transform="scale(0.996264)" xlink:href="#CMR17-50"/>
       <use transform="translate(45.690477 0)scale(0.996264)" xlink:href="#CMR17-48"/>
       <use transform="translate(91.380954 0)scale(0.996264)" xlink:href="#CMR17-48"/>
       <use transform="translate(137.071431 0)scale(0.996264)" xlink:href="#CMR17-48"/>
       <use transform="translate(182.761908 0)scale(0.996264)" xlink:href="#CMR17-48"/>
      </g>
     </g>
    </g>
    <g id="xtick_2">
     <g id="line2d_3">
      <path clip-path="url(#p5178e57234)" d="M 135.646093 307.584 
L 135.646093 41.472 
" style="fill:none;stroke:#ffffff;stroke-linecap:square;stroke-width:0.8;"/>
     </g>
     <g id="line2d_4">
      <g>
       <use style="fill:#555555;stroke:#555555;stroke-width:0.8;" x="135.646093" xlink:href="#m51ef29e143" y="307.584"/>
      </g>
     </g>
     <g id="text_2">
      <!-- $30000$ -->
      <defs>
       <path d="M 22.09375 33.703125 
C 31 33.703125 34.90625 25.96875 34.90625 17.03125 
C 34.90625 5 28.5 0.390625 22.703125 0.390625 
C 17.40625 0.390625 8.796875 3.03125 6.09375 10.828125 
C 6.59375 10.625 7.09375 10.625 7.59375 10.625 
C 10 10.625 11.796875 12.21875 11.796875 14.8125 
C 11.796875 17.703125 9.59375 19 7.59375 19 
C 5.90625 19 3.296875 18.203125 3.296875 14.46875 
C 3.296875 5.234375 12.296875 -2 22.90625 -2 
C 34 -2 42.5 6.71875 42.5 16.953125 
C 42.5 26.671875 34.5 33.703125 25 34.796875 
C 32.59375 36.375 39.90625 43.0625 39.90625 52.015625 
C 39.90625 59.6875 32 65.296875 23 65.296875 
C 13.90625 65.296875 5.90625 59.828125 5.90625 52.015625 
C 5.90625 48.59375 8.5 48 9.796875 48 
C 11.90625 48 13.703125 49.296875 13.703125 51.890625 
C 13.703125 54.46875 11.90625 55.765625 9.796875 55.765625 
C 9.40625 55.765625 8.90625 55.765625 8.5 55.578125 
C 11.40625 61.859375 19.296875 63 22.796875 63 
C 26.296875 63 32.90625 61.328125 32.90625 51.875 
C 32.90625 49.109375 32.5 44.1875 29.09375 39.84375 
C 26.09375 36 22.703125 36 19.40625 35.6875 
C 18.90625 35.6875 16.59375 35.453125 16.203125 35.453125 
C 15.5 35.359375 15.09375 35.265625 15.09375 34.5 
C 15.09375 33.796875 15.203125 33.703125 17.203125 33.703125 
z
" id="CMR17-51"/>
      </defs>
      <g style="fill:#555555;" transform="translate(123.192755 321.502498)scale(0.1 -0.1)">
       <use transform="scale(0.996264)" xlink:href="#CMR17-51"/>
       <use transform="translate(45.690477 0)scale(0.996264)" xlink:href="#CMR17-48"/>
       <use transform="translate(91.380954 0)scale(0.996264)" xlink:href="#CMR17-48"/>
       <use transform="translate(137.071431 0)scale(0.996264)" xlink:href="#CMR17-48"/>
       <use transform="translate(182.761908 0)scale(0.996264)" xlink:href="#CMR17-48"/>
      </g>
     </g>
    </g>
    <g id="xtick_3">
     <g id="line2d_5">
      <path clip-path="url(#p5178e57234)" d="M 178.646695 307.584 
L 178.646695 41.472 
" style="fill:none;stroke:#ffffff;stroke-linecap:square;stroke-width:0.8;"/>
     </g>
     <g id="line2d_6">
      <g>
       <use style="fill:#555555;stroke:#555555;stroke-width:0.8;" x="178.646695" xlink:href="#m51ef29e143" y="307.584"/>
      </g>
     </g>
     <g id="text_3">
      <!-- $40000$ -->
      <defs>
       <path d="M 33.59375 64.40625 
C 33.59375 66.5 33.5 66.5 31.703125 66.5 
L 2 19.59375 
L 2 17 
L 27.796875 17 
L 27.796875 7.140625 
C 27.796875 3.5 27.59375 2.5 20.59375 2.5 
L 18.703125 2.5 
L 18.703125 0 
C 21.90625 0 27.296875 0 30.703125 0 
C 34.09375 0 39.5 0 42.703125 0 
L 42.703125 2.5 
L 40.796875 2.5 
C 33.796875 2.5 33.59375 3.5 33.59375 7.140625 
L 33.59375 17 
L 43.796875 17 
L 43.796875 19.59375 
L 33.59375 19.59375 
z
M 28.09375 57.859375 
L 28.09375 19.59375 
L 4 19.59375 
z
" id="CMR17-52"/>
      </defs>
      <g style="fill:#555555;" transform="translate(166.193357 321.502498)scale(0.1 -0.1)">
       <use transform="scale(0.996264)" xlink:href="#CMR17-52"/>
       <use transform="translate(45.690477 0)scale(0.996264)" xlink:href="#CMR17-48"/>
       <use transform="translate(91.380954 0)scale(0.996264)" xlink:href="#CMR17-48"/>
       <use transform="translate(137.071431 0)scale(0.996264)" xlink:href="#CMR17-48"/>
       <use transform="translate(182.761908 0)scale(0.996264)" xlink:href="#CMR17-48"/>
      </g>
     </g>
    </g>
    <g id="xtick_4">
     <g id="line2d_7">
      <path clip-path="url(#p5178e57234)" d="M 221.647297 307.584 
L 221.647297 41.472 
" style="fill:none;stroke:#ffffff;stroke-linecap:square;stroke-width:0.8;"/>
     </g>
     <g id="line2d_8">
      <g>
       <use style="fill:#555555;stroke:#555555;stroke-width:0.8;" x="221.647297" xlink:href="#m51ef29e143" y="307.584"/>
      </g>
     </g>
     <g id="text_4">
      <!-- $50000$ -->
      <defs>
       <path d="M 11.40625 57.6875 
C 12.40625 57.28125 16.5 56 20.703125 56 
C 30 56 35.09375 61.109375 38 64.0625 
C 38 64.953125 38 65.5 37.40625 65.5 
C 37.296875 65.5 37.09375 65.5 36.296875 65.046875 
C 32.796875 63.40625 28.703125 62.078125 23.703125 62.078125 
C 20.703125 62.078125 16.203125 62.484375 11.296875 64.671875 
C 10.203125 65.171875 10 65.171875 9.90625 65.171875 
C 9.40625 65.171875 9.296875 65.0625 9.296875 63.078125 
L 9.296875 34.421875 
C 9.296875 32.640625 9.296875 32.140625 10.296875 32.140625 
C 10.796875 32.140625 11 32.34375 11.5 33.03125 
C 14.703125 37.515625 19.09375 39.40625 24.09375 39.40625 
C 27.59375 39.40625 35.09375 37.21875 35.09375 20.140625 
C 35.09375 16.953125 35.09375 11.171875 32.09375 6.578125 
C 29.59375 2.484375 25.703125 0.390625 21.40625 0.390625 
C 14.796875 0.390625 8.09375 5 6.296875 12.71875 
C 6.703125 12.609375 7.5 12.421875 7.90625 12.421875 
C 9.203125 12.421875 11.703125 13.125 11.703125 16.21875 
C 11.703125 18.90625 9.796875 20 7.90625 20 
C 5.59375 20 4.09375 18.59375 4.09375 15.796875 
C 4.09375 7.09375 11 -2 21.59375 -2 
C 31.90625 -2 41.703125 6.875 41.703125 19.75 
C 41.703125 31.71875 33.90625 41 24.203125 41 
C 19.09375 41 14.796875 39.109375 11.40625 35.53125 
z
" id="CMR17-53"/>
      </defs>
      <g style="fill:#555555;" transform="translate(209.193959 321.502498)scale(0.1 -0.1)">
       <use transform="scale(0.996264)" xlink:href="#CMR17-53"/>
       <use transform="translate(45.690477 0)scale(0.996264)" xlink:href="#CMR17-48"/>
       <use transform="translate(91.380954 0)scale(0.996264)" xlink:href="#CMR17-48"/>
       <use transform="translate(137.071431 0)scale(0.996264)" xlink:href="#CMR17-48"/>
       <use transform="translate(182.761908 0)scale(0.996264)" xlink:href="#CMR17-48"/>
      </g>
     </g>
    </g>
    <g id="xtick_5">
     <g id="line2d_9">
      <path clip-path="url(#p5178e57234)" d="M 264.647899 307.584 
L 264.647899 41.472 
" style="fill:none;stroke:#ffffff;stroke-linecap:square;stroke-width:0.8;"/>
     </g>
     <g id="line2d_10">
      <g>
       <use style="fill:#555555;stroke:#555555;stroke-width:0.8;" x="264.647899" xlink:href="#m51ef29e143" y="307.584"/>
      </g>
     </g>
     <g id="text_5">
      <!-- $60000$ -->
      <defs>
       <path d="M 10.59375 34 
C 10.59375 57.65625 21.796875 63 28.296875 63 
C 30.40625 63 35.5 62.640625 37.5 59 
C 35.90625 59 32.90625 59 32.90625 55.515625 
C 32.90625 52.828125 35.09375 51.921875 36.5 51.921875 
C 37.40625 51.921875 40.09375 52.3125 40.09375 55.625 
C 40.09375 61.78125 35.09375 65.296875 28.203125 65.296875 
C 16.296875 65.296875 3.796875 52.96875 3.796875 31 
C 3.796875 3.953125 15.09375 -2 23.09375 -2 
C 32.796875 -2 42 6.671875 42 20.046875 
C 42 32.515625 33.90625 41.59375 23.703125 41.59375 
C 17.59375 41.59375 13.09375 37.609375 10.59375 30.625 
z
M 23.09375 0.390625 
C 10.796875 0.390625 10.796875 18.75 10.796875 22.4375 
C 10.796875 29.625 14.203125 40 23.5 40 
C 25.203125 40 30.09375 40 33.40625 33.125 
C 35.203125 29.21875 35.203125 25.140625 35.203125 20.140625 
C 35.203125 14.75 35.203125 10.78125 33.09375 6.78125 
C 30.90625 2.671875 27.703125 0.390625 23.09375 0.390625 
" id="CMR17-54"/>
      </defs>
      <g style="fill:#555555;" transform="translate(252.194561 321.502498)scale(0.1 -0.1)">
       <use transform="scale(0.996264)" xlink:href="#CMR17-54"/>
       <use transform="translate(45.690477 0)scale(0.996264)" xlink:href="#CMR17-48"/>
       <use transform="translate(91.380954 0)scale(0.996264)" xlink:href="#CMR17-48"/>
       <use transform="translate(137.071431 0)scale(0.996264)" xlink:href="#CMR17-48"/>
       <use transform="translate(182.761908 0)scale(0.996264)" xlink:href="#CMR17-48"/>
      </g>
     </g>
    </g>
    <g id="xtick_6">
     <g id="line2d_11">
      <path clip-path="url(#p5178e57234)" d="M 307.648501 307.584 
L 307.648501 41.472 
" style="fill:none;stroke:#ffffff;stroke-linecap:square;stroke-width:0.8;"/>
     </g>
     <g id="line2d_12">
      <g>
       <use style="fill:#555555;stroke:#555555;stroke-width:0.8;" x="307.648501" xlink:href="#m51ef29e143" y="307.584"/>
      </g>
     </g>
     <g id="text_6">
      <!-- $70000$ -->
      <defs>
       <path d="M 45.09375 61.578125 
L 45.09375 63.765625 
L 21.59375 63.765625 
C 9.90625 63.765625 9.703125 65.078125 9.296875 67 
L 7.5 67 
L 4.59375 48.34375 
L 6.40625 48.34375 
C 6.703125 50.234375 7.40625 55.3125 8.59375 57.203125 
C 9.203125 58 16.59375 58 18.296875 58 
L 40.296875 58 
L 29.203125 41.578125 
C 21.796875 30.53125 16.703125 15.609375 16.703125 2.578125 
C 16.703125 1.390625 16.703125 -2 20.296875 -2 
C 23.90625 -2 23.90625 1.390625 23.90625 2.671875 
L 23.90625 7.265625 
C 23.90625 23.5625 26.703125 34.3125 31.296875 41.1875 
z
" id="CMR17-55"/>
      </defs>
      <g style="fill:#555555;" transform="translate(295.195163 321.502498)scale(0.1 -0.1)">
       <use transform="scale(0.996264)" xlink:href="#CMR17-55"/>
       <use transform="translate(45.690477 0)scale(0.996264)" xlink:href="#CMR17-48"/>
       <use transform="translate(91.380954 0)scale(0.996264)" xlink:href="#CMR17-48"/>
       <use transform="translate(137.071431 0)scale(0.996264)" xlink:href="#CMR17-48"/>
       <use transform="translate(182.761908 0)scale(0.996264)" xlink:href="#CMR17-48"/>
      </g>
     </g>
    </g>
    <g id="xtick_7">
     <g id="line2d_13">
      <path clip-path="url(#p5178e57234)" d="M 350.649103 307.584 
L 350.649103 41.472 
" style="fill:none;stroke:#ffffff;stroke-linecap:square;stroke-width:0.8;"/>
     </g>
     <g id="line2d_14">
      <g>
       <use style="fill:#555555;stroke:#555555;stroke-width:0.8;" x="350.649103" xlink:href="#m51ef29e143" y="307.584"/>
      </g>
     </g>
     <g id="text_7">
      <!-- $80000$ -->
      <defs>
       <path d="M 27.203125 35.375 
C 33.5 38.546875 39.90625 43.328125 39.90625 50.984375 
C 39.90625 60.015625 31.09375 65.296875 23 65.296875 
C 13.90625 65.296875 5.90625 58.734375 5.90625 49.6875 
C 5.90625 47.203125 6.5 42.921875 10.40625 39.140625 
C 11.40625 38.15625 15.59375 35.171875 18.296875 33.28125 
C 13.796875 30.984375 3.296875 25.53125 3.296875 14.59375 
C 3.296875 4.359375 13.09375 -2 22.796875 -2 
C 33.5 -2 42.5 5.65625 42.5 15.78125 
C 42.5 24.84375 36.40625 29.015625 32.40625 31.703125 
z
M 14.09375 44.09375 
C 13.296875 44.59375 9.296875 47.671875 9.296875 52.359375 
C 9.296875 58.421875 15.59375 63 22.796875 63 
C 30.703125 63 36.5 57.4375 36.5 50.96875 
C 36.5 41.703125 26.09375 36.421875 25.59375 36.421875 
C 25.5 36.421875 25.40625 36.421875 24.59375 37.03125 
z
M 32.5 23.734375 
C 34 22.640625 38.796875 19.375 38.796875 13.296875 
C 38.796875 5.953125 31.40625 0.390625 23 0.390625 
C 13.90625 0.390625 7 6.84375 7 14.6875 
C 7 22.546875 13.09375 29.09375 20 32.1875 
z
" id="CMR17-56"/>
      </defs>
      <g style="fill:#555555;" transform="translate(338.195765 321.502498)scale(0.1 -0.1)">
       <use transform="scale(0.996264)" xlink:href="#CMR17-56"/>
       <use transform="translate(45.690477 0)scale(0.996264)" xlink:href="#CMR17-48"/>
       <use transform="translate(91.380954 0)scale(0.996264)" xlink:href="#CMR17-48"/>
       <use transform="translate(137.071431 0)scale(0.996264)" xlink:href="#CMR17-48"/>
       <use transform="translate(182.761908 0)scale(0.996264)" xlink:href="#CMR17-48"/>
      </g>
     </g>
    </g>
    <g id="xtick_8">
     <g id="line2d_15">
      <path clip-path="url(#p5178e57234)" d="M 393.649705 307.584 
L 393.649705 41.472 
" style="fill:none;stroke:#ffffff;stroke-linecap:square;stroke-width:0.8;"/>
     </g>
     <g id="line2d_16">
      <g>
       <use style="fill:#555555;stroke:#555555;stroke-width:0.8;" x="393.649705" xlink:href="#m51ef29e143" y="307.584"/>
      </g>
     </g>
     <g id="text_8">
      <!-- $90000$ -->
      <defs>
       <path d="M 35.203125 29.125 
C 35.203125 7.25 26.09375 0.484375 18.59375 0.484375 
C 16.296875 0.484375 10.703125 0.484375 8.40625 4.59375 
C 11 4.1875 12.90625 5.578125 12.90625 8.09375 
C 12.90625 10.8125 10.703125 11.703125 9.296875 11.703125 
C 8.40625 11.703125 5.703125 11.296875 5.703125 7.90625 
C 5.703125 1.109375 11.59375 -2 18.796875 -2 
C 30.296875 -2 42 10.53125 42 32.390625 
C 42 59.640625 30.796875 65.296875 23.203125 65.296875 
C 13.296875 65.296875 3.796875 56.6875 3.796875 43.40625 
C 3.796875 31.109375 11.90625 22 22.09375 22 
C 30.5 22 34.203125 29.734375 35.203125 33 
z
M 22.296875 23.59375 
C 19.59375 23.59375 15.796875 24.09375 12.703125 30.03125 
C 10.59375 33.890625 10.59375 38.453125 10.59375 43.296875 
C 10.59375 49.15625 10.59375 53.203125 13.40625 57.5625 
C 14.796875 59.640625 17.40625 63 23.203125 63 
C 35 63 35 45.078125 35 41.125 
C 35 34.09375 31.796875 23.59375 22.296875 23.59375 
" id="CMR17-57"/>
      </defs>
      <g style="fill:#555555;" transform="translate(381.196367 321.502498)scale(0.1 -0.1)">
       <use transform="scale(0.996264)" xlink:href="#CMR17-57"/>
       <use transform="translate(45.690477 0)scale(0.996264)" xlink:href="#CMR17-48"/>
       <use transform="translate(91.380954 0)scale(0.996264)" xlink:href="#CMR17-48"/>
       <use transform="translate(137.071431 0)scale(0.996264)" xlink:href="#CMR17-48"/>
       <use transform="translate(182.761908 0)scale(0.996264)" xlink:href="#CMR17-48"/>
      </g>
     </g>
    </g>
    <g id="text_9">
     <!-- \# Macro Cells -->
     <defs>
      <path d="M 49.09375 14 
L 69.703125 14 
C 71.40625 14 73.09375 14 73.09375 15.796875 
C 73.09375 17.484375 71.59375 17.484375 70.09375 17.484375 
L 50.09375 17.484375 
L 53.5 31.515625 
L 70.09375 31.515625 
C 71.59375 31.515625 73.09375 31.515625 73.09375 33.203125 
C 73.09375 35 71.40625 35 69.703125 35 
L 54.5 35 
L 62.203125 65.375 
C 62.5 66.375 62.59375 66.875 62.59375 67.1875 
C 62.59375 68.1875 61.796875 69 60.796875 69 
C 59.40625 69 59.09375 67.59375 58.90625 66.796875 
L 50.90625 35 
L 32.796875 35 
L 40.5 65.375 
C 40.796875 66.375 40.90625 66.875 40.90625 67.1875 
C 40.90625 68.1875 40.09375 69 39.09375 69 
C 37.703125 69 37.40625 67.59375 37.203125 66.796875 
L 29.203125 35 
L 8.59375 35 
C 6.90625 35 5.203125 35 5.203125 33.203125 
C 5.203125 31.515625 6.703125 31.515625 8.203125 31.515625 
L 28.203125 31.515625 
L 24.796875 17.484375 
L 8.203125 17.484375 
C 6.703125 17.484375 5.203125 17.484375 5.203125 15.796875 
C 5.203125 14 6.90625 14 8.59375 14 
L 23.796875 14 
L 16.09375 -15.9375 
C 15.796875 -16.921875 15.703125 -17.40625 15.703125 -17.71875 
C 15.703125 -18.703125 16.5 -19.5 17.5 -19.5 
C 18.90625 -19.5 19.203125 -18.109375 19.40625 -17.328125 
L 27.40625 14 
L 45.5 14 
L 37.796875 -15.9375 
C 37.5 -16.921875 37.40625 -17.40625 37.40625 -17.71875 
C 37.40625 -18.703125 38.203125 -19.5 39.203125 -19.5 
C 40.59375 -19.5 40.90625 -18.109375 41.09375 -17.328125 
z
M 28.40625 17.484375 
L 31.796875 31.515625 
L 49.90625 31.515625 
L 46.5 17.484375 
z
" id="CMSS17-35"/>
      <path d="M 49.90625 37.046875 
L 45.09375 23.015625 
C 44.296875 20.421875 41.59375 12.359375 41 9.171875 
L 40.90625 9.171875 
C 40.59375 11.171875 40 13.265625 38.40625 18.34375 
C 37.5 21.328125 36.5 24.40625 35.5 27.203125 
L 20.703125 69 
L 9 69 
L 9 0 
L 16.796875 0 
L 16.796875 60.9375 
L 16.90625 60.9375 
C 16.90625 60.84375 17.796875 56.453125 23.90625 39.046875 
L 37.09375 1.5 
L 44.5 1.5 
L 56.40625 34.859375 
C 57.203125 37.15625 59.703125 44.421875 60.796875 47.90625 
C 61.796875 50.890625 64.296875 58.25 64.90625 61.140625 
L 65 61.140625 
L 65 0 
L 72.90625 0 
L 72.90625 69 
L 61.296875 69 
z
" id="CMSS17-77"/>
      <path d="M 37.59375 27.984375 
C 37.59375 37.375 30.90625 43.875 21.90625 43.875 
C 17.5 43.875 12.703125 43.078125 7.203125 39.890625 
L 7.796875 33.359375 
C 10.296875 35.125 14.59375 38 21.796875 38 
C 26.90625 38 30 34.0625 30 27.84375 
L 30 24 
C 14 24 4 19.34375 4 11.34375 
C 4 7.203125 6.5 -1 14.796875 -1 
C 16.296875 -1 24.40625 -1 30.203125 3.390625 
L 30.203125 -0.296875 
L 37.59375 -0.296875 
z
M 30 12.75 
C 30 10.953125 30 8.5625 27 6.78125 
C 24.40625 5.078125 21.09375 5.078125 19.703125 5.078125 
C 14.703125 5.078125 11.296875 7.984375 11.296875 11.625 
C 11.296875 18.921875 26.90625 18.921875 30 18.921875 
z
" id="CMSS17-97"/>
      <path d="M 38.5 39.703125 
C 38.5 40.390625 33.90625 42.40625 32.703125 42.796875 
C 29.40625 44 25.203125 44 24.09375 44 
C 11.09375 44 3.296875 32.703125 3.296875 21.296875 
C 3.296875 9.296875 12 -1 23.703125 -1 
C 30.40625 -1 35.203125 1.1875 39.09375 3.78125 
L 38.5 10.375 
C 34.203125 7.078125 29.203125 5.265625 23.796875 5.265625 
C 16 5.265625 10.90625 12.09375 10.90625 21.390625 
C 10.90625 28.609375 14.203125 37.71875 24.203125 37.71875 
C 29.703125 37.71875 32.796875 36.609375 37.40625 33.515625 
z
" id="CMSS17-99"/>
      <path d="M 14.90625 21.296875 
C 14.90625 30.703125 21.796875 37 30.59375 37 
L 30.59375 43.578125 
C 24.203125 43.578125 18.203125 40.390625 14.59375 35.203125 
L 14.59375 43.09375 
L 7.5 43.09375 
L 7.5 0 
L 14.90625 0 
z
" id="CMSS17-114"/>
      <path d="M 44.203125 21.1875 
C 44.203125 34 34.703125 44 23.5 44 
C 12 44 2.703125 33.703125 2.703125 21.1875 
C 2.703125 8.5 12.296875 -1 23.40625 -1 
C 34.796875 -1 44.203125 8.796875 44.203125 21.1875 
M 23.5 5.265625 
C 16.40625 5.265625 10.296875 11.078125 10.296875 22 
C 10.296875 33.609375 17.40625 37.921875 23.40625 37.921875 
C 29.90625 37.921875 36.59375 33.21875 36.59375 22 
C 36.59375 10.671875 30.09375 5.265625 23.5 5.265625 
" id="CMSS17-111"/>
      <path d="M 54.703125 11.15625 
C 48 6.671875 44.90625 5.375 36.796875 5.375 
C 22.796875 5.375 14.59375 20.359375 14.59375 34.046875 
C 14.59375 48.625 23 63 37.203125 63 
C 43.59375 63 47.796875 61.21875 52.90625 58.046875 
L 54.296875 65.890625 
C 49.5 68.28125 43.40625 69.375 37.296875 69.375 
C 18.09375 69.375 6.203125 51.8125 6.203125 34.046875 
C 6.203125 14.484375 20.296875 -1 36.296875 -1 
C 44.90625 -1 47.90625 -0.296875 55.296875 4.375 
z
" id="CMSS17-67"/>
      <path d="M 39.09375 21.515625 
C 39.09375 24.84375 38.90625 31.296875 35.703125 36.640625 
C 32.203125 42.390625 26.5 44 22.203125 44 
C 11.796875 44 3 34.1875 3 21.484375 
C 3 9.09375 12.09375 -1 23.59375 -1 
C 28.09375 -1 33.59375 0.296875 38.59375 3.875 
C 38.59375 4.28125 38.40625 6.46875 38.296875 6.5625 
C 38.296875 6.765625 38 9.84375 38 10.25 
C 33.203125 6.359375 27.703125 5.078125 23.703125 5.078125 
C 17.296875 5.078125 10.40625 10.421875 10.09375 21.515625 
z
M 10.90625 27 
C 12.203125 32.5625 16.59375 37.828125 22.203125 37.828125 
C 23.703125 37.828125 30.703125 37.828125 32.5 27 
z
" id="CMSS17-101"/>
      <path d="M 14.796875 69 
L 7.40625 69 
L 7.40625 0 
L 14.796875 0 
z
" id="CMSS17-108"/>
      <path d="M 32.203125 41.046875 
C 26.296875 43.859375 21.703125 43.859375 18.703125 43.859375 
C 11.59375 43.859375 3.09375 41.375 3.09375 31.296875 
C 3.09375 21.234375 14.09375 19.03125 17.09375 18.421875 
C 21.703125 17.53125 26.796875 16.53125 26.796875 11.5625 
C 26.796875 5.265625 19.59375 5.265625 18.296875 5.265625 
C 14.296875 5.265625 8.796875 6.359375 3.796875 9.96875 
L 2.59375 3.28125 
C 8.296875 0 13.796875 -1 18.40625 -1 
C 30.703125 -1 33.796875 6.5 33.796875 12.203125 
C 33.796875 17.09375 31 20.390625 29.09375 21.890625 
C 25.796875 24.5 24.59375 24.796875 16.40625 26.5 
C 15 26.703125 10.09375 27.796875 10.09375 32.28125 
C 10.09375 38 16.40625 38 17.796875 38 
C 24.296875 38 28.296875 35.984375 31 34.5 
z
" id="CMSS17-115"/>
     </defs>
     <g style="fill:#555555;" transform="translate(200.645657 335.741857)scale(0.12 -0.12)">
      <use transform="scale(0.996264)" xlink:href="#CMSS17-35"/>
      <use transform="translate(109.301849 0)scale(0.996264)" xlink:href="#CMSS17-77"/>
      <use transform="translate(190.977879 0)scale(0.996264)" xlink:href="#CMSS17-97"/>
      <use transform="translate(235.8998 0)scale(0.996264)" xlink:href="#CMSS17-99"/>
      <use transform="translate(277.538622 0)scale(0.996264)" xlink:href="#CMSS17-114"/>
      <use transform="translate(309.448394 0)scale(0.996264)" xlink:href="#CMSS17-111"/>
      <use transform="translate(387.52113 0)scale(0.996264)" xlink:href="#CMSS17-67"/>
      <use transform="translate(447.376902 0)scale(0.996264)" xlink:href="#CMSS17-101"/>
      <use transform="translate(489.015724 0)scale(0.996264)" xlink:href="#CMSS17-108"/>
      <use transform="translate(511.196447 0)scale(0.996264)" xlink:href="#CMSS17-108"/>
      <use transform="translate(533.37717 0)scale(0.996264)" xlink:href="#CMSS17-115"/>
     </g>
    </g>
   </g>
   <g id="matplotlib.axis_2">
    <g id="ytick_1">
     <g id="line2d_17">
      <path clip-path="url(#p5178e57234)" d="M 57.6 300.132605 
L 414.72 300.132605 
" style="fill:none;stroke:#ffffff;stroke-linecap:square;stroke-width:0.8;"/>
     </g>
     <g id="line2d_18">
      <defs>
       <path d="M 0 0 
L -3.5 0 
" id="mbd1e1a12a1" style="stroke:#555555;stroke-width:0.8;"/>
      </defs>
      <g>
       <use style="fill:#555555;stroke:#555555;stroke-width:0.8;" x="57.6" xlink:href="#mbd1e1a12a1" y="300.132605"/>
      </g>
     </g>
     <g id="text_10">
      <!-- $0$ -->
      <g style="fill:#555555;" transform="translate(45.618665 303.591854)scale(0.1 -0.1)">
       <use transform="scale(0.996264)" xlink:href="#CMR17-48"/>
      </g>
     </g>
    </g>
    <g id="ytick_2">
     <g id="line2d_19">
      <path clip-path="url(#p5178e57234)" d="M 57.6 245.634457 
L 414.72 245.634457 
" style="fill:none;stroke:#ffffff;stroke-linecap:square;stroke-width:0.8;"/>
     </g>
     <g id="line2d_20">
      <g>
       <use style="fill:#555555;stroke:#555555;stroke-width:0.8;" x="57.6" xlink:href="#mbd1e1a12a1" y="245.634457"/>
      </g>
     </g>
     <g id="text_11">
      <!-- $2$ -->
      <g style="fill:#555555;" transform="translate(45.618665 249.093707)scale(0.1 -0.1)">
       <use transform="scale(0.996264)" xlink:href="#CMR17-50"/>
      </g>
     </g>
    </g>
    <g id="ytick_3">
     <g id="line2d_21">
      <path clip-path="url(#p5178e57234)" d="M 57.6 191.13631 
L 414.72 191.13631 
" style="fill:none;stroke:#ffffff;stroke-linecap:square;stroke-width:0.8;"/>
     </g>
     <g id="line2d_22">
      <g>
       <use style="fill:#555555;stroke:#555555;stroke-width:0.8;" x="57.6" xlink:href="#mbd1e1a12a1" y="191.13631"/>
      </g>
     </g>
     <g id="text_12">
      <!-- $4$ -->
      <g style="fill:#555555;" transform="translate(45.618665 194.59556)scale(0.1 -0.1)">
       <use transform="scale(0.996264)" xlink:href="#CMR17-52"/>
      </g>
     </g>
    </g>
    <g id="ytick_4">
     <g id="line2d_23">
      <path clip-path="url(#p5178e57234)" d="M 57.6 136.638163 
L 414.72 136.638163 
" style="fill:none;stroke:#ffffff;stroke-linecap:square;stroke-width:0.8;"/>
     </g>
     <g id="line2d_24">
      <g>
       <use style="fill:#555555;stroke:#555555;stroke-width:0.8;" x="57.6" xlink:href="#mbd1e1a12a1" y="136.638163"/>
      </g>
     </g>
     <g id="text_13">
      <!-- $6$ -->
      <g style="fill:#555555;" transform="translate(45.618665 140.097412)scale(0.1 -0.1)">
       <use transform="scale(0.996264)" xlink:href="#CMR17-54"/>
      </g>
     </g>
    </g>
    <g id="ytick_5">
     <g id="line2d_25">
      <path clip-path="url(#p5178e57234)" d="M 57.6 82.140016 
L 414.72 82.140016 
" style="fill:none;stroke:#ffffff;stroke-linecap:square;stroke-width:0.8;"/>
     </g>
     <g id="line2d_26">
      <g>
       <use style="fill:#555555;stroke:#555555;stroke-width:0.8;" x="57.6" xlink:href="#mbd1e1a12a1" y="82.140016"/>
      </g>
     </g>
     <g id="text_14">
      <!-- $8$ -->
      <g style="fill:#555555;" transform="translate(45.618665 85.599265)scale(0.1 -0.1)">
       <use transform="scale(0.996264)" xlink:href="#CMR17-56"/>
      </g>
     </g>
    </g>
    <g id="text_15">
     <!-- Scaleup -->
     <defs>
      <path d="M 43.703125 65.140625 
C 39.296875 67.71875 34.5 70 26.40625 70 
C 13.5 70 5.203125 60.609375 5.203125 51.03125 
C 5.203125 47.265625 6.296875 43.015625 10.203125 38.671875 
C 14.09375 34.3125 18.5 33.140625 24.09375 31.765625 
C 26.40625 31.15625 30.296875 30.0625 31 29.78125 
C 36.59375 27.609375 39.296875 22.5625 39.296875 17.8125 
C 39.296875 11.59375 34.40625 4.96875 25.703125 4.96875 
C 22.703125 4.96875 13.90625 4.96875 5.59375 12.796875 
L 4.203125 4.96875 
C 12.40625 -1 21.296875 -2 25.796875 -2 
C 38.09375 -2 46.90625 7.625 46.90625 18.53125 
C 46.90625 22.5 45.703125 27.546875 41.5 32.203125 
C 37.40625 36.671875 33.796875 37.65625 25.59375 39.828125 
C 20.90625 41.03125 17.90625 41.828125 15.40625 44.890625 
C 13.703125 47.078125 12.796875 49.15625 12.796875 51.828125 
C 12.796875 57.390625 17.59375 63.4375 26.40625 63.4375 
C 30.796875 63.4375 36.5 62.53125 42.296875 57.1875 
z
" id="CMSS17-83"/>
      <path d="M 40.90625 42.796875 
L 33.296875 42.796875 
L 33.296875 15.1875 
C 33.296875 7.78125 27.90625 4.78125 22.203125 4.78125 
C 15.59375 4.78125 15 6.984375 15 11.078125 
L 15 42.796875 
L 7.40625 42.796875 
L 7.40625 10.59375 
C 7.40625 2.796875 10.09375 -1 17 -1 
C 20.40625 -1 28.09375 -0.203125 33.5 4.78125 
L 33.5 0 
L 40.90625 0 
z
" id="CMSS17-117"/>
      <path d="M 15.09375 5.203125 
C 18.40625 2.015625 22.90625 -0.078125 27.703125 -0.078125 
C 37 -0.078125 45 9.421875 45 22.0625 
C 45 33.734375 39 44 30.40625 44 
C 25.40625 44 19.40625 42.21875 14.90625 38.625 
L 14.90625 43.203125 
L 7.5 43.203125 
L 7.5 -19 
L 15.09375 -19 
z
M 15.09375 32.8125 
C 15.90625 34 19.296875 37.734375 24.796875 37.734375 
C 31.796875 37.734375 37.40625 30.625 37.40625 22.0625 
C 37.40625 12.296875 30.59375 6 23.90625 6 
C 21.90625 6 19.796875 6.484375 17.796875 8.171875 
C 15.09375 10.53125 15.09375 12 15.09375 13.390625 
z
" id="CMSS17-112"/>
     </defs>
     <g style="fill:#555555;" transform="translate(39.294069 193.166214)rotate(-90)scale(0.12 -0.12)">
      <use transform="scale(0.996264)" xlink:href="#CMSS17-83"/>
      <use transform="translate(52.048516 0)scale(0.996264)" xlink:href="#CMSS17-99"/>
      <use transform="translate(93.687338 0)scale(0.996264)" xlink:href="#CMSS17-97"/>
      <use transform="translate(138.609259 0)scale(0.996264)" xlink:href="#CMSS17-108"/>
      <use transform="translate(160.789982 0)scale(0.996264)" xlink:href="#CMSS17-101"/>
      <use transform="translate(202.428804 0)scale(0.996264)" xlink:href="#CMSS17-117"/>
      <use transform="translate(250.633747 0)scale(0.996264)" xlink:href="#CMSS17-112"/>
     </g>
    </g>
   </g>
   <g id="line2d_27">
    <path clip-path="url(#p5178e57234)" d="M 73.832727 272.883531 
L 122.745912 270.185873 
L 191.009368 270.703605 
L 281.84814 284.491636 
L 398.487273 275.444944 
" style="fill:none;stroke:#ff007a;stroke-linecap:square;stroke-width:1.5;"/>
    <defs>
     <path d="M -3 3 
L 3 3 
L 3 -3 
L -3 -3 
z
" id="mb5f063dafb" style="stroke:#ff007a;stroke-linejoin:miter;"/>
    </defs>
    <g clip-path="url(#p5178e57234)">
     <use style="fill:#ff007a;stroke:#ff007a;stroke-linejoin:miter;" x="73.832727" xlink:href="#mb5f063dafb" y="272.883531"/>
     <use style="fill:#ff007a;stroke:#ff007a;stroke-linejoin:miter;" x="122.745912" xlink:href="#mb5f063dafb" y="270.185873"/>
     <use style="fill:#ff007a;stroke:#ff007a;stroke-linejoin:miter;" x="191.009368" xlink:href="#mb5f063dafb" y="270.703605"/>
     <use style="fill:#ff007a;stroke:#ff007a;stroke-linejoin:miter;" x="281.84814" xlink:href="#mb5f063dafb" y="284.491636"/>
     <use style="fill:#ff007a;stroke:#ff007a;stroke-linejoin:miter;" x="398.487273" xlink:href="#mb5f063dafb" y="275.444944"/>
    </g>
   </g>
   <g id="line2d_28">
    <path clip-path="url(#p5178e57234)" d="M 73.832727 272.883531 
L 122.745912 263.046615 
L 191.009368 263.291857 
L 281.84814 64.564364 
L 398.487273 260.512452 
" style="fill:none;stroke:#8280ff;stroke-linecap:square;stroke-width:1.5;"/>
    <defs>
     <path d="M 0 3 
C 0.795609 3 1.55874 2.683901 2.12132 2.12132 
C 2.683901 1.55874 3 0.795609 3 0 
C 3 -0.795609 2.683901 -1.55874 2.12132 -2.12132 
C 1.55874 -2.683901 0.795609 -3 0 -3 
C -0.795609 -3 -1.55874 -2.683901 -2.12132 -2.12132 
C -2.683901 -1.55874 -3 -0.795609 -3 0 
C -3 0.795609 -2.683901 1.55874 -2.12132 2.12132 
C -1.55874 2.683901 -0.795609 3 0 3 
z
" id="mecab536a72" style="stroke:#8280ff;"/>
    </defs>
    <g clip-path="url(#p5178e57234)">
     <use style="fill:#8280ff;stroke:#8280ff;" x="73.832727" xlink:href="#mecab536a72" y="272.883531"/>
     <use style="fill:#8280ff;stroke:#8280ff;" x="122.745912" xlink:href="#mecab536a72" y="263.046615"/>
     <use style="fill:#8280ff;stroke:#8280ff;" x="191.009368" xlink:href="#mecab536a72" y="263.291857"/>
     <use style="fill:#8280ff;stroke:#8280ff;" x="281.84814" xlink:href="#mecab536a72" y="64.564364"/>
     <use style="fill:#8280ff;stroke:#8280ff;" x="398.487273" xlink:href="#mecab536a72" y="260.512452"/>
    </g>
   </g>
   <g id="line2d_29">
    <path clip-path="url(#p5178e57234)" d="M 73.832727 272.883531 
L 122.745912 272.393048 
L 191.009368 272.066059 
L 281.84814 271.73907 
L 398.487273 271.548326 
" style="fill:none;stroke:#00baff;stroke-linecap:square;stroke-width:1.5;"/>
    <defs>
     <path d="M 4.5 -3 
L 0 0 
L 4.5 3 
" id="mceef2cfd0f" style="stroke:#00baff;stroke-linejoin:miter;"/>
    </defs>
    <g clip-path="url(#p5178e57234)">
     <use style="fill:#00baff;stroke:#00baff;stroke-linejoin:miter;" x="73.832727" xlink:href="#mceef2cfd0f" y="272.883531"/>
     <use style="fill:#00baff;stroke:#00baff;stroke-linejoin:miter;" x="122.745912" xlink:href="#mceef2cfd0f" y="272.393048"/>
     <use style="fill:#00baff;stroke:#00baff;stroke-linejoin:miter;" x="191.009368" xlink:href="#mceef2cfd0f" y="272.066059"/>
     <use style="fill:#00baff;stroke:#00baff;stroke-linejoin:miter;" x="281.84814" xlink:href="#mceef2cfd0f" y="271.73907"/>
     <use style="fill:#00baff;stroke:#00baff;stroke-linejoin:miter;" x="398.487273" xlink:href="#mceef2cfd0f" y="271.548326"/>
    </g>
   </g>
   <g id="line2d_30">
    <path clip-path="url(#p5178e57234)" d="M 73.832727 272.883531 
L 122.745912 272.856282 
L 191.009368 272.883531 
L 281.84814 272.856282 
L 398.487273 272.883531 
" style="fill:none;stroke:#008042;stroke-linecap:square;stroke-width:1.5;"/>
    <defs>
     <path d="M -4.5 3 
L 0 0 
L -4.5 -3 
" id="mc2a33ea8e6" style="stroke:#008042;stroke-linejoin:miter;"/>
    </defs>
    <g clip-path="url(#p5178e57234)">
     <use style="fill:#008042;stroke:#008042;stroke-linejoin:miter;" x="73.832727" xlink:href="#mc2a33ea8e6" y="272.883531"/>
     <use style="fill:#008042;stroke:#008042;stroke-linejoin:miter;" x="122.745912" xlink:href="#mc2a33ea8e6" y="272.856282"/>
     <use style="fill:#008042;stroke:#008042;stroke-linejoin:miter;" x="191.009368" xlink:href="#mc2a33ea8e6" y="272.883531"/>
     <use style="fill:#008042;stroke:#008042;stroke-linejoin:miter;" x="281.84814" xlink:href="#mc2a33ea8e6" y="272.856282"/>
     <use style="fill:#008042;stroke:#008042;stroke-linejoin:miter;" x="398.487273" xlink:href="#mc2a33ea8e6" y="272.883531"/>
    </g>
   </g>
   <g id="line2d_31">
    <path clip-path="url(#p5178e57234)" d="M 73.832727 272.883531 
L 122.745912 272.883531 
L 191.009368 272.883531 
L 281.84814 272.883531 
L 398.487273 272.883531 
" style="fill:none;stroke:#620080;stroke-linecap:square;stroke-width:1.5;"/>
    <defs>
     <path d="M -3 -4.5 
L 0 0 
L 3 -4.5 
" id="m660ee8f21c" style="stroke:#620080;stroke-linejoin:miter;"/>
    </defs>
    <g clip-path="url(#p5178e57234)">
     <use style="fill:#620080;stroke:#620080;stroke-linejoin:miter;" x="73.832727" xlink:href="#m660ee8f21c" y="272.883531"/>
     <use style="fill:#620080;stroke:#620080;stroke-linejoin:miter;" x="122.745912" xlink:href="#m660ee8f21c" y="272.883531"/>
     <use style="fill:#620080;stroke:#620080;stroke-linejoin:miter;" x="191.009368" xlink:href="#m660ee8f21c" y="272.883531"/>
     <use style="fill:#620080;stroke:#620080;stroke-linejoin:miter;" x="281.84814" xlink:href="#m660ee8f21c" y="272.883531"/>
     <use style="fill:#620080;stroke:#620080;stroke-linejoin:miter;" x="398.487273" xlink:href="#m660ee8f21c" y="272.883531"/>
    </g>
   </g>
   <g id="patch_3">
    <path d="M 57.6 307.584 
L 57.6 41.472 
" style="fill:none;stroke:#ffffff;stroke-linecap:square;stroke-linejoin:miter;"/>
   </g>
   <g id="patch_4">
    <path d="M 414.72 307.584 
L 414.72 41.472 
" style="fill:none;stroke:#ffffff;stroke-linecap:square;stroke-linejoin:miter;"/>
   </g>
   <g id="patch_5">
    <path d="M 57.6 307.584 
L 414.72 307.584 
" style="fill:none;stroke:#ffffff;stroke-linecap:square;stroke-linejoin:miter;"/>
   </g>
   <g id="patch_6">
    <path d="M 57.6 41.472 
L 414.72 41.472 
" style="fill:none;stroke:#ffffff;stroke-linecap:square;stroke-linejoin:miter;"/>
   </g>
   <g id="legend_1">
    <g id="patch_7">
     <path d="M 64.6 119.157892 
L 193.652846 119.157892 
Q 195.652846 119.157892 195.652846 117.157892 
L 195.652846 48.472 
Q 195.652846 46.472 193.652846 46.472 
L 64.6 46.472 
Q 62.6 46.472 62.6 48.472 
L 62.6 117.157892 
Q 62.6 119.157892 64.6 119.157892 
z
" style="fill:#e6e6e6;opacity:0.8;stroke:#cccccc;stroke-linejoin:miter;stroke-width:0.5;"/>
    </g>
    <g id="line2d_32">
     <path d="M 66.6 53.972 
L 86.6 53.972 
" style="fill:none;stroke:#ff007a;stroke-linecap:square;stroke-width:1.5;"/>
    </g>
    <g id="line2d_33">
     <g>
      <use style="fill:#ff007a;stroke:#ff007a;stroke-linejoin:miter;" x="76.6" xlink:href="#mb5f063dafb" y="53.972"/>
     </g>
    </g>
    <g id="text_16">
     <!-- Overall -->
     <defs>
      <path d="M 64 34.03125 
C 64 54.734375 50.296875 70.265625 34.59375 70.265625 
C 18.90625 70.265625 5.203125 54.640625 5.203125 34.03125 
C 5.203125 13.234375 19.09375 -2 34.59375 -2 
C 50.09375 -2 64 13.234375 64 34.03125 
M 34.59375 4.265625 
C 23.59375 4.265625 13.59375 16.515625 13.59375 35.328125 
C 13.59375 53.640625 24.203125 64 34.59375 64 
C 45 64 55.59375 53.640625 55.59375 35.328125 
C 55.59375 16.421875 45.5 4.265625 34.59375 4.265625 
" id="CMSS17-79"/>
      <path d="M 41.796875 43 
L 34 43 
L 27.296875 24.3125 
C 25.203125 18.203125 22.203125 9.796875 21.703125 5.5 
L 21.59375 5.5 
C 21.40625 7.3125 20.59375 9.90625 20.09375 11.703125 
C 19.5 13.90625 18.703125 16.5 18.09375 18.3125 
L 9.296875 43 
L 1.296875 43 
L 17.09375 0 
L 26 0 
z
" id="CMSS17-118"/>
     </defs>
     <g transform="translate(94.6 57.472)scale(0.1 -0.1)">
      <use transform="scale(0.996264)" xlink:href="#CMSS17-79"/>
      <use transform="translate(69.024255 0)scale(0.996264)" xlink:href="#CMSS17-118"/>
      <use transform="translate(112.024397 0)scale(0.996264)" xlink:href="#CMSS17-101"/>
      <use transform="translate(153.663219 0)scale(0.996264)" xlink:href="#CMSS17-114"/>
      <use transform="translate(185.572992 0)scale(0.996264)" xlink:href="#CMSS17-97"/>
      <use transform="translate(230.494912 0)scale(0.996264)" xlink:href="#CMSS17-108"/>
      <use transform="translate(252.675635 0)scale(0.996264)" xlink:href="#CMSS17-108"/>
     </g>
    </g>
    <g id="line2d_34">
     <path d="M 66.6 67.909178 
L 86.6 67.909178 
" style="fill:none;stroke:#8280ff;stroke-linecap:square;stroke-width:1.5;"/>
    </g>
    <g id="line2d_35">
     <g>
      <use style="fill:#8280ff;stroke:#8280ff;" x="76.6" xlink:href="#mecab536a72" y="67.909178"/>
     </g>
    </g>
    <g id="text_17">
     <!-- Coarse solve -->
     <g transform="translate(94.6 71.409178)scale(0.1 -0.1)">
      <use transform="scale(0.996264)" xlink:href="#CMSS17-67"/>
      <use transform="translate(59.855772 0)scale(0.996264)" xlink:href="#CMSS17-111"/>
      <use transform="translate(106.699395 0)scale(0.996264)" xlink:href="#CMSS17-97"/>
      <use transform="translate(149.018862 0)scale(0.996264)" xlink:href="#CMSS17-114"/>
      <use transform="translate(180.928634 0)scale(0.996264)" xlink:href="#CMSS17-115"/>
      <use transform="translate(216.842176 0)scale(0.996264)" xlink:href="#CMSS17-101"/>
      <use transform="translate(289.710111 0)scale(0.996264)" xlink:href="#CMSS17-115"/>
      <use transform="translate(325.623653 0)scale(0.996264)" xlink:href="#CMSS17-111"/>
      <use transform="translate(372.467277 0)scale(0.996264)" xlink:href="#CMSS17-108"/>
      <use transform="translate(394.648 0)scale(0.996264)" xlink:href="#CMSS17-118"/>
      <use transform="translate(437.648141 0)scale(0.996264)" xlink:href="#CMSS17-101"/>
     </g>
    </g>
    <g id="line2d_36">
     <path d="M 66.6 81.846357 
L 86.6 81.846357 
" style="fill:none;stroke:#00baff;stroke-linecap:square;stroke-width:1.5;"/>
    </g>
    <g id="line2d_37">
     <g>
      <use style="fill:#00baff;stroke:#00baff;stroke-linejoin:miter;" x="76.6" xlink:href="#mceef2cfd0f" y="81.846357"/>
     </g>
    </g>
    <g id="text_18">
     <!-- Local assembly + solve -->
     <defs>
      <path d="M 26.09375 6.46875 
C 24.90625 6.46875 23.703125 6.46875 22.5 6.46875 
L 17.203125 6.46875 
L 17.203125 69 
L 8.796875 69 
L 8.796875 0 
L 46.90625 0 
L 46.90625 6.46875 
z
" id="CMSS17-76"/>
      <path d="M 67 29.328125 
C 67 36.0625 65.296875 44 54.09375 44 
C 46.59375 44 42.09375 39.3125 40.09375 36.421875 
C 38.296875 41.71875 34.09375 44 28.09375 44 
C 21.296875 44 17 40.125 14.703125 37.328125 
L 14.703125 43.09375 
L 7.40625 43.09375 
L 7.40625 0 
L 15 0 
L 15 24.359375 
C 15 30.296875 17.203125 37.9375 24.296875 37.9375 
C 33.40625 37.9375 33.40625 31.5 33.40625 28.578125 
L 33.40625 0 
L 41 0 
L 41 24.359375 
C 41 30.296875 43.203125 37.9375 50.296875 37.9375 
C 59.40625 37.9375 59.40625 31.5 59.40625 28.578125 
L 59.40625 0 
L 67 0 
z
" id="CMSS17-109"/>
      <path d="M 14.90625 69 
L 7.5 69 
L 7.5 -0.203125 
L 15.09375 -0.203125 
L 15.09375 4.28125 
C 18.90625 0.59375 23.5 -1 27.59375 -1 
C 37.203125 -1 45 8.578125 45 21.125 
C 45 32.59375 39 43.0625 30.09375 43.0625 
C 23.796875 43.0625 18.203125 40.484375 14.90625 37.796875 
z
M 15.09375 31.96875 
C 17.296875 34.71875 20.40625 37 24.796875 37 
C 30.703125 37 37.40625 32.765625 37.40625 21.125 
C 37.40625 8.71875 29.40625 5.078125 23.90625 5.078125 
C 21.90625 5.078125 19.796875 5.5625 17.796875 7.25 
C 15.09375 9.609375 15.09375 11.078125 15.09375 12.453125 
z
" id="CMSS17-98"/>
      <path d="M 41.796875 43 
L 34 43 
C 25.5 20.21875 22.59375 10.96875 22.40625 5.984375 
L 22.296875 5.984375 
C 22 10.875 17.59375 22.8125 14.09375 31.359375 
L 9.40625 43 
L 1.296875 43 
L 19 0.203125 
C 17.90625 -2.78125 16.296875 -7.265625 15.796875 -8.265625 
C 13.59375 -13.828125 12.09375 -13.828125 10.5 -13.828125 
C 10.09375 -13.828125 6.90625 -13.828125 3.296875 -12.640625 
L 3.90625 -19.203125 
C 6.40625 -19.703125 8.90625 -20 10.703125 -20 
C 13.203125 -20 18.203125 -20 22.796875 -7.765625 
z
" id="CMSS17-121"/>
      <path d="M 38.296875 23.515625 
L 64.703125 23.515625 
C 66.09375 23.515625 67.796875 23.515625 67.796875 25.203125 
C 67.796875 27 66.203125 27 64.703125 27 
L 38.296875 27 
L 38.296875 53.328125 
C 38.296875 54.71875 38.296875 56.421875 36.59375 56.421875 
C 34.796875 56.421875 34.796875 54.828125 34.796875 53.328125 
L 34.796875 27 
L 8.296875 27 
C 6.90625 27 5.203125 27 5.203125 25.3125 
C 5.203125 23.515625 6.796875 23.515625 8.296875 23.515625 
L 34.796875 23.515625 
L 34.796875 -2.90625 
C 34.796875 -4.296875 34.796875 -6 36.5 -6 
C 38.296875 -6 38.296875 -4.40625 38.296875 -2.90625 
z
" id="CMSS17-43"/>
     </defs>
     <g transform="translate(94.6 85.346357)scale(0.1 -0.1)">
      <use transform="scale(0.996264)" xlink:href="#CMSS17-76"/>
      <use transform="translate(50.687105 0)scale(0.996264)" xlink:href="#CMSS17-111"/>
      <use transform="translate(100.133168 0)scale(0.996264)" xlink:href="#CMSS17-99"/>
      <use transform="translate(141.77199 0)scale(0.996264)" xlink:href="#CMSS17-97"/>
      <use transform="translate(186.69391 0)scale(0.996264)" xlink:href="#CMSS17-108"/>
      <use transform="translate(240.103746 0)scale(0.996264)" xlink:href="#CMSS17-97"/>
      <use transform="translate(285.025667 0)scale(0.996264)" xlink:href="#CMSS17-115"/>
      <use transform="translate(320.939209 0)scale(0.996264)" xlink:href="#CMSS17-115"/>
      <use transform="translate(356.852751 0)scale(0.996264)" xlink:href="#CMSS17-101"/>
      <use transform="translate(398.491573 0)scale(0.996264)" xlink:href="#CMSS17-109"/>
      <use transform="translate(472.720827 0)scale(0.996264)" xlink:href="#CMSS17-98"/>
      <use transform="translate(520.92577 0)scale(0.996264)" xlink:href="#CMSS17-108"/>
      <use transform="translate(543.106493 0)scale(0.996264)" xlink:href="#CMSS17-121"/>
      <use transform="translate(617.335748 0)scale(0.996264)" xlink:href="#CMSS17-43"/>
      <use transform="translate(721.432795 0)scale(0.996264)" xlink:href="#CMSS17-115"/>
      <use transform="translate(757.346337 0)scale(0.996264)" xlink:href="#CMSS17-111"/>
      <use transform="translate(804.189961 0)scale(0.996264)" xlink:href="#CMSS17-108"/>
      <use transform="translate(826.370684 0)scale(0.996264)" xlink:href="#CMSS17-118"/>
      <use transform="translate(869.370826 0)scale(0.996264)" xlink:href="#CMSS17-101"/>
     </g>
    </g>
    <g id="line2d_38">
     <path d="M 66.6 95.783535 
L 86.6 95.783535 
" style="fill:none;stroke:#008042;stroke-linecap:square;stroke-width:1.5;"/>
    </g>
    <g id="line2d_39">
     <g>
      <use style="fill:#008042;stroke:#008042;stroke-linejoin:miter;" x="76.6" xlink:href="#mc2a33ea8e6" y="95.783535"/>
     </g>
    </g>
    <g id="text_19">
     <!-- Coarse assembly -->
     <g transform="translate(94.6 99.283535)scale(0.1 -0.1)">
      <use transform="scale(0.996264)" xlink:href="#CMSS17-67"/>
      <use transform="translate(59.855772 0)scale(0.996264)" xlink:href="#CMSS17-111"/>
      <use transform="translate(106.699395 0)scale(0.996264)" xlink:href="#CMSS17-97"/>
      <use transform="translate(149.018862 0)scale(0.996264)" xlink:href="#CMSS17-114"/>
      <use transform="translate(180.928634 0)scale(0.996264)" xlink:href="#CMSS17-115"/>
      <use transform="translate(216.842176 0)scale(0.996264)" xlink:href="#CMSS17-101"/>
      <use transform="translate(289.710111 0)scale(0.996264)" xlink:href="#CMSS17-97"/>
      <use transform="translate(334.632032 0)scale(0.996264)" xlink:href="#CMSS17-115"/>
      <use transform="translate(370.545574 0)scale(0.996264)" xlink:href="#CMSS17-115"/>
      <use transform="translate(406.459116 0)scale(0.996264)" xlink:href="#CMSS17-101"/>
      <use transform="translate(448.097938 0)scale(0.996264)" xlink:href="#CMSS17-109"/>
      <use transform="translate(522.327192 0)scale(0.996264)" xlink:href="#CMSS17-98"/>
      <use transform="translate(570.532135 0)scale(0.996264)" xlink:href="#CMSS17-108"/>
      <use transform="translate(592.712858 0)scale(0.996264)" xlink:href="#CMSS17-121"/>
     </g>
    </g>
    <g id="line2d_40">
     <path d="M 66.6 109.720713 
L 86.6 109.720713 
" style="fill:none;stroke:#620080;stroke-linecap:square;stroke-width:1.5;"/>
    </g>
    <g id="line2d_41">
     <g>
      <use style="fill:#620080;stroke:#620080;stroke-linejoin:miter;" x="76.6" xlink:href="#m660ee8f21c" y="109.720713"/>
     </g>
    </g>
    <g id="text_20">
     <!-- Ideal -->
     <defs>
      <path d="M 17.09375 69 
L 8.703125 69 
L 8.703125 0 
L 17.09375 0 
z
" id="CMSS17-73"/>
      <path d="M 40.796875 69 
L 33.40625 69 
L 33.40625 38.09375 
C 30.296875 40.671875 25.203125 43.0625 19.59375 43.0625 
C 10.5 43.0625 3.296875 33.296875 3.296875 21.046875 
C 3.296875 8.78125 10.40625 -1 19.296875 -1 
C 26.203125 -1 30.796875 2.6875 33.203125 4.78125 
L 33.203125 -0.203125 
L 40.796875 -0.203125 
z
M 33.203125 13.0625 
C 33.203125 11.671875 33.203125 10.203125 30.09375 7.53125 
C 28.09375 5.859375 25.703125 5.078125 23.40625 5.078125 
C 18 5.078125 10.90625 9 10.90625 20.9375 
C 10.90625 33.34375 18.90625 37 24.40625 37 
C 28.09375 37 31.09375 35.21875 33.203125 32.265625 
z
" id="CMSS17-100"/>
     </defs>
     <g transform="translate(94.6 113.220713)scale(0.1 -0.1)">
      <use transform="scale(0.996264)" xlink:href="#CMSS17-73"/>
      <use transform="translate(25.783926 0)scale(0.996264)" xlink:href="#CMSS17-100"/>
      <use transform="translate(73.988869 0)scale(0.996264)" xlink:href="#CMSS17-101"/>
      <use transform="translate(115.627691 0)scale(0.996264)" xlink:href="#CMSS17-97"/>
      <use transform="translate(160.549611 0)scale(0.996264)" xlink:href="#CMSS17-108"/>
     </g>
    </g>
   </g>
  </g>
 </g>
 <defs>
  <clipPath id="p5178e57234">
   <rect height="266.112" width="357.12" x="57.6" y="41.472"/>
  </clipPath>
 </defs>
</svg>
