<?xml version="1.0" encoding="utf-8" standalone="no"?>
<!DOCTYPE svg PUBLIC "-//W3C//DTD SVG 1.1//EN"
  "http://www.w3.org/Graphics/SVG/1.1/DTD/svg11.dtd">
<!-- Created with matplotlib (http://matplotlib.org/) -->
<svg height="314pt" version="1.1" viewBox="0 0 454 314" width="454pt" xmlns="http://www.w3.org/2000/svg" xmlns:xlink="http://www.w3.org/1999/xlink">
 <defs>
  <style type="text/css">
*{stroke-linecap:butt;stroke-linejoin:round;}
  </style>
 </defs>
 <g id="figure_1">
  <g id="patch_1">
   <path d="M 0 314.405178 
L 454.273056 314.405178 
L 454.273056 0 
L 0 0 
z
" style="fill:#ffffff;"/>
  </g>
  <g id="axes_1">
   <g id="matplotlib.axis_1"/>
   <g id="matplotlib.axis_2"/>
   <g id="patch_2">
    <path d="M 128.442457 71.215492 
C 128.442457 64.711799 126.622662 58.336034 123.189717 52.812185 
C 119.756772 47.288335 114.845728 42.833711 109.01425 39.954147 
C 103.182772 37.074584 96.66027 35.883363 90.187396 36.515753 
C 83.714521 37.148143 77.545917 39.579265 72.382047 43.533057 
L 93.577507 71.215492 
L 128.442457 71.215492 
z
" style="fill:#ff007a;"/>
   </g>
   <g id="patch_3">
    <path d="M 72.382047 43.533057 
C 66.180173 48.281612 61.750425 54.97931 59.807903 62.544932 
C 57.865382 70.110554 58.520559 78.113838 61.667669 85.262805 
L 93.577507 71.215492 
L 72.382047 43.533057 
z
" style="fill:#8280ff;"/>
   </g>
   <g id="patch_4">
    <path d="M 61.667669 85.262805 
C 64.198157 91.011055 68.235481 95.970133 73.351148 99.613717 
C 78.466816 103.257301 84.473209 105.451763 90.732855 105.9642 
C 96.992501 106.476637 103.275826 105.288254 108.915965 102.525178 
C 114.556104 99.762102 119.346205 95.525669 122.777881 90.265502 
L 93.577507 71.215492 
L 61.667669 85.262805 
z
" style="fill:#008042;"/>
   </g>
   <g id="patch_5">
    <path d="M 122.777881 90.265502 
C 124.616388 87.447388 126.037289 84.377907 126.996321 81.152673 
C 127.955354 77.927439 128.442457 74.580291 128.442457 71.215491 
L 93.577507 71.215492 
L 122.777881 90.265502 
z
" style="fill:#620080;"/>
   </g>
   <g id="patch_6">
    <path clip-path="url(#p312747458f)" d="M 93.577507 97.364205 
C 100.512226 97.364205 107.163851 94.609011 112.067439 89.705424 
C 116.971026 84.801837 119.726219 78.150212 119.726219 71.215492 
C 119.726219 64.280773 116.971026 57.629148 112.067439 52.72556 
C 107.163851 47.821973 100.512226 45.06678 93.577507 45.06678 
C 86.642787 45.06678 79.991162 47.821973 75.087575 52.72556 
C 70.183988 57.629148 67.428794 64.280773 67.428794 71.215492 
C 67.428794 78.150212 70.183988 84.801837 75.087575 89.705424 
C 79.991162 94.609011 86.642787 97.364205 93.577507 97.364205 
z
" style="fill:#ffffff;stroke:#ffffff;stroke-linejoin:miter;stroke-width:0.5;"/>
   </g>
   <g id="text_1">
    <!-- $35.40\% $ -->
    <defs>
     <path d="M 22.09375 33.703125 
C 31 33.703125 34.90625 25.96875 34.90625 17.03125 
C 34.90625 5 28.5 0.390625 22.703125 0.390625 
C 17.40625 0.390625 8.796875 3.03125 6.09375 10.828125 
C 6.59375 10.625 7.09375 10.625 7.59375 10.625 
C 10 10.625 11.796875 12.21875 11.796875 14.8125 
C 11.796875 17.703125 9.59375 19 7.59375 19 
C 5.90625 19 3.296875 18.203125 3.296875 14.46875 
C 3.296875 5.234375 12.296875 -2 22.90625 -2 
C 34 -2 42.5 6.71875 42.5 16.953125 
C 42.5 26.671875 34.5 33.703125 25 34.796875 
C 32.59375 36.375 39.90625 43.0625 39.90625 52.015625 
C 39.90625 59.6875 32 65.296875 23 65.296875 
C 13.90625 65.296875 5.90625 59.828125 5.90625 52.015625 
C 5.90625 48.59375 8.5 48 9.796875 48 
C 11.90625 48 13.703125 49.296875 13.703125 51.890625 
C 13.703125 54.46875 11.90625 55.765625 9.796875 55.765625 
C 9.40625 55.765625 8.90625 55.765625 8.5 55.578125 
C 11.40625 61.859375 19.296875 63 22.796875 63 
C 26.296875 63 32.90625 61.328125 32.90625 51.875 
C 32.90625 49.109375 32.5 44.1875 29.09375 39.84375 
C 26.09375 36 22.703125 36 19.40625 35.6875 
C 18.90625 35.6875 16.59375 35.453125 16.203125 35.453125 
C 15.5 35.359375 15.09375 35.265625 15.09375 34.5 
C 15.09375 33.796875 15.203125 33.703125 17.203125 33.703125 
z
" id="CMR17-51"/>
     <path d="M 11.40625 57.6875 
C 12.40625 57.28125 16.5 56 20.703125 56 
C 30 56 35.09375 61.109375 38 64.0625 
C 38 64.953125 38 65.5 37.40625 65.5 
C 37.296875 65.5 37.09375 65.5 36.296875 65.046875 
C 32.796875 63.40625 28.703125 62.078125 23.703125 62.078125 
C 20.703125 62.078125 16.203125 62.484375 11.296875 64.671875 
C 10.203125 65.171875 10 65.171875 9.90625 65.171875 
C 9.40625 65.171875 9.296875 65.0625 9.296875 63.078125 
L 9.296875 34.421875 
C 9.296875 32.640625 9.296875 32.140625 10.296875 32.140625 
C 10.796875 32.140625 11 32.34375 11.5 33.03125 
C 14.703125 37.515625 19.09375 39.40625 24.09375 39.40625 
C 27.59375 39.40625 35.09375 37.21875 35.09375 20.140625 
C 35.09375 16.953125 35.09375 11.171875 32.09375 6.578125 
C 29.59375 2.484375 25.703125 0.390625 21.40625 0.390625 
C 14.796875 0.390625 8.09375 5 6.296875 12.71875 
C 6.703125 12.609375 7.5 12.421875 7.90625 12.421875 
C 9.203125 12.421875 11.703125 13.125 11.703125 16.21875 
C 11.703125 18.90625 9.796875 20 7.90625 20 
C 5.59375 20 4.09375 18.59375 4.09375 15.796875 
C 4.09375 7.09375 11 -2 21.59375 -2 
C 31.90625 -2 41.703125 6.875 41.703125 19.75 
C 41.703125 31.71875 33.90625 41 24.203125 41 
C 19.09375 41 14.796875 39.109375 11.40625 35.53125 
z
" id="CMR17-53"/>
     <path d="M 18.40625 4.796875 
C 18.40625 7.6875 16 9.671875 13.59375 9.671875 
C 10.703125 9.671875 8.703125 7.28125 8.703125 4.890625 
C 8.703125 2 11.09375 0 13.5 0 
C 16.40625 0 18.40625 2.390625 18.40625 4.796875 
" id="CMMI12-58"/>
     <path d="M 33.59375 64.40625 
C 33.59375 66.5 33.5 66.5 31.703125 66.5 
L 2 19.59375 
L 2 17 
L 27.796875 17 
L 27.796875 7.140625 
C 27.796875 3.5 27.59375 2.5 20.59375 2.5 
L 18.703125 2.5 
L 18.703125 0 
C 21.90625 0 27.296875 0 30.703125 0 
C 34.09375 0 39.5 0 42.703125 0 
L 42.703125 2.5 
L 40.796875 2.5 
C 33.796875 2.5 33.59375 3.5 33.59375 7.140625 
L 33.59375 17 
L 43.796875 17 
L 43.796875 19.59375 
L 33.59375 19.59375 
z
M 28.09375 57.859375 
L 28.09375 19.59375 
L 4 19.59375 
z
" id="CMR17-52"/>
     <path d="M 42 31.640625 
C 42 37.75 41.90625 48.125 37.703125 56.109375 
C 34 63.109375 28.09375 65.59375 22.90625 65.59375 
C 18.09375 65.59375 12 63.40625 8.203125 56.203125 
C 4.203125 48.71875 3.796875 39.4375 3.796875 31.640625 
C 3.796875 25.953125 3.90625 17.28125 7 9.671875 
C 11.296875 -0.609375 19 -2 22.90625 -2 
C 27.5 -2 34.5 -0.109375 38.59375 9.375 
C 41.59375 16.28125 42 24.359375 42 31.640625 
M 22.90625 -0.40625 
C 16.5 -0.40625 12.703125 5.078125 11.296875 12.6875 
C 10.203125 18.5625 10.203125 27.15625 10.203125 32.75 
C 10.203125 40.4375 10.203125 46.828125 11.5 52.921875 
C 13.40625 61.390625 19 64 22.90625 64 
C 27 64 32.296875 61.296875 34.203125 53.125 
C 35.5 47.4375 35.59375 40.734375 35.59375 32.75 
C 35.59375 26.25 35.59375 18.265625 34.40625 12.375 
C 32.296875 1.484375 26.40625 -0.40625 22.90625 -0.40625 
" id="CMR17-48"/>
     <path d="M 72.5 14.984375 
C 72.5 26.53125 66.796875 35 60.09375 35 
C 53.296875 35 46.40625 27.125 46.40625 14.984375 
C 46.40625 2.859375 53.203125 -5 60.09375 -5 
C 66.796875 -5 72.5 3.359375 72.5 14.984375 
M 60.203125 -3.40625 
C 57.59375 -3.40625 51.09375 -1.03125 51.09375 14.984375 
C 51.09375 31.109375 57.59375 33.40625 60.203125 33.40625 
C 65.703125 33.40625 70.703125 25.53125 70.703125 14.984375 
C 70.703125 4.453125 65.703125 -3.40625 60.203125 -3.40625 
M 63.796875 71.515625 
C 64.5 72.609375 64.59375 72.703125 64.59375 73.203125 
C 64.59375 74.390625 63.703125 75 62.90625 75 
C 61.90625 75 61.5 74.3125 60.796875 73.53125 
C 55 65.46875 47 64.59375 42.90625 64.59375 
C 32.90625 64.59375 26.796875 70.21875 24.90625 71.984375 
C 23.59375 73.15625 21.703125 75 18.296875 75 
C 11.5 75 4.59375 67.125 4.59375 54.984375 
C 4.59375 42.859375 11.40625 35 18.296875 35 
C 25 35 30.703125 43.40625 30.703125 55.109375 
C 30.703125 62.015625 28.59375 66.71875 28.296875 67.3125 
C 34.40625 63.5 40.40625 63 43 63 
C 49.40625 63 54 65.359375 56.5 67.015625 
L 56.59375 66.921875 
L 13.40625 -1.3125 
C 12.5 -2.71875 12.5 -2.921875 12.5 -3.21875 
C 12.5 -4.3125 13.40625 -5 14.296875 -5 
C 15.203125 -5 15.5 -4.515625 16.203125 -3.40625 
z
M 18.40625 36.59375 
C 15.796875 36.59375 9.296875 38.96875 9.296875 54.984375 
C 9.296875 71.109375 15.796875 73.40625 18.40625 73.40625 
C 23.90625 73.40625 28.90625 65.53125 28.90625 54.984375 
C 28.90625 44.453125 23.90625 36.59375 18.40625 36.59375 
" id="CMR17-37"/>
    </defs>
    <g transform="translate(97.375948 34.629471)scale(0.1 -0.1)">
     <use transform="scale(0.996264)" xlink:href="#CMR17-51"/>
     <use transform="translate(45.690477 0)scale(0.996264)" xlink:href="#CMR17-53"/>
     <use transform="translate(91.380954 0)scale(0.996264)" xlink:href="#CMMI12-58"/>
     <use transform="translate(118.478131 0)scale(0.996264)" xlink:href="#CMR17-52"/>
     <use transform="translate(164.168608 0)scale(0.996264)" xlink:href="#CMR17-48"/>
     <use transform="translate(209.859086 0)scale(0.996264)" xlink:href="#CMR17-37"/>
    </g>
   </g>
   <g id="text_2">
    <!-- $21.20\% $ -->
    <defs>
     <path d="M 41.703125 15.453125 
L 39.90625 15.453125 
C 38.90625 8.375 38.09375 7.171875 37.703125 6.5625 
C 37.203125 5.765625 30 5.765625 28.59375 5.765625 
L 9.40625 5.765625 
C 13 9.671875 20 16.75 28.5 24.953125 
C 34.59375 30.734375 41.703125 37.53125 41.703125 47.421875 
C 41.703125 59.21875 32.296875 66 21.796875 66 
C 10.796875 66 4.09375 56.3125 4.09375 47.34375 
C 4.09375 43.4375 7 42.9375 8.203125 42.9375 
C 9.203125 42.9375 12.203125 43.546875 12.203125 47.03125 
C 12.203125 50.109375 9.59375 51 8.203125 51 
C 7.59375 51 7 50.90625 6.59375 50.703125 
C 8.5 59.21875 14.296875 63.40625 20.40625 63.40625 
C 29.09375 63.40625 34.796875 56.515625 34.796875 47.421875 
C 34.796875 38.734375 29.703125 31.25 24 24.75 
L 4.09375 2.28125 
L 4.09375 0 
L 39.296875 0 
z
" id="CMR17-50"/>
     <path d="M 26.59375 63.40625 
C 26.59375 65.5 26.5 65.5 25.09375 65.5 
C 21.203125 61.1875 15.296875 59.796875 9.703125 59.796875 
C 9.40625 59.796875 8.90625 59.796875 8.796875 59.5 
C 8.703125 59.296875 8.703125 59.09375 8.703125 57 
C 11.796875 57 17 57.59375 21 59.984375 
L 21 7.203125 
C 21 3.6875 20.796875 2.5 12.203125 2.5 
L 9.203125 2.5 
L 9.203125 0 
C 14 0 19 0 23.796875 0 
C 28.59375 0 33.59375 0 38.40625 0 
L 38.40625 2.5 
L 35.40625 2.5 
C 26.796875 2.5 26.59375 3.59375 26.59375 7.15625 
z
" id="CMR17-49"/>
    </defs>
    <g transform="translate(35.868015 62.867952)scale(0.1 -0.1)">
     <use transform="scale(0.996264)" xlink:href="#CMR17-50"/>
     <use transform="translate(45.690477 0)scale(0.996264)" xlink:href="#CMR17-49"/>
     <use transform="translate(91.380954 0)scale(0.996264)" xlink:href="#CMMI12-58"/>
     <use transform="translate(118.478131 0)scale(0.996264)" xlink:href="#CMR17-50"/>
     <use transform="translate(164.168608 0)scale(0.996264)" xlink:href="#CMR17-48"/>
     <use transform="translate(209.859086 0)scale(0.996264)" xlink:href="#CMR17-37"/>
    </g>
   </g>
   <g id="text_3">
    <!-- $34.20\% $ -->
    <g transform="translate(74.524204 117.142037)scale(0.1 -0.1)">
     <use transform="scale(0.996264)" xlink:href="#CMR17-51"/>
     <use transform="translate(45.690477 0)scale(0.996264)" xlink:href="#CMR17-52"/>
     <use transform="translate(91.380954 0)scale(0.996264)" xlink:href="#CMMI12-58"/>
     <use transform="translate(118.478131 0)scale(0.996264)" xlink:href="#CMR17-50"/>
     <use transform="translate(164.168608 0)scale(0.996264)" xlink:href="#CMR17-48"/>
     <use transform="translate(209.859086 0)scale(0.996264)" xlink:href="#CMR17-37"/>
    </g>
   </g>
   <g id="text_4">
    <!-- $9.20\% $ -->
    <defs>
     <path d="M 35.203125 29.125 
C 35.203125 7.25 26.09375 0.484375 18.59375 0.484375 
C 16.296875 0.484375 10.703125 0.484375 8.40625 4.59375 
C 11 4.1875 12.90625 5.578125 12.90625 8.09375 
C 12.90625 10.8125 10.703125 11.703125 9.296875 11.703125 
C 8.40625 11.703125 5.703125 11.296875 5.703125 7.90625 
C 5.703125 1.109375 11.59375 -2 18.796875 -2 
C 30.296875 -2 42 10.53125 42 32.390625 
C 42 59.640625 30.796875 65.296875 23.203125 65.296875 
C 13.296875 65.296875 3.796875 56.6875 3.796875 43.40625 
C 3.796875 31.109375 11.90625 22 22.09375 22 
C 30.5 22 34.203125 29.734375 35.203125 33 
z
M 22.296875 23.59375 
C 19.59375 23.59375 15.796875 24.09375 12.703125 30.03125 
C 10.59375 33.890625 10.59375 38.453125 10.59375 43.296875 
C 10.59375 49.15625 10.59375 53.203125 13.40625 57.5625 
C 14.796875 59.640625 17.40625 63 23.203125 63 
C 35 63 35 45.078125 35 41.125 
C 35 34.09375 31.796875 23.59375 22.296875 23.59375 
" id="CMR17-57"/>
    </defs>
    <g transform="translate(122.344205 86.127628)scale(0.1 -0.1)">
     <use transform="scale(0.996264)" xlink:href="#CMR17-57"/>
     <use transform="translate(45.690477 0)scale(0.996264)" xlink:href="#CMMI12-58"/>
     <use transform="translate(72.787654 0)scale(0.996264)" xlink:href="#CMR17-50"/>
     <use transform="translate(118.478131 0)scale(0.996264)" xlink:href="#CMR17-48"/>
     <use transform="translate(164.168608 0)scale(0.996264)" xlink:href="#CMR17-37"/>
    </g>
   </g>
   <g id="text_5">
    <!-- 125 -->
    <defs>
     <path d="M 28.40625 67 
L 26.5 67 
C 21.09375 61.5625 14.796875 60.78125 8.40625 60.78125 
L 8.40625 55 
C 11.296875 55 16 55 20.703125 57.296875 
L 20.703125 5.765625 
L 8.90625 5.765625 
L 8.90625 0 
L 40.203125 0 
L 40.203125 5.765625 
L 28.40625 5.765625 
z
" id="CMSS17-49"/>
     <path d="M 25.796875 21.203125 
C 28.59375 24.078125 32.796875 27.5625 35.703125 31.046875 
C 38.5 34.4375 42.203125 39.234375 42.203125 46.203125 
C 42.203125 57.140625 34.796875 67 22.203125 67 
C 12.296875 67 6.59375 60.828125 3.90625 51.15625 
L 7.796875 45.765625 
C 10 54.84375 13.09375 60.625 20.90625 60.625 
C 29.5 60.625 34.296875 53.640625 34.296875 45.96875 
C 34.296875 36.796875 27.296875 29.703125 22 24.421875 
C 16.09375 18.546875 10.296875 12.5625 4.703125 6.375 
L 4.703125 0 
L 42.203125 0 
L 42.203125 6.765625 
L 25.203125 6.765625 
C 24 6.765625 22.796875 6.765625 21.59375 6.765625 
L 11.59375 6.765625 
L 11.59375 6.859375 
z
" id="CMSS17-50"/>
     <path d="M 14.59375 58.625 
L 39.09375 58.625 
L 39.09375 65 
L 7.296875 65 
L 7.296875 27.828125 
L 14 27.828125 
C 15.796875 31.96875 19.5 35 24.296875 35 
C 28.796875 35 33.796875 31.078125 33.796875 19.78125 
C 33.796875 7.703125 26.703125 4.171875 21.5 4.171875 
C 15.09375 4.171875 9.203125 8 6.59375 13.296875 
L 3.40625 7.796875 
C 8 0.765625 15.5 -2 21.5 -2 
C 33.09375 -2 42.203125 7.765625 42.203125 19.578125 
C 42.203125 31.71875 34.09375 41.078125 24.40625 41.078125 
C 20.90625 41.078125 17.5 39.890625 14.59375 37.484375 
z
" id="CMSS17-53"/>
    </defs>
    <g transform="translate(86.105504 68.586464)scale(0.1 -0.1)">
     <use transform="scale(0.996264)" xlink:href="#CMSS17-49"/>
     <use transform="translate(46.843624 0)scale(0.996264)" xlink:href="#CMSS17-50"/>
     <use transform="translate(93.687247 0)scale(0.996264)" xlink:href="#CMSS17-53"/>
    </g>
    <!-- cores -->
    <defs>
     <path d="M 38.5 39.703125 
C 38.5 40.390625 33.90625 42.40625 32.703125 42.796875 
C 29.40625 44 25.203125 44 24.09375 44 
C 11.09375 44 3.296875 32.703125 3.296875 21.296875 
C 3.296875 9.296875 12 -1 23.703125 -1 
C 30.40625 -1 35.203125 1.1875 39.09375 3.78125 
L 38.5 10.375 
C 34.203125 7.078125 29.203125 5.265625 23.796875 5.265625 
C 16 5.265625 10.90625 12.09375 10.90625 21.390625 
C 10.90625 28.609375 14.203125 37.71875 24.203125 37.71875 
C 29.703125 37.71875 32.796875 36.609375 37.40625 33.515625 
z
" id="CMSS17-99"/>
     <path d="M 44.203125 21.1875 
C 44.203125 34 34.703125 44 23.5 44 
C 12 44 2.703125 33.703125 2.703125 21.1875 
C 2.703125 8.5 12.296875 -1 23.40625 -1 
C 34.796875 -1 44.203125 8.796875 44.203125 21.1875 
M 23.5 5.265625 
C 16.40625 5.265625 10.296875 11.078125 10.296875 22 
C 10.296875 33.609375 17.40625 37.921875 23.40625 37.921875 
C 29.90625 37.921875 36.59375 33.21875 36.59375 22 
C 36.59375 10.671875 30.09375 5.265625 23.5 5.265625 
" id="CMSS17-111"/>
     <path d="M 14.90625 21.296875 
C 14.90625 30.703125 21.796875 37 30.59375 37 
L 30.59375 43.578125 
C 24.203125 43.578125 18.203125 40.390625 14.59375 35.203125 
L 14.59375 43.09375 
L 7.5 43.09375 
L 7.5 0 
L 14.90625 0 
z
" id="CMSS17-114"/>
     <path d="M 39.09375 21.515625 
C 39.09375 24.84375 38.90625 31.296875 35.703125 36.640625 
C 32.203125 42.390625 26.5 44 22.203125 44 
C 11.796875 44 3 34.1875 3 21.484375 
C 3 9.09375 12.09375 -1 23.59375 -1 
C 28.09375 -1 33.59375 0.296875 38.59375 3.875 
C 38.59375 4.28125 38.40625 6.46875 38.296875 6.5625 
C 38.296875 6.765625 38 9.84375 38 10.25 
C 33.203125 6.359375 27.703125 5.078125 23.703125 5.078125 
C 17.296875 5.078125 10.40625 10.421875 10.09375 21.515625 
z
M 10.90625 27 
C 12.203125 32.5625 16.59375 37.828125 22.203125 37.828125 
C 23.703125 37.828125 30.703125 37.828125 32.5 27 
z
" id="CMSS17-101"/>
     <path d="M 32.203125 41.046875 
C 26.296875 43.859375 21.703125 43.859375 18.703125 43.859375 
C 11.59375 43.859375 3.09375 41.375 3.09375 31.296875 
C 3.09375 21.234375 14.09375 19.03125 17.09375 18.421875 
C 21.703125 17.53125 26.796875 16.53125 26.796875 11.5625 
C 26.796875 5.265625 19.59375 5.265625 18.296875 5.265625 
C 14.296875 5.265625 8.796875 6.359375 3.796875 9.96875 
L 2.59375 3.28125 
C 8.296875 0 13.796875 -1 18.40625 -1 
C 30.703125 -1 33.796875 6.5 33.796875 12.203125 
C 33.796875 17.09375 31 20.390625 29.09375 21.890625 
C 25.796875 24.5 24.59375 24.796875 16.40625 26.5 
C 15 26.703125 10.09375 27.796875 10.09375 32.28125 
C 10.09375 38 16.40625 38 17.796875 38 
C 24.296875 38 28.296875 35.984375 31 34.5 
z
" id="CMSS17-115"/>
    </defs>
    <g transform="translate(83.18591 78.82584)scale(0.1 -0.1)">
     <use transform="scale(0.996264)" xlink:href="#CMSS17-99"/>
     <use transform="translate(41.638822 0)scale(0.996264)" xlink:href="#CMSS17-111"/>
     <use transform="translate(85.879992 0)scale(0.996264)" xlink:href="#CMSS17-114"/>
     <use transform="translate(117.789764 0)scale(0.996264)" xlink:href="#CMSS17-101"/>
     <use transform="translate(159.428586 0)scale(0.996264)" xlink:href="#CMSS17-115"/>
    </g>
   </g>
   <g id="legend_1">
    <g id="patch_7">
     <path d="M 9.2 307.205178 
L 445.073056 307.205178 
Q 447.073056 307.205178 447.073056 305.205178 
L 447.073056 292.268 
Q 447.073056 290.268 445.073056 290.268 
L 9.2 290.268 
Q 7.2 290.268 7.2 292.268 
L 7.2 305.205178 
Q 7.2 307.205178 9.2 307.205178 
z
" style="fill:#e5e5e5;opacity:0.8;stroke:#cccccc;stroke-linejoin:miter;stroke-width:0.5;"/>
    </g>
    <g id="patch_8">
     <path d="M 11.2 301.268 
L 31.2 301.268 
L 31.2 294.268 
L 11.2 294.268 
z
" style="fill:#ff007a;"/>
    </g>
    <g id="text_6">
     <!-- Coarse solve -->
     <defs>
      <path d="M 54.703125 11.15625 
C 48 6.671875 44.90625 5.375 36.796875 5.375 
C 22.796875 5.375 14.59375 20.359375 14.59375 34.046875 
C 14.59375 48.625 23 63 37.203125 63 
C 43.59375 63 47.796875 61.21875 52.90625 58.046875 
L 54.296875 65.890625 
C 49.5 68.28125 43.40625 69.375 37.296875 69.375 
C 18.09375 69.375 6.203125 51.8125 6.203125 34.046875 
C 6.203125 14.484375 20.296875 -1 36.296875 -1 
C 44.90625 -1 47.90625 -0.296875 55.296875 4.375 
z
" id="CMSS17-67"/>
      <path d="M 37.59375 27.984375 
C 37.59375 37.375 30.90625 43.875 21.90625 43.875 
C 17.5 43.875 12.703125 43.078125 7.203125 39.890625 
L 7.796875 33.359375 
C 10.296875 35.125 14.59375 38 21.796875 38 
C 26.90625 38 30 34.0625 30 27.84375 
L 30 24 
C 14 24 4 19.34375 4 11.34375 
C 4 7.203125 6.5 -1 14.796875 -1 
C 16.296875 -1 24.40625 -1 30.203125 3.390625 
L 30.203125 -0.296875 
L 37.59375 -0.296875 
z
M 30 12.75 
C 30 10.953125 30 8.5625 27 6.78125 
C 24.40625 5.078125 21.09375 5.078125 19.703125 5.078125 
C 14.703125 5.078125 11.296875 7.984375 11.296875 11.625 
C 11.296875 18.921875 26.90625 18.921875 30 18.921875 
z
" id="CMSS17-97"/>
      <path d="M 14.796875 69 
L 7.40625 69 
L 7.40625 0 
L 14.796875 0 
z
" id="CMSS17-108"/>
      <path d="M 41.796875 43 
L 34 43 
L 27.296875 24.3125 
C 25.203125 18.203125 22.203125 9.796875 21.703125 5.5 
L 21.59375 5.5 
C 21.40625 7.3125 20.59375 9.90625 20.09375 11.703125 
C 19.5 13.90625 18.703125 16.5 18.09375 18.3125 
L 9.296875 43 
L 1.296875 43 
L 17.09375 0 
L 26 0 
z
" id="CMSS17-118"/>
     </defs>
     <g transform="translate(39.2 301.268)scale(0.1 -0.1)">
      <use transform="scale(0.996264)" xlink:href="#CMSS17-67"/>
      <use transform="translate(59.855772 0)scale(0.996264)" xlink:href="#CMSS17-111"/>
      <use transform="translate(106.699395 0)scale(0.996264)" xlink:href="#CMSS17-97"/>
      <use transform="translate(149.018862 0)scale(0.996264)" xlink:href="#CMSS17-114"/>
      <use transform="translate(180.928634 0)scale(0.996264)" xlink:href="#CMSS17-115"/>
      <use transform="translate(216.842176 0)scale(0.996264)" xlink:href="#CMSS17-101"/>
      <use transform="translate(289.710111 0)scale(0.996264)" xlink:href="#CMSS17-115"/>
      <use transform="translate(325.623653 0)scale(0.996264)" xlink:href="#CMSS17-111"/>
      <use transform="translate(372.467277 0)scale(0.996264)" xlink:href="#CMSS17-108"/>
      <use transform="translate(394.648 0)scale(0.996264)" xlink:href="#CMSS17-118"/>
      <use transform="translate(437.648141 0)scale(0.996264)" xlink:href="#CMSS17-101"/>
     </g>
    </g>
    <g id="patch_9">
     <path d="M 110.230924 301.268 
L 130.230924 301.268 
L 130.230924 294.268 
L 110.230924 294.268 
z
" style="fill:#8280ff;"/>
    </g>
    <g id="text_7">
     <!-- Local assembly + solve -->
     <defs>
      <path d="M 26.09375 6.46875 
C 24.90625 6.46875 23.703125 6.46875 22.5 6.46875 
L 17.203125 6.46875 
L 17.203125 69 
L 8.796875 69 
L 8.796875 0 
L 46.90625 0 
L 46.90625 6.46875 
z
" id="CMSS17-76"/>
      <path d="M 67 29.328125 
C 67 36.0625 65.296875 44 54.09375 44 
C 46.59375 44 42.09375 39.3125 40.09375 36.421875 
C 38.296875 41.71875 34.09375 44 28.09375 44 
C 21.296875 44 17 40.125 14.703125 37.328125 
L 14.703125 43.09375 
L 7.40625 43.09375 
L 7.40625 0 
L 15 0 
L 15 24.359375 
C 15 30.296875 17.203125 37.9375 24.296875 37.9375 
C 33.40625 37.9375 33.40625 31.5 33.40625 28.578125 
L 33.40625 0 
L 41 0 
L 41 24.359375 
C 41 30.296875 43.203125 37.9375 50.296875 37.9375 
C 59.40625 37.9375 59.40625 31.5 59.40625 28.578125 
L 59.40625 0 
L 67 0 
z
" id="CMSS17-109"/>
      <path d="M 14.90625 69 
L 7.5 69 
L 7.5 -0.203125 
L 15.09375 -0.203125 
L 15.09375 4.28125 
C 18.90625 0.59375 23.5 -1 27.59375 -1 
C 37.203125 -1 45 8.578125 45 21.125 
C 45 32.59375 39 43.0625 30.09375 43.0625 
C 23.796875 43.0625 18.203125 40.484375 14.90625 37.796875 
z
M 15.09375 31.96875 
C 17.296875 34.71875 20.40625 37 24.796875 37 
C 30.703125 37 37.40625 32.765625 37.40625 21.125 
C 37.40625 8.71875 29.40625 5.078125 23.90625 5.078125 
C 21.90625 5.078125 19.796875 5.5625 17.796875 7.25 
C 15.09375 9.609375 15.09375 11.078125 15.09375 12.453125 
z
" id="CMSS17-98"/>
      <path d="M 41.796875 43 
L 34 43 
C 25.5 20.21875 22.59375 10.96875 22.40625 5.984375 
L 22.296875 5.984375 
C 22 10.875 17.59375 22.8125 14.09375 31.359375 
L 9.40625 43 
L 1.296875 43 
L 19 0.203125 
C 17.90625 -2.78125 16.296875 -7.265625 15.796875 -8.265625 
C 13.59375 -13.828125 12.09375 -13.828125 10.5 -13.828125 
C 10.09375 -13.828125 6.90625 -13.828125 3.296875 -12.640625 
L 3.90625 -19.203125 
C 6.40625 -19.703125 8.90625 -20 10.703125 -20 
C 13.203125 -20 18.203125 -20 22.796875 -7.765625 
z
" id="CMSS17-121"/>
      <path d="M 38.296875 23.515625 
L 64.703125 23.515625 
C 66.09375 23.515625 67.796875 23.515625 67.796875 25.203125 
C 67.796875 27 66.203125 27 64.703125 27 
L 38.296875 27 
L 38.296875 53.328125 
C 38.296875 54.71875 38.296875 56.421875 36.59375 56.421875 
C 34.796875 56.421875 34.796875 54.828125 34.796875 53.328125 
L 34.796875 27 
L 8.296875 27 
C 6.90625 27 5.203125 27 5.203125 25.3125 
C 5.203125 23.515625 6.796875 23.515625 8.296875 23.515625 
L 34.796875 23.515625 
L 34.796875 -2.90625 
C 34.796875 -4.296875 34.796875 -6 36.5 -6 
C 38.296875 -6 38.296875 -4.40625 38.296875 -2.90625 
z
" id="CMSS17-43"/>
     </defs>
     <g transform="translate(138.230924 301.268)scale(0.1 -0.1)">
      <use transform="scale(0.996264)" xlink:href="#CMSS17-76"/>
      <use transform="translate(50.687105 0)scale(0.996264)" xlink:href="#CMSS17-111"/>
      <use transform="translate(100.133168 0)scale(0.996264)" xlink:href="#CMSS17-99"/>
      <use transform="translate(141.77199 0)scale(0.996264)" xlink:href="#CMSS17-97"/>
      <use transform="translate(186.69391 0)scale(0.996264)" xlink:href="#CMSS17-108"/>
      <use transform="translate(240.103746 0)scale(0.996264)" xlink:href="#CMSS17-97"/>
      <use transform="translate(285.025667 0)scale(0.996264)" xlink:href="#CMSS17-115"/>
      <use transform="translate(320.939209 0)scale(0.996264)" xlink:href="#CMSS17-115"/>
      <use transform="translate(356.852751 0)scale(0.996264)" xlink:href="#CMSS17-101"/>
      <use transform="translate(398.491573 0)scale(0.996264)" xlink:href="#CMSS17-109"/>
      <use transform="translate(472.720827 0)scale(0.996264)" xlink:href="#CMSS17-98"/>
      <use transform="translate(520.92577 0)scale(0.996264)" xlink:href="#CMSS17-108"/>
      <use transform="translate(543.106493 0)scale(0.996264)" xlink:href="#CMSS17-121"/>
      <use transform="translate(617.335748 0)scale(0.996264)" xlink:href="#CMSS17-43"/>
      <use transform="translate(721.432795 0)scale(0.996264)" xlink:href="#CMSS17-115"/>
      <use transform="translate(757.346337 0)scale(0.996264)" xlink:href="#CMSS17-111"/>
      <use transform="translate(804.189961 0)scale(0.996264)" xlink:href="#CMSS17-108"/>
      <use transform="translate(826.370684 0)scale(0.996264)" xlink:href="#CMSS17-118"/>
      <use transform="translate(869.370826 0)scale(0.996264)" xlink:href="#CMSS17-101"/>
     </g>
    </g>
    <g id="patch_10">
     <path d="M 255.28377 301.268 
L 275.28377 301.268 
L 275.28377 294.268 
L 255.28377 294.268 
z
" style="fill:#008042;"/>
    </g>
    <g id="text_8">
     <!-- Coarse assembly -->
     <g transform="translate(283.28377 301.268)scale(0.1 -0.1)">
      <use transform="scale(0.996264)" xlink:href="#CMSS17-67"/>
      <use transform="translate(59.855772 0)scale(0.996264)" xlink:href="#CMSS17-111"/>
      <use transform="translate(106.699395 0)scale(0.996264)" xlink:href="#CMSS17-97"/>
      <use transform="translate(149.018862 0)scale(0.996264)" xlink:href="#CMSS17-114"/>
      <use transform="translate(180.928634 0)scale(0.996264)" xlink:href="#CMSS17-115"/>
      <use transform="translate(216.842176 0)scale(0.996264)" xlink:href="#CMSS17-101"/>
      <use transform="translate(289.710111 0)scale(0.996264)" xlink:href="#CMSS17-97"/>
      <use transform="translate(334.632032 0)scale(0.996264)" xlink:href="#CMSS17-115"/>
      <use transform="translate(370.545574 0)scale(0.996264)" xlink:href="#CMSS17-115"/>
      <use transform="translate(406.459116 0)scale(0.996264)" xlink:href="#CMSS17-101"/>
      <use transform="translate(448.097938 0)scale(0.996264)" xlink:href="#CMSS17-109"/>
      <use transform="translate(522.327192 0)scale(0.996264)" xlink:href="#CMSS17-98"/>
      <use transform="translate(570.532135 0)scale(0.996264)" xlink:href="#CMSS17-108"/>
      <use transform="translate(592.712858 0)scale(0.996264)" xlink:href="#CMSS17-121"/>
     </g>
    </g>
    <g id="patch_11">
     <path d="M 371.002131 301.268 
L 391.002131 301.268 
L 391.002131 294.268 
L 371.002131 294.268 
z
" style="fill:#620080;"/>
    </g>
    <g id="text_9">
     <!-- Remainder -->
     <defs>
      <path d="M 39.40625 32.953125 
L 39.59375 33.046875 
C 55.203125 38.421875 55.296875 49.171875 55.296875 51.0625 
C 55.296875 60.515625 45.703125 69.578125 31.296875 69.578125 
L 8.90625 69.578125 
L 8.90625 0.5 
L 17.09375 0.5 
L 17.09375 32 
L 31.796875 32 
L 49.5 0.5 
L 57.90625 0.5 
z
M 17.09375 38.078125 
L 17.09375 64 
L 30.203125 64 
C 42.90625 64 47.40625 56.828125 47.40625 51.046875 
C 47.40625 45.65625 43.40625 38.078125 30.203125 38.078125 
z
" id="CMSS17-82"/>
      <path d="M 15.296875 65.359375 
L 6.90625 65.359375 
L 6.90625 57 
L 15.296875 57 
z
M 14.796875 42.796875 
L 7.40625 42.796875 
L 7.40625 0 
L 14.796875 0 
z
" id="CMSS17-105"/>
      <path d="M 40.90625 29.328125 
C 40.90625 35.671875 39.40625 44 28.09375 44 
C 21.703125 44 17.5 40.71875 14.703125 37.328125 
L 14.703125 43.09375 
L 7.40625 43.09375 
L 7.40625 0 
L 15 0 
L 15 24.359375 
C 15 30.6875 17.40625 37.9375 24.203125 37.9375 
C 33 37.9375 33.296875 32 33.296875 28.578125 
L 33.296875 0 
L 40.90625 0 
z
" id="CMSS17-110"/>
      <path d="M 40.796875 69 
L 33.40625 69 
L 33.40625 38.09375 
C 30.296875 40.671875 25.203125 43.0625 19.59375 43.0625 
C 10.5 43.0625 3.296875 33.296875 3.296875 21.046875 
C 3.296875 8.78125 10.40625 -1 19.296875 -1 
C 26.203125 -1 30.796875 2.6875 33.203125 4.78125 
L 33.203125 -0.203125 
L 40.796875 -0.203125 
z
M 33.203125 13.0625 
C 33.203125 11.671875 33.203125 10.203125 30.09375 7.53125 
C 28.09375 5.859375 25.703125 5.078125 23.40625 5.078125 
C 18 5.078125 10.90625 9 10.90625 20.9375 
C 10.90625 33.34375 18.90625 37 24.40625 37 
C 28.09375 37 31.09375 35.21875 33.203125 32.265625 
z
" id="CMSS17-100"/>
     </defs>
     <g transform="translate(399.002131 301.268)scale(0.1 -0.1)">
      <use transform="scale(0.996264)" xlink:href="#CMSS17-82"/>
      <use transform="translate(60.416155 0)scale(0.996264)" xlink:href="#CMSS17-101"/>
      <use transform="translate(102.054977 0)scale(0.996264)" xlink:href="#CMSS17-109"/>
      <use transform="translate(176.284231 0)scale(0.996264)" xlink:href="#CMSS17-97"/>
      <use transform="translate(221.206152 0)scale(0.996264)" xlink:href="#CMSS17-105"/>
      <use transform="translate(243.386875 0)scale(0.996264)" xlink:href="#CMSS17-110"/>
      <use transform="translate(291.591818 0)scale(0.996264)" xlink:href="#CMSS17-100"/>
      <use transform="translate(339.796761 0)scale(0.996264)" xlink:href="#CMSS17-101"/>
      <use transform="translate(381.435583 0)scale(0.996264)" xlink:href="#CMSS17-114"/>
     </g>
    </g>
   </g>
  </g>
  <g id="axes_2">
   <g id="matplotlib.axis_3"/>
   <g id="matplotlib.axis_4"/>
   <g id="patch_12">
    <path d="M 221.604196 71.070827 
C 221.604196 65.812574 220.418123 60.621419 218.134526 55.884921 
C 215.85093 51.148424 212.528089 46.987463 208.41408 43.712688 
C 204.300071 40.437912 199.499888 38.132897 194.371899 36.969729 
C 189.243911 35.806562 183.918989 35.814926 178.794681 36.994199 
L 186.636839 71.070827 
L 221.604196 71.070827 
z
" style="fill:#ff007a;"/>
   </g>
   <g id="patch_13">
    <path d="M 178.794681 36.994199 
C 170.535774 38.894847 163.243011 43.734645 158.283221 50.606508 
C 153.323432 57.47837 151.027121 65.924374 151.82467 74.361549 
L 186.636839 71.070827 
L 178.794681 36.994199 
z
" style="fill:#8280ff;"/>
   </g>
   <g id="patch_14">
    <path d="M 151.82467 74.361549 
C 152.475435 81.245922 155.153961 87.784967 159.519805 93.147568 
C 163.88565 98.510169 169.745662 102.459077 176.35503 104.492383 
C 182.964398 106.525689 190.030715 106.553438 196.655849 104.572103 
C 203.280982 102.590767 209.171827 98.688004 213.579653 93.359856 
L 186.636839 71.070827 
L 151.82467 74.361549 
z
" style="fill:#008042;"/>
   </g>
   <g id="patch_15">
    <path d="M 213.579653 93.359856 
C 216.153535 90.248566 218.169149 86.714819 219.536954 82.915594 
C 220.904758 79.116369 221.604196 75.108769 221.604196 71.070824 
L 186.636839 71.070827 
L 213.579653 93.359856 
z
" style="fill:#620080;"/>
   </g>
   <g id="patch_16">
    <path clip-path="url(#pa4279b989e)" d="M 186.636839 97.296344 
C 193.591928 97.296344 200.26309 94.533058 205.18108 89.615068 
C 210.099071 84.697078 212.862357 78.025916 212.862357 71.070827 
C 212.862357 64.115739 210.099071 57.444576 205.18108 52.526586 
C 200.26309 47.608596 193.591928 44.84531 186.636839 44.84531 
C 179.681751 44.84531 173.010588 47.608596 168.092598 52.526586 
C 163.174608 57.444576 160.411322 64.115739 160.411322 71.070827 
C 160.411322 78.025916 163.174608 84.697078 168.092598 89.615068 
C 173.010588 94.533058 179.681751 97.296344 186.636839 97.296344 
z
" style="fill:#ffffff;stroke:#ffffff;stroke-linejoin:miter;stroke-width:0.5;"/>
   </g>
   <g id="text_10">
    <!-- $28.60\% $ -->
    <defs>
     <path d="M 27.203125 35.375 
C 33.5 38.546875 39.90625 43.328125 39.90625 50.984375 
C 39.90625 60.015625 31.09375 65.296875 23 65.296875 
C 13.90625 65.296875 5.90625 58.734375 5.90625 49.6875 
C 5.90625 47.203125 6.5 42.921875 10.40625 39.140625 
C 11.40625 38.15625 15.59375 35.171875 18.296875 33.28125 
C 13.796875 30.984375 3.296875 25.53125 3.296875 14.59375 
C 3.296875 4.359375 13.09375 -2 22.796875 -2 
C 33.5 -2 42.5 5.65625 42.5 15.78125 
C 42.5 24.84375 36.40625 29.015625 32.40625 31.703125 
z
M 14.09375 44.09375 
C 13.296875 44.59375 9.296875 47.671875 9.296875 52.359375 
C 9.296875 58.421875 15.59375 63 22.796875 63 
C 30.703125 63 36.5 57.4375 36.5 50.96875 
C 36.5 41.703125 26.09375 36.421875 25.59375 36.421875 
C 25.5 36.421875 25.40625 36.421875 24.59375 37.03125 
z
M 32.5 23.734375 
C 34 22.640625 38.796875 19.375 38.796875 13.296875 
C 38.796875 5.953125 31.40625 0.390625 23 0.390625 
C 13.90625 0.390625 7 6.84375 7 14.6875 
C 7 22.546875 13.09375 29.09375 20 32.1875 
z
" id="CMR17-56"/>
     <path d="M 10.59375 34 
C 10.59375 57.65625 21.796875 63 28.296875 63 
C 30.40625 63 35.5 62.640625 37.5 59 
C 35.90625 59 32.90625 59 32.90625 55.515625 
C 32.90625 52.828125 35.09375 51.921875 36.5 51.921875 
C 37.40625 51.921875 40.09375 52.3125 40.09375 55.625 
C 40.09375 61.78125 35.09375 65.296875 28.203125 65.296875 
C 16.296875 65.296875 3.796875 52.96875 3.796875 31 
C 3.796875 3.953125 15.09375 -2 23.09375 -2 
C 32.796875 -2 42 6.671875 42 20.046875 
C 42 32.515625 33.90625 41.59375 23.703125 41.59375 
C 17.59375 41.59375 13.09375 37.609375 10.59375 30.625 
z
M 23.09375 0.390625 
C 10.796875 0.390625 10.796875 18.75 10.796875 22.4375 
C 10.796875 29.625 14.203125 40 23.5 40 
C 25.203125 40 30.09375 40 33.40625 33.125 
C 35.203125 29.21875 35.203125 25.140625 35.203125 20.140625 
C 35.203125 14.75 35.203125 10.78125 33.09375 6.78125 
C 30.90625 2.671875 27.703125 0.390625 23.09375 0.390625 
" id="CMR17-54"/>
    </defs>
    <g transform="translate(198.360903 39.363813)scale(0.1 -0.1)">
     <use transform="scale(0.996264)" xlink:href="#CMR17-50"/>
     <use transform="translate(45.690477 0)scale(0.996264)" xlink:href="#CMR17-56"/>
     <use transform="translate(91.380954 0)scale(0.996264)" xlink:href="#CMMI12-58"/>
     <use transform="translate(118.478131 0)scale(0.996264)" xlink:href="#CMR17-54"/>
     <use transform="translate(164.168608 0)scale(0.996264)" xlink:href="#CMR17-48"/>
     <use transform="translate(209.859086 0)scale(0.996264)" xlink:href="#CMR17-37"/>
    </g>
   </g>
   <g id="text_11">
    <!-- $22.90\% $ -->
    <g transform="translate(135.69733 47.981088)scale(0.1 -0.1)">
     <use transform="scale(0.996264)" xlink:href="#CMR17-50"/>
     <use transform="translate(45.690477 0)scale(0.996264)" xlink:href="#CMR17-50"/>
     <use transform="translate(91.380954 0)scale(0.996264)" xlink:href="#CMMI12-58"/>
     <use transform="translate(118.478131 0)scale(0.996264)" xlink:href="#CMR17-57"/>
     <use transform="translate(164.168608 0)scale(0.996264)" xlink:href="#CMR17-48"/>
     <use transform="translate(209.859086 0)scale(0.996264)" xlink:href="#CMR17-37"/>
    </g>
   </g>
   <g id="text_12">
    <!-- $37.50\% $ -->
    <defs>
     <path d="M 45.09375 61.578125 
L 45.09375 63.765625 
L 21.59375 63.765625 
C 9.90625 63.765625 9.703125 65.078125 9.296875 67 
L 7.5 67 
L 4.59375 48.34375 
L 6.40625 48.34375 
C 6.703125 50.234375 7.40625 55.3125 8.59375 57.203125 
C 9.203125 58 16.59375 58 18.296875 58 
L 40.296875 58 
L 29.203125 41.578125 
C 21.796875 30.53125 16.703125 15.609375 16.703125 2.578125 
C 16.703125 1.390625 16.703125 -2 20.296875 -2 
C 23.90625 -2 23.90625 1.390625 23.90625 2.671875 
L 23.90625 7.265625 
C 23.90625 23.5625 26.703125 34.3125 31.296875 41.1875 
z
" id="CMR17-55"/>
    </defs>
    <g transform="translate(158.28709 115.338432)scale(0.1 -0.1)">
     <use transform="scale(0.996264)" xlink:href="#CMR17-51"/>
     <use transform="translate(45.690477 0)scale(0.996264)" xlink:href="#CMR17-55"/>
     <use transform="translate(91.380954 0)scale(0.996264)" xlink:href="#CMMI12-58"/>
     <use transform="translate(118.478131 0)scale(0.996264)" xlink:href="#CMR17-53"/>
     <use transform="translate(164.168608 0)scale(0.996264)" xlink:href="#CMR17-48"/>
     <use transform="translate(209.859086 0)scale(0.996264)" xlink:href="#CMR17-37"/>
    </g>
   </g>
   <g id="text_13">
    <!-- $11.00\% $ -->
    <g transform="translate(212.264495 88.367445)scale(0.1 -0.1)">
     <use transform="scale(0.996264)" xlink:href="#CMR17-49"/>
     <use transform="translate(45.690477 0)scale(0.996264)" xlink:href="#CMR17-49"/>
     <use transform="translate(91.380954 0)scale(0.996264)" xlink:href="#CMMI12-58"/>
     <use transform="translate(118.478131 0)scale(0.996264)" xlink:href="#CMR17-48"/>
     <use transform="translate(164.168608 0)scale(0.996264)" xlink:href="#CMR17-48"/>
     <use transform="translate(209.859086 0)scale(0.996264)" xlink:href="#CMR17-37"/>
    </g>
   </g>
   <g id="text_14">
    <!-- 216 -->
    <defs>
     <path d="M 39 64.078125 
C 34.796875 65.78125 31.796875 66.078125 29 66.078125 
C 16 66.078125 3.90625 52.625 3.90625 31.34375 
C 3.90625 4.140625 15.40625 -2 23.59375 -2 
C 28.09375 -2 32.59375 -0.609375 36.90625 4.375 
C 41.296875 9.640625 43 14.03125 43 21.703125 
C 43 34.046875 36.90625 45 27.796875 45 
C 21.203125 45 15.5 41.515625 12 37.125 
C 13 50.90625 19.59375 60 29.09375 60 
C 31.703125 60 35.09375 59.625 39 57.96875 
z
M 12.09375 21.390625 
C 12.09375 22.1875 12.09375 22.6875 12.203125 24.1875 
C 12.203125 31.953125 16.703125 38.921875 24 38.921875 
C 28.703125 38.921875 31.09375 36.4375 32.90625 33.359375 
C 35 29.46875 35.09375 25.78125 35.09375 21.6875 
C 35.09375 17.8125 35.09375 13.921875 32.796875 9.953125 
C 30.90625 6.859375 28.40625 4.171875 23.59375 4.171875 
C 14.09375 4.171875 12.5 17.40625 12.09375 21.390625 
" id="CMSS17-54"/>
    </defs>
    <g transform="translate(179.164836 68.441799)scale(0.1 -0.1)">
     <use transform="scale(0.996264)" xlink:href="#CMSS17-50"/>
     <use transform="translate(46.843624 0)scale(0.996264)" xlink:href="#CMSS17-49"/>
     <use transform="translate(93.687247 0)scale(0.996264)" xlink:href="#CMSS17-54"/>
    </g>
    <!-- cores -->
    <g transform="translate(176.245243 78.681175)scale(0.1 -0.1)">
     <use transform="scale(0.996264)" xlink:href="#CMSS17-99"/>
     <use transform="translate(41.638822 0)scale(0.996264)" xlink:href="#CMSS17-111"/>
     <use transform="translate(85.879992 0)scale(0.996264)" xlink:href="#CMSS17-114"/>
     <use transform="translate(117.789764 0)scale(0.996264)" xlink:href="#CMSS17-101"/>
     <use transform="translate(159.428586 0)scale(0.996264)" xlink:href="#CMSS17-115"/>
    </g>
   </g>
   <g id="legend_2">
    <g id="patch_17">
     <path d="M 9.2 307.205178 
L 445.073056 307.205178 
Q 447.073056 307.205178 447.073056 305.205178 
L 447.073056 292.268 
Q 447.073056 290.268 445.073056 290.268 
L 9.2 290.268 
Q 7.2 290.268 7.2 292.268 
L 7.2 305.205178 
Q 7.2 307.205178 9.2 307.205178 
z
" style="fill:#e5e5e5;opacity:0.8;stroke:#cccccc;stroke-linejoin:miter;stroke-width:0.5;"/>
    </g>
    <g id="patch_18">
     <path d="M 11.2 301.268 
L 31.2 301.268 
L 31.2 294.268 
L 11.2 294.268 
z
" style="fill:#ff007a;"/>
    </g>
    <g id="text_15">
     <!-- Coarse solve -->
     <g transform="translate(39.2 301.268)scale(0.1 -0.1)">
      <use transform="scale(0.996264)" xlink:href="#CMSS17-67"/>
      <use transform="translate(59.855772 0)scale(0.996264)" xlink:href="#CMSS17-111"/>
      <use transform="translate(106.699395 0)scale(0.996264)" xlink:href="#CMSS17-97"/>
      <use transform="translate(149.018862 0)scale(0.996264)" xlink:href="#CMSS17-114"/>
      <use transform="translate(180.928634 0)scale(0.996264)" xlink:href="#CMSS17-115"/>
      <use transform="translate(216.842176 0)scale(0.996264)" xlink:href="#CMSS17-101"/>
      <use transform="translate(289.710111 0)scale(0.996264)" xlink:href="#CMSS17-115"/>
      <use transform="translate(325.623653 0)scale(0.996264)" xlink:href="#CMSS17-111"/>
      <use transform="translate(372.467277 0)scale(0.996264)" xlink:href="#CMSS17-108"/>
      <use transform="translate(394.648 0)scale(0.996264)" xlink:href="#CMSS17-118"/>
      <use transform="translate(437.648141 0)scale(0.996264)" xlink:href="#CMSS17-101"/>
     </g>
    </g>
    <g id="patch_19">
     <path d="M 110.230924 301.268 
L 130.230924 301.268 
L 130.230924 294.268 
L 110.230924 294.268 
z
" style="fill:#8280ff;"/>
    </g>
    <g id="text_16">
     <!-- Local assembly + solve -->
     <g transform="translate(138.230924 301.268)scale(0.1 -0.1)">
      <use transform="scale(0.996264)" xlink:href="#CMSS17-76"/>
      <use transform="translate(50.687105 0)scale(0.996264)" xlink:href="#CMSS17-111"/>
      <use transform="translate(100.133168 0)scale(0.996264)" xlink:href="#CMSS17-99"/>
      <use transform="translate(141.77199 0)scale(0.996264)" xlink:href="#CMSS17-97"/>
      <use transform="translate(186.69391 0)scale(0.996264)" xlink:href="#CMSS17-108"/>
      <use transform="translate(240.103746 0)scale(0.996264)" xlink:href="#CMSS17-97"/>
      <use transform="translate(285.025667 0)scale(0.996264)" xlink:href="#CMSS17-115"/>
      <use transform="translate(320.939209 0)scale(0.996264)" xlink:href="#CMSS17-115"/>
      <use transform="translate(356.852751 0)scale(0.996264)" xlink:href="#CMSS17-101"/>
      <use transform="translate(398.491573 0)scale(0.996264)" xlink:href="#CMSS17-109"/>
      <use transform="translate(472.720827 0)scale(0.996264)" xlink:href="#CMSS17-98"/>
      <use transform="translate(520.92577 0)scale(0.996264)" xlink:href="#CMSS17-108"/>
      <use transform="translate(543.106493 0)scale(0.996264)" xlink:href="#CMSS17-121"/>
      <use transform="translate(617.335748 0)scale(0.996264)" xlink:href="#CMSS17-43"/>
      <use transform="translate(721.432795 0)scale(0.996264)" xlink:href="#CMSS17-115"/>
      <use transform="translate(757.346337 0)scale(0.996264)" xlink:href="#CMSS17-111"/>
      <use transform="translate(804.189961 0)scale(0.996264)" xlink:href="#CMSS17-108"/>
      <use transform="translate(826.370684 0)scale(0.996264)" xlink:href="#CMSS17-118"/>
      <use transform="translate(869.370826 0)scale(0.996264)" xlink:href="#CMSS17-101"/>
     </g>
    </g>
    <g id="patch_20">
     <path d="M 255.28377 301.268 
L 275.28377 301.268 
L 275.28377 294.268 
L 255.28377 294.268 
z
" style="fill:#008042;"/>
    </g>
    <g id="text_17">
     <!-- Coarse assembly -->
     <g transform="translate(283.28377 301.268)scale(0.1 -0.1)">
      <use transform="scale(0.996264)" xlink:href="#CMSS17-67"/>
      <use transform="translate(59.855772 0)scale(0.996264)" xlink:href="#CMSS17-111"/>
      <use transform="translate(106.699395 0)scale(0.996264)" xlink:href="#CMSS17-97"/>
      <use transform="translate(149.018862 0)scale(0.996264)" xlink:href="#CMSS17-114"/>
      <use transform="translate(180.928634 0)scale(0.996264)" xlink:href="#CMSS17-115"/>
      <use transform="translate(216.842176 0)scale(0.996264)" xlink:href="#CMSS17-101"/>
      <use transform="translate(289.710111 0)scale(0.996264)" xlink:href="#CMSS17-97"/>
      <use transform="translate(334.632032 0)scale(0.996264)" xlink:href="#CMSS17-115"/>
      <use transform="translate(370.545574 0)scale(0.996264)" xlink:href="#CMSS17-115"/>
      <use transform="translate(406.459116 0)scale(0.996264)" xlink:href="#CMSS17-101"/>
      <use transform="translate(448.097938 0)scale(0.996264)" xlink:href="#CMSS17-109"/>
      <use transform="translate(522.327192 0)scale(0.996264)" xlink:href="#CMSS17-98"/>
      <use transform="translate(570.532135 0)scale(0.996264)" xlink:href="#CMSS17-108"/>
      <use transform="translate(592.712858 0)scale(0.996264)" xlink:href="#CMSS17-121"/>
     </g>
    </g>
    <g id="patch_21">
     <path d="M 371.002131 301.268 
L 391.002131 301.268 
L 391.002131 294.268 
L 371.002131 294.268 
z
" style="fill:#620080;"/>
    </g>
    <g id="text_18">
     <!-- Remainder -->
     <g transform="translate(399.002131 301.268)scale(0.1 -0.1)">
      <use transform="scale(0.996264)" xlink:href="#CMSS17-82"/>
      <use transform="translate(60.416155 0)scale(0.996264)" xlink:href="#CMSS17-101"/>
      <use transform="translate(102.054977 0)scale(0.996264)" xlink:href="#CMSS17-109"/>
      <use transform="translate(176.284231 0)scale(0.996264)" xlink:href="#CMSS17-97"/>
      <use transform="translate(221.206152 0)scale(0.996264)" xlink:href="#CMSS17-105"/>
      <use transform="translate(243.386875 0)scale(0.996264)" xlink:href="#CMSS17-110"/>
      <use transform="translate(291.591818 0)scale(0.996264)" xlink:href="#CMSS17-100"/>
      <use transform="translate(339.796761 0)scale(0.996264)" xlink:href="#CMSS17-101"/>
      <use transform="translate(381.435583 0)scale(0.996264)" xlink:href="#CMSS17-114"/>
     </g>
    </g>
   </g>
  </g>
  <g id="axes_3">
   <g id="matplotlib.axis_5"/>
   <g id="matplotlib.axis_6"/>
   <g id="patch_22">
    <path d="M 314.765935 71.017205 
C 314.765935 65.803504 313.606493 60.654463 311.371797 55.943962 
C 309.137102 51.233462 305.882582 47.078341 301.844555 43.780309 
C 297.806527 40.482277 293.085151 38.123139 288.023251 36.874195 
C 282.961352 35.625252 277.684487 35.517481 272.575815 36.55871 
L 279.599003 71.017205 
L 314.765935 71.017205 
z
" style="fill:#ff007a;"/>
   </g>
   <g id="patch_23">
    <path d="M 272.575815 36.55871 
C 264.447551 38.215379 257.16189 42.695795 252.016048 49.202218 
C 246.870206 55.70864 244.18886 63.830547 244.449425 72.121828 
L 279.599003 71.017205 
L 272.575815 36.55871 
z
" style="fill:#8280ff;"/>
   </g>
   <g id="patch_24">
    <path d="M 244.449425 72.121828 
C 244.664329 78.960174 246.870232 85.589432 250.795461 91.193157 
C 254.72069 96.796883 260.197206 101.135182 266.550535 103.67376 
C 272.903864 106.212338 279.862021 106.842519 286.568055 105.48669 
C 293.274089 104.130862 299.440917 100.847068 304.309047 96.039732 
L 279.599003 71.017205 
L 244.449425 72.121828 
z
" style="fill:#008042;"/>
   </g>
   <g id="patch_25">
    <path d="M 304.309047 96.039732 
C 307.621431 92.768713 310.251578 88.872294 312.046573 84.577011 
C 313.841567 80.281728 314.765935 75.672467 314.765935 71.017205 
L 279.599003 71.017205 
L 304.309047 96.039732 
z
" style="fill:#620080;"/>
   </g>
   <g id="patch_26">
    <path clip-path="url(#pec9973d35c)" d="M 279.599003 97.392404 
C 286.593788 97.392404 293.303026 94.613347 298.249085 89.667287 
C 303.195145 84.721228 305.974202 78.01199 305.974202 71.017205 
C 305.974202 64.022421 303.195145 57.313183 298.249085 52.367123 
C 293.303026 47.421064 286.593788 44.642006 279.599003 44.642006 
C 272.604219 44.642006 265.894981 47.421064 260.948921 52.367123 
C 256.002862 57.313183 253.223805 64.022421 253.223805 71.017205 
C 253.223805 78.01199 256.002862 84.721228 260.948921 89.667287 
C 265.894981 94.613347 272.604219 97.392404 279.599003 97.392404 
z
" style="fill:#ffffff;stroke:#ffffff;stroke-linejoin:miter;stroke-width:0.5;"/>
   </g>
   <g id="text_19">
    <!-- $28.20\% $ -->
    <g transform="translate(291.908455 39.461745)scale(0.1 -0.1)">
     <use transform="scale(0.996264)" xlink:href="#CMR17-50"/>
     <use transform="translate(45.690477 0)scale(0.996264)" xlink:href="#CMR17-56"/>
     <use transform="translate(91.380954 0)scale(0.996264)" xlink:href="#CMMI12-58"/>
     <use transform="translate(118.478131 0)scale(0.996264)" xlink:href="#CMR17-50"/>
     <use transform="translate(164.168608 0)scale(0.996264)" xlink:href="#CMR17-48"/>
     <use transform="translate(209.859086 0)scale(0.996264)" xlink:href="#CMR17-37"/>
    </g>
   </g>
   <g id="text_20">
    <!-- $22.30\% $ -->
    <g transform="translate(229.622822 46.239131)scale(0.1 -0.1)">
     <use transform="scale(0.996264)" xlink:href="#CMR17-50"/>
     <use transform="translate(45.690477 0)scale(0.996264)" xlink:href="#CMR17-50"/>
     <use transform="translate(91.380954 0)scale(0.996264)" xlink:href="#CMMI12-58"/>
     <use transform="translate(118.478131 0)scale(0.996264)" xlink:href="#CMR17-51"/>
     <use transform="translate(164.168608 0)scale(0.996264)" xlink:href="#CMR17-48"/>
     <use transform="translate(209.859086 0)scale(0.996264)" xlink:href="#CMR17-37"/>
    </g>
   </g>
   <g id="text_21">
    <!-- $36.90\% $ -->
    <g transform="translate(247.790931 114.328559)scale(0.1 -0.1)">
     <use transform="scale(0.996264)" xlink:href="#CMR17-51"/>
     <use transform="translate(45.690477 0)scale(0.996264)" xlink:href="#CMR17-54"/>
     <use transform="translate(91.380954 0)scale(0.996264)" xlink:href="#CMMI12-58"/>
     <use transform="translate(118.478131 0)scale(0.996264)" xlink:href="#CMR17-57"/>
     <use transform="translate(164.168608 0)scale(0.996264)" xlink:href="#CMR17-48"/>
     <use transform="translate(209.859086 0)scale(0.996264)" xlink:href="#CMR17-37"/>
    </g>
   </g>
   <g id="text_22">
    <!-- $12.60\% $ -->
    <g transform="translate(304.660977 90.457623)scale(0.1 -0.1)">
     <use transform="scale(0.996264)" xlink:href="#CMR17-49"/>
     <use transform="translate(45.690477 0)scale(0.996264)" xlink:href="#CMR17-50"/>
     <use transform="translate(91.380954 0)scale(0.996264)" xlink:href="#CMMI12-58"/>
     <use transform="translate(118.478131 0)scale(0.996264)" xlink:href="#CMR17-54"/>
     <use transform="translate(164.168608 0)scale(0.996264)" xlink:href="#CMR17-48"/>
     <use transform="translate(209.859086 0)scale(0.996264)" xlink:href="#CMR17-37"/>
    </g>
   </g>
   <g id="text_23">
    <!-- 343 -->
    <defs>
     <path d="M 15.703125 31.640625 
L 22.5 31.640625 
C 31.90625 31.640625 34.59375 23.546875 34.59375 17.90625 
C 34.59375 10.203125 30.203125 4.171875 23 4.171875 
C 17.40625 4.171875 9.5 6.9375 5 14.25 
C 4.296875 10.796875 4.296875 10.59375 3.90625 8.21875 
C 8.59375 1.375 16.203125 -2 23.203125 -2 
C 34.59375 -2 43 7.390625 43 17.78125 
C 43 25.59375 37.5 32.140625 30 34.609375 
C 36 37.875 40.40625 44 40.40625 51.140625 
C 40.40625 59.453125 32.703125 66.078125 23.296875 66.078125 
C 14.703125 66.078125 8 60.8125 5.203125 55.15625 
C 5.90625 54.1875 7.703125 51.3125 8.59375 49.828125 
C 10.796875 55.65625 16.5 60 23.203125 60 
C 28.796875 60 32.5 56.359375 32.5 51.109375 
C 32.5 45.671875 29 39.734375 23.09375 38.359375 
C 22.703125 38.359375 16.5 37.765625 15.703125 37.671875 
z
" id="CMSS17-51"/>
     <path d="M 35.203125 17 
L 44.296875 17 
L 44.296875 23.078125 
L 35.203125 23.078125 
L 35.203125 65.5 
L 26.40625 65.5 
L 2.59375 23.078125 
L 2.59375 17 
L 27.296875 17 
L 27.296875 0 
L 35.203125 0 
z
M 10.296875 23.078125 
C 16.09375 33.234375 27.59375 53.734375 27.59375 60.703125 
L 27.59375 23.078125 
z
" id="CMSS17-52"/>
    </defs>
    <g transform="translate(272.127001 68.388177)scale(0.1 -0.1)">
     <use transform="scale(0.996264)" xlink:href="#CMSS17-51"/>
     <use transform="translate(46.843624 0)scale(0.996264)" xlink:href="#CMSS17-52"/>
     <use transform="translate(93.687247 0)scale(0.996264)" xlink:href="#CMSS17-51"/>
    </g>
    <!-- cores -->
    <g transform="translate(269.207407 78.627553)scale(0.1 -0.1)">
     <use transform="scale(0.996264)" xlink:href="#CMSS17-99"/>
     <use transform="translate(41.638822 0)scale(0.996264)" xlink:href="#CMSS17-111"/>
     <use transform="translate(85.879992 0)scale(0.996264)" xlink:href="#CMSS17-114"/>
     <use transform="translate(117.789764 0)scale(0.996264)" xlink:href="#CMSS17-101"/>
     <use transform="translate(159.428586 0)scale(0.996264)" xlink:href="#CMSS17-115"/>
    </g>
   </g>
   <g id="legend_3">
    <g id="patch_27">
     <path d="M 9.2 307.205178 
L 445.073056 307.205178 
Q 447.073056 307.205178 447.073056 305.205178 
L 447.073056 292.268 
Q 447.073056 290.268 445.073056 290.268 
L 9.2 290.268 
Q 7.2 290.268 7.2 292.268 
L 7.2 305.205178 
Q 7.2 307.205178 9.2 307.205178 
z
" style="fill:#e5e5e5;opacity:0.8;stroke:#cccccc;stroke-linejoin:miter;stroke-width:0.5;"/>
    </g>
    <g id="patch_28">
     <path d="M 11.2 301.268 
L 31.2 301.268 
L 31.2 294.268 
L 11.2 294.268 
z
" style="fill:#ff007a;"/>
    </g>
    <g id="text_24">
     <!-- Coarse solve -->
     <g transform="translate(39.2 301.268)scale(0.1 -0.1)">
      <use transform="scale(0.996264)" xlink:href="#CMSS17-67"/>
      <use transform="translate(59.855772 0)scale(0.996264)" xlink:href="#CMSS17-111"/>
      <use transform="translate(106.699395 0)scale(0.996264)" xlink:href="#CMSS17-97"/>
      <use transform="translate(149.018862 0)scale(0.996264)" xlink:href="#CMSS17-114"/>
      <use transform="translate(180.928634 0)scale(0.996264)" xlink:href="#CMSS17-115"/>
      <use transform="translate(216.842176 0)scale(0.996264)" xlink:href="#CMSS17-101"/>
      <use transform="translate(289.710111 0)scale(0.996264)" xlink:href="#CMSS17-115"/>
      <use transform="translate(325.623653 0)scale(0.996264)" xlink:href="#CMSS17-111"/>
      <use transform="translate(372.467277 0)scale(0.996264)" xlink:href="#CMSS17-108"/>
      <use transform="translate(394.648 0)scale(0.996264)" xlink:href="#CMSS17-118"/>
      <use transform="translate(437.648141 0)scale(0.996264)" xlink:href="#CMSS17-101"/>
     </g>
    </g>
    <g id="patch_29">
     <path d="M 110.230924 301.268 
L 130.230924 301.268 
L 130.230924 294.268 
L 110.230924 294.268 
z
" style="fill:#8280ff;"/>
    </g>
    <g id="text_25">
     <!-- Local assembly + solve -->
     <g transform="translate(138.230924 301.268)scale(0.1 -0.1)">
      <use transform="scale(0.996264)" xlink:href="#CMSS17-76"/>
      <use transform="translate(50.687105 0)scale(0.996264)" xlink:href="#CMSS17-111"/>
      <use transform="translate(100.133168 0)scale(0.996264)" xlink:href="#CMSS17-99"/>
      <use transform="translate(141.77199 0)scale(0.996264)" xlink:href="#CMSS17-97"/>
      <use transform="translate(186.69391 0)scale(0.996264)" xlink:href="#CMSS17-108"/>
      <use transform="translate(240.103746 0)scale(0.996264)" xlink:href="#CMSS17-97"/>
      <use transform="translate(285.025667 0)scale(0.996264)" xlink:href="#CMSS17-115"/>
      <use transform="translate(320.939209 0)scale(0.996264)" xlink:href="#CMSS17-115"/>
      <use transform="translate(356.852751 0)scale(0.996264)" xlink:href="#CMSS17-101"/>
      <use transform="translate(398.491573 0)scale(0.996264)" xlink:href="#CMSS17-109"/>
      <use transform="translate(472.720827 0)scale(0.996264)" xlink:href="#CMSS17-98"/>
      <use transform="translate(520.92577 0)scale(0.996264)" xlink:href="#CMSS17-108"/>
      <use transform="translate(543.106493 0)scale(0.996264)" xlink:href="#CMSS17-121"/>
      <use transform="translate(617.335748 0)scale(0.996264)" xlink:href="#CMSS17-43"/>
      <use transform="translate(721.432795 0)scale(0.996264)" xlink:href="#CMSS17-115"/>
      <use transform="translate(757.346337 0)scale(0.996264)" xlink:href="#CMSS17-111"/>
      <use transform="translate(804.189961 0)scale(0.996264)" xlink:href="#CMSS17-108"/>
      <use transform="translate(826.370684 0)scale(0.996264)" xlink:href="#CMSS17-118"/>
      <use transform="translate(869.370826 0)scale(0.996264)" xlink:href="#CMSS17-101"/>
     </g>
    </g>
    <g id="patch_30">
     <path d="M 255.28377 301.268 
L 275.28377 301.268 
L 275.28377 294.268 
L 255.28377 294.268 
z
" style="fill:#008042;"/>
    </g>
    <g id="text_26">
     <!-- Coarse assembly -->
     <g transform="translate(283.28377 301.268)scale(0.1 -0.1)">
      <use transform="scale(0.996264)" xlink:href="#CMSS17-67"/>
      <use transform="translate(59.855772 0)scale(0.996264)" xlink:href="#CMSS17-111"/>
      <use transform="translate(106.699395 0)scale(0.996264)" xlink:href="#CMSS17-97"/>
      <use transform="translate(149.018862 0)scale(0.996264)" xlink:href="#CMSS17-114"/>
      <use transform="translate(180.928634 0)scale(0.996264)" xlink:href="#CMSS17-115"/>
      <use transform="translate(216.842176 0)scale(0.996264)" xlink:href="#CMSS17-101"/>
      <use transform="translate(289.710111 0)scale(0.996264)" xlink:href="#CMSS17-97"/>
      <use transform="translate(334.632032 0)scale(0.996264)" xlink:href="#CMSS17-115"/>
      <use transform="translate(370.545574 0)scale(0.996264)" xlink:href="#CMSS17-115"/>
      <use transform="translate(406.459116 0)scale(0.996264)" xlink:href="#CMSS17-101"/>
      <use transform="translate(448.097938 0)scale(0.996264)" xlink:href="#CMSS17-109"/>
      <use transform="translate(522.327192 0)scale(0.996264)" xlink:href="#CMSS17-98"/>
      <use transform="translate(570.532135 0)scale(0.996264)" xlink:href="#CMSS17-108"/>
      <use transform="translate(592.712858 0)scale(0.996264)" xlink:href="#CMSS17-121"/>
     </g>
    </g>
    <g id="patch_31">
     <path d="M 371.002131 301.268 
L 391.002131 301.268 
L 391.002131 294.268 
L 371.002131 294.268 
z
" style="fill:#620080;"/>
    </g>
    <g id="text_27">
     <!-- Remainder -->
     <g transform="translate(399.002131 301.268)scale(0.1 -0.1)">
      <use transform="scale(0.996264)" xlink:href="#CMSS17-82"/>
      <use transform="translate(60.416155 0)scale(0.996264)" xlink:href="#CMSS17-101"/>
      <use transform="translate(102.054977 0)scale(0.996264)" xlink:href="#CMSS17-109"/>
      <use transform="translate(176.284231 0)scale(0.996264)" xlink:href="#CMSS17-97"/>
      <use transform="translate(221.206152 0)scale(0.996264)" xlink:href="#CMSS17-105"/>
      <use transform="translate(243.386875 0)scale(0.996264)" xlink:href="#CMSS17-110"/>
      <use transform="translate(291.591818 0)scale(0.996264)" xlink:href="#CMSS17-100"/>
      <use transform="translate(339.796761 0)scale(0.996264)" xlink:href="#CMSS17-101"/>
      <use transform="translate(381.435583 0)scale(0.996264)" xlink:href="#CMSS17-114"/>
     </g>
    </g>
   </g>
  </g>
  <g id="axes_4">
   <g id="matplotlib.axis_7"/>
   <g id="matplotlib.axis_8"/>
   <g id="patch_32">
    <path d="M 407.927674 71.363722 
C 407.927674 70.477989 407.894279 69.59257 407.827559 68.709354 
C 407.76084 67.826137 407.660844 66.94575 407.527784 66.070068 
L 372.689642 71.363722 
L 407.927674 71.363722 
z
" style="fill:#ff007a;"/>
   </g>
   <g id="patch_33">
    <path d="M 407.527784 66.070068 
C 406.877374 61.789647 405.443622 57.665521 403.298507 53.904734 
C 401.153392 50.143947 398.333423 46.810505 394.98017 44.071759 
L 372.689642 71.363722 
L 407.527784 66.070068 
z
" style="fill:#8280ff;"/>
   </g>
   <g id="patch_34">
    <path d="M 394.98017 44.071759 
C 389.334612 39.460787 382.395044 36.713218 375.123182 36.209821 
C 367.851321 35.706424 360.599358 37.47158 354.372303 41.260666 
L 372.689642 71.363722 
L 394.98017 44.071759 
z
" style="fill:#008042;"/>
   </g>
   <g id="patch_35">
    <path d="M 354.372303 41.260666 
C 349.117891 44.457911 344.791022 48.975843 341.823663 54.363422 
C 338.856303 59.751001 337.350599 65.822768 337.45687 71.972559 
C 337.563141 78.122351 339.277729 84.13847 342.42946 89.420308 
C 345.581192 94.702146 350.061574 99.067885 355.423316 102.081679 
C 360.785058 105.095473 366.84359 106.653576 372.99407 106.600439 
C 379.14455 106.547302 385.175258 104.884753 390.484127 101.778771 
C 395.792997 98.672789 400.197281 94.23029 403.257284 88.894786 
C 406.317287 83.559281 407.927674 77.514436 407.927674 71.363726 
L 372.689642 71.363722 
L 354.372303 41.260666 
z
" style="fill:#620080;"/>
   </g>
   <g id="patch_36">
    <path clip-path="url(#p2b4ff163ab)" d="M 372.689642 97.792246 
C 379.698569 97.792246 386.421371 95.00757 391.377431 90.051511 
C 396.33349 85.095451 399.118166 78.372649 399.118166 71.363722 
C 399.118166 64.354796 396.33349 57.631993 391.377431 52.675934 
C 386.421371 47.719874 379.698569 44.935198 372.689642 44.935198 
C 365.680716 44.935198 358.957913 47.719874 354.001854 52.675934 
C 349.045794 57.631993 346.261118 64.354796 346.261118 71.363722 
C 346.261118 78.372649 349.045794 85.095451 354.001854 90.051511 
C 358.957913 95.00757 365.680716 97.792246 372.689642 97.792246 
z
" style="fill:#ffffff;stroke:#ffffff;stroke-linejoin:miter;stroke-width:0.5;"/>
   </g>
   <g id="text_28">
    <!-- $2.40\% $ -->
    <g transform="translate(403.605219 70.536422)scale(0.1 -0.1)">
     <use transform="scale(0.996264)" xlink:href="#CMR17-50"/>
     <use transform="translate(45.690477 0)scale(0.996264)" xlink:href="#CMMI12-58"/>
     <use transform="translate(72.787654 0)scale(0.996264)" xlink:href="#CMR17-52"/>
     <use transform="translate(118.478131 0)scale(0.996264)" xlink:href="#CMR17-48"/>
     <use transform="translate(164.168608 0)scale(0.996264)" xlink:href="#CMR17-37"/>
    </g>
   </g>
   <g id="text_29">
    <!-- $11.70\% $ -->
    <g transform="translate(395.453236 52.030647)scale(0.1 -0.1)">
     <use transform="scale(0.996264)" xlink:href="#CMR17-49"/>
     <use transform="translate(45.690477 0)scale(0.996264)" xlink:href="#CMR17-49"/>
     <use transform="translate(91.380954 0)scale(0.996264)" xlink:href="#CMMI12-58"/>
     <use transform="translate(118.478131 0)scale(0.996264)" xlink:href="#CMR17-55"/>
     <use transform="translate(164.168608 0)scale(0.996264)" xlink:href="#CMR17-48"/>
     <use transform="translate(209.859086 0)scale(0.996264)" xlink:href="#CMR17-37"/>
    </g>
   </g>
   <g id="text_30">
    <!-- $19.60\% $ -->
    <g transform="translate(360.23408 29.912005)scale(0.1 -0.1)">
     <use transform="scale(0.996264)" xlink:href="#CMR17-49"/>
     <use transform="translate(45.690477 0)scale(0.996264)" xlink:href="#CMR17-57"/>
     <use transform="translate(91.380954 0)scale(0.996264)" xlink:href="#CMMI12-58"/>
     <use transform="translate(118.478131 0)scale(0.996264)" xlink:href="#CMR17-54"/>
     <use transform="translate(164.168608 0)scale(0.996264)" xlink:href="#CMR17-48"/>
     <use transform="translate(209.859086 0)scale(0.996264)" xlink:href="#CMR17-37"/>
    </g>
   </g>
   <g id="text_31">
    <!-- $66.30\% $ -->
    <g transform="translate(335.609247 112.251828)scale(0.1 -0.1)">
     <use transform="scale(0.996264)" xlink:href="#CMR17-54"/>
     <use transform="translate(45.690477 0)scale(0.996264)" xlink:href="#CMR17-54"/>
     <use transform="translate(91.380954 0)scale(0.996264)" xlink:href="#CMMI12-58"/>
     <use transform="translate(118.478131 0)scale(0.996264)" xlink:href="#CMR17-51"/>
     <use transform="translate(164.168608 0)scale(0.996264)" xlink:href="#CMR17-48"/>
     <use transform="translate(209.859086 0)scale(0.996264)" xlink:href="#CMR17-37"/>
    </g>
   </g>
   <g id="text_32">
    <!-- 512 -->
    <g transform="translate(365.217639 68.734694)scale(0.1 -0.1)">
     <use transform="scale(0.996264)" xlink:href="#CMSS17-53"/>
     <use transform="translate(46.843624 0)scale(0.996264)" xlink:href="#CMSS17-49"/>
     <use transform="translate(93.687247 0)scale(0.996264)" xlink:href="#CMSS17-50"/>
    </g>
    <!-- cores -->
    <g transform="translate(362.298046 78.97407)scale(0.1 -0.1)">
     <use transform="scale(0.996264)" xlink:href="#CMSS17-99"/>
     <use transform="translate(41.638822 0)scale(0.996264)" xlink:href="#CMSS17-111"/>
     <use transform="translate(85.879992 0)scale(0.996264)" xlink:href="#CMSS17-114"/>
     <use transform="translate(117.789764 0)scale(0.996264)" xlink:href="#CMSS17-101"/>
     <use transform="translate(159.428586 0)scale(0.996264)" xlink:href="#CMSS17-115"/>
    </g>
   </g>
  </g>
  <g id="axes_5">
   <g id="matplotlib.axis_9"/>
   <g id="matplotlib.axis_10"/>
   <g id="patch_37">
    <path d="M 128.442456 216.510025 
C 128.442456 208.349772 125.594723 200.439887 120.393181 194.152304 
C 115.19164 187.864721 107.955473 183.585264 99.939761 182.056185 
L 93.367339 216.510025 
L 128.442456 216.510025 
z
" style="fill:#ff007a;"/>
   </g>
   <g id="patch_38">
    <path d="M 99.939761 182.056185 
C 93.255182 180.781033 86.3418 181.478393 80.046542 184.062834 
C 73.751285 186.647274 68.342167 191.008766 64.481836 196.613 
L 93.367339 216.510025 
L 99.939761 182.056185 
z
" style="fill:#8280ff;"/>
   </g>
   <g id="patch_39">
    <path d="M 64.481836 196.613 
C 61.236369 201.324606 59.192444 206.7595 58.528913 212.442106 
C 57.865382 218.124712 58.60218 223.884299 60.674835 229.216877 
C 62.74749 234.549454 66.093729 239.294809 70.420742 243.037701 
C 74.747755 246.780593 79.925539 249.408569 85.501016 250.69167 
L 93.367339 216.510025 
L 64.481836 196.613 
z
" style="fill:#008042;"/>
   </g>
   <g id="patch_40">
    <path d="M 85.501016 250.69167 
C 90.641116 251.874577 95.982448 251.882967 101.12624 250.716214 
C 106.270031 249.549461 111.085008 247.237342 115.211695 243.952474 
C 119.338382 240.667606 122.671462 236.493822 124.962096 231.742728 
C 127.252729 226.991633 128.442457 221.78448 128.442456 216.510022 
L 93.367339 216.510025 
L 85.501016 250.69167 
z
" style="fill:#620080;"/>
   </g>
   <g id="patch_41">
    <path clip-path="url(#pc8c9beae96)" d="M 93.367339 242.816364 
C 100.343861 242.816364 107.035583 240.044562 111.968729 235.111416 
C 116.901875 230.178269 119.673677 223.486548 119.673677 216.510025 
C 119.673677 209.533503 116.901875 202.841782 111.968729 197.908635 
C 107.035583 192.975489 100.343861 190.203687 93.367339 190.203687 
C 86.390816 190.203687 79.699095 192.975489 74.765949 197.908635 
C 69.832802 202.841782 67.061 209.533503 67.061 216.510025 
C 67.061 223.486548 69.832802 230.178269 74.765949 235.111416 
C 79.699095 240.044562 86.390816 242.816364 93.367339 242.816364 
z
" style="fill:#ffffff;stroke:#ffffff;stroke-linejoin:miter;stroke-width:0.5;"/>
   </g>
   <g id="text_33">
    <!-- $22.00\% $ -->
    <g transform="translate(111.652155 191.053534)scale(0.1 -0.1)">
     <use transform="scale(0.996264)" xlink:href="#CMR17-50"/>
     <use transform="translate(45.690477 0)scale(0.996264)" xlink:href="#CMR17-50"/>
     <use transform="translate(91.380954 0)scale(0.996264)" xlink:href="#CMMI12-58"/>
     <use transform="translate(118.478131 0)scale(0.996264)" xlink:href="#CMR17-48"/>
     <use transform="translate(164.168608 0)scale(0.996264)" xlink:href="#CMR17-48"/>
     <use transform="translate(209.859086 0)scale(0.996264)" xlink:href="#CMR17-37"/>
    </g>
   </g>
   <g id="text_34">
    <!-- $18.40\% $ -->
    <g transform="translate(61.218856 178.441696)scale(0.1 -0.1)">
     <use transform="scale(0.996264)" xlink:href="#CMR17-49"/>
     <use transform="translate(45.690477 0)scale(0.996264)" xlink:href="#CMR17-56"/>
     <use transform="translate(91.380954 0)scale(0.996264)" xlink:href="#CMMI12-58"/>
     <use transform="translate(118.478131 0)scale(0.996264)" xlink:href="#CMR17-52"/>
     <use transform="translate(164.168608 0)scale(0.996264)" xlink:href="#CMR17-48"/>
     <use transform="translate(209.859086 0)scale(0.996264)" xlink:href="#CMR17-37"/>
    </g>
   </g>
   <g id="text_35">
    <!-- $31.00\% $ -->
    <g transform="translate(37.004221 234.884249)scale(0.1 -0.1)">
     <use transform="scale(0.996264)" xlink:href="#CMR17-51"/>
     <use transform="translate(45.690477 0)scale(0.996264)" xlink:href="#CMR17-49"/>
     <use transform="translate(91.380954 0)scale(0.996264)" xlink:href="#CMMI12-58"/>
     <use transform="translate(118.478131 0)scale(0.996264)" xlink:href="#CMR17-48"/>
     <use transform="translate(164.168608 0)scale(0.996264)" xlink:href="#CMR17-48"/>
     <use transform="translate(209.859086 0)scale(0.996264)" xlink:href="#CMR17-37"/>
    </g>
   </g>
   <g id="text_36">
    <!-- $28.60\% $ -->
    <g transform="translate(105.175296 253.303746)scale(0.1 -0.1)">
     <use transform="scale(0.996264)" xlink:href="#CMR17-50"/>
     <use transform="translate(45.690477 0)scale(0.996264)" xlink:href="#CMR17-56"/>
     <use transform="translate(91.380954 0)scale(0.996264)" xlink:href="#CMMI12-58"/>
     <use transform="translate(118.478131 0)scale(0.996264)" xlink:href="#CMR17-54"/>
     <use transform="translate(164.168608 0)scale(0.996264)" xlink:href="#CMR17-48"/>
     <use transform="translate(209.859086 0)scale(0.996264)" xlink:href="#CMR17-37"/>
    </g>
   </g>
   <g id="text_37">
    <!-- 729 -->
    <defs>
     <path d="M 21.703125 59 
C 22.90625 59 24.09375 59 25.296875 59 
L 36.796875 59 
C 22.5 42.359375 14.296875 21.328125 14.296875 -0.5 
L 22.296875 -0.5 
C 22.296875 20.671875 29.296875 42.125 43 59.296875 
L 43 65.765625 
L 3.90625 65.765625 
L 3.90625 59 
z
" id="CMSS17-55"/>
     <path d="M 6.796875 2.71875 
C 9.59375 0.328125 13.203125 -2 19.296875 -2 
C 31.40625 -2 43 11.265625 43 32.734375 
C 43 61.4375 30.5 66.078125 23.796875 66.078125 
C 17.09375 66.078125 12.796875 63.140625 9.09375 58.453125 
C 4.703125 53.078125 3.90625 48.28125 3.90625 42.703125 
C 3.90625 36.046875 5.09375 31.953125 7.90625 27.265625 
C 11.703125 21.203125 15.203125 19.921875 19.09375 19.921875 
C 25 19.921875 30.90625 22.796875 34.90625 27.75 
C 34.203125 14.09375 28.09375 4.171875 19.296875 4.171875 
C 15.703125 4.171875 12.796875 5.296875 9.90625 8.0625 
z
M 34.59375 42.90625 
C 34.703125 42.234375 34.703125 40.96875 34.703125 40.5625 
C 34.703125 32.40625 29.90625 26 22.90625 26 
C 18.296875 26 15.90625 28.328125 14.09375 31.34375 
C 11.90625 35.140625 11.796875 38.828125 11.796875 42.703125 
C 11.796875 46.5 11.796875 50.6875 14.59375 54.859375 
C 16.703125 57.859375 19.296875 60 23.796875 60 
C 33 60 34.5 46.875 34.59375 42.90625 
" id="CMSS17-57"/>
    </defs>
    <g transform="translate(85.895336 213.880997)scale(0.1 -0.1)">
     <use transform="scale(0.996264)" xlink:href="#CMSS17-55"/>
     <use transform="translate(46.843624 0)scale(0.996264)" xlink:href="#CMSS17-50"/>
     <use transform="translate(93.687247 0)scale(0.996264)" xlink:href="#CMSS17-57"/>
    </g>
    <!-- cores -->
    <g transform="translate(82.975742 224.120374)scale(0.1 -0.1)">
     <use transform="scale(0.996264)" xlink:href="#CMSS17-99"/>
     <use transform="translate(41.638822 0)scale(0.996264)" xlink:href="#CMSS17-111"/>
     <use transform="translate(85.879992 0)scale(0.996264)" xlink:href="#CMSS17-114"/>
     <use transform="translate(117.789764 0)scale(0.996264)" xlink:href="#CMSS17-101"/>
     <use transform="translate(159.428586 0)scale(0.996264)" xlink:href="#CMSS17-115"/>
    </g>
   </g>
  </g>
 </g>
 <defs>
  <clipPath id="p312747458f">
   <rect height="120.96" width="77.634783" x="54.336528" y="10.7"/>
  </clipPath>
  <clipPath id="pa4279b989e">
   <rect height="120.96" width="77.634783" x="147.498267" y="10.7"/>
  </clipPath>
  <clipPath id="pec9973d35c">
   <rect height="120.96" width="77.634783" x="240.660006" y="10.7"/>
  </clipPath>
  <clipPath id="p2b4ff163ab">
   <rect height="120.96" width="77.634783" x="333.821745" y="10.7"/>
  </clipPath>
  <clipPath id="pc8c9beae96">
   <rect height="120.96" width="77.634783" x="54.336528" y="155.852"/>
  </clipPath>
 </defs>
</svg>
